{
.appVersion = "3343";
.formatVersion = 3;
classes = (
{
automatic = 1;
code = "A Aacute Abreve Acircumflex Adieresis Agrave Amacron Aogonek Aring Atilde AE B C Cacute Ccaron Ccedilla Ccircumflex Cdotaccent D Dcaron Dcroat Eth E Eacute Ecaron Ecircumflex Edieresis Edotaccent Egrave Emacron Eogonek Etilde Schwa F G Gbreve Gcircumflex Gcommaaccent Gdotaccent H Hbar Hcircumflex I IJ Iacute Icircumflex Idieresis Idotaccent Igrave Imacron Iogonek Itilde J Jacute Jcircumflex K Kcommaaccent L Lacute Lcaron Lcommaaccent Ldot Lslash M N Nacute Ncaron Ncommaaccent Ntilde O Oacute Ocircumflex Odieresis Ograve Ohungarumlaut Omacron Oslash Otilde OE P Thorn Q R Racute Rcaron Rcommaaccent S Sacute Scaron Scedilla Scircumflex Scommaaccent Germandbls T Tcaron Tcedilla Tcommaaccent U Uacute Ubreve Ucircumflex Udieresis Ugrave Uhungarumlaut Umacron Uogonek Uring Utilde V W Wacute Wcircumflex Wdieresis Wgrave X Y Yacute Ycircumflex Ydieresis Ygrave Ytilde Z Zacute Zcaron Zdotaccent Saltillo C.alt Cacute.alt Ccaron.alt Ccedilla.alt Ccircumflex.alt Cdotaccent.alt L.alt Lacute.alt Lcaron.alt Lcommaaccent.alt Ldot.alt Lslash.alt AE.ss06 B_i M_i R_A R_S R_X R_Z S_i Delta Omega";
name = Uppercase;
},
{
automatic = 1;

glyphs = (
{
glyphname = A;
kernLeft = A;
kernRight = A;
layers = (
{
anchors = (
{
name = bottom;
pos = (213,2);
},
{
name = ogonek;
pos = (335,-15);
},
{
name = top;
pos = (291,580);
}
);
layerId = "7B26D558-51A9-4DA4-9A20-DDCE4917C78D";
shapes = (
{
closed = 0;
nodes = (
(15,-46,l),
(64,166,o),
(177,434,o),
(277,617,c)
);
},
{
closed = 0;
nodes = (
(379,259,l),
(228,235,o),
(118,210,o),
(24,178,c)
);
},
{
closed = 0;
nodes = (
(201,575,l),
(246,562,o),
(312,529,o),
(331,498,cs),
(351,466,o),
(352,349,o),
(352,271,cs),
(351,183,o),
(347,90,o),
(335,-15,cs)
);
}
);
width = 419;
},
{
anchors = (
{
name = bottom;
pos = (214,2);
},
{
name = ogonek;
pos = (400,13);
},
{
name = top;
pos = (292,570);
}
);
associatedMasterId = "7B26D558-51A9-4DA4-9A20-DDCE4917C78D";
background = {
shapes = (
{
closed = 1;
nodes = (
(13,168,l),
(13,164,o),
(9,159,o),
(9,151,cs),
(9,134,o),
(14,134,o),
(35,134,c),
(35,119,o),
(14,77,o),
(14,48,c),
(8,38,o),
(3,22,o),
(4,10,c),
(-4,-11,o),
(-10,-27,o),
(-10,-48,cs),
(-10,-69,o),
(-6,-72,o),
(7,-72,cs),
(12,-72,o),
(20,-67,o),
(31,-65,c),
(40,-55,o),
(54,-10,o),
(56,12,c),
(78,43,o),
(68,77,o),
(87,102,c),
(103,121,o),
(104,160,o),
(110,160,cs),
(148,160,o),
(159,180,o),
(201,192,c),
(218,193,o),
(243,205,o),
(248,205,cs),
(285,205,o),
(294,219,o),
(314,219,c),
(314,129,o),
(314,120,o),
(318,120,c),
(318,111,o),
(318,84,o),
(314,79,c),
(315,72,o),
(316,62,o),
(316,47,cs),
(316,22,o),
(312,-9,o),
(312,-20,cs),
(312,-31,o),
(316,-40,o),
(321,-40,cs),
(329,-40,o),
(358,-20,o),
(358,-8,cs),
(358,5,l),
(369,22,o),
(365,47,o),
(376,77,c),
(374,85,o),
(374,89,o),
(374,100,c),
(381,101,o),
(381,176,o),
(385,180,c),
(385,194,o),
(388,214,o),
(388,238,c),
(402,248,o),
(407,251,o),
(407,268,cs),
(407,287,o),
(391,274,o),
(391,292,cs),
(391,331,o),
(393,360,o),
(393,391,c),
(390,397,o),
(386,405,o),
(386,410,cs),
(386,419,o),
(387,432,o),
(389,443,c),
(385,467,o),
(383,488,o),
(383,503,c),
(380,509,o),
(379,518,o),
(374,532,c),
(368,554,o),
(339,554,o),
(335,560,c),
(329,567,o),
(308,568,o),
(308,581,cs),
(308,593,o),
(328,629,o),
(328,644,cs),
(328,657,o),
(308,661,o),
(299,661,cs),
(285,661,o),
(282,645,o),
(238,623,c),
(231,602,o),
(223,590,o),
(208,589,cs),
(189,587,o),
(175,581,o),
(175,554,cs),
(175,545,o),
(186,546,o),
(186,537,cs),
(186,529,o),
(164,518,o),
(159,491,c),
(150,476,l),
(147,454,o),
(128,425,o),
(128,402,c),
(112,371,o),
(99,323,o),
(97,308,c),
(77,280,o),
(74,241,o),
(67,239,c),
(28,233,o),
(22,224,o),
(11,182,c)
);
},
{
closed = 1;
nodes = (
(189,380,o),
(223,417,o),
(228,451,c),
(240,465,o),
(244,478,o),
(255,478,c),
(301,466,o),
(301,428,o),
(313,420,c),
(311,410,o),
(311,405,o),
(311,394,cs),
(311,367,o),
(313,352,o),
(317,351,c),
(314,345,o),
(314,336,o),
(314,325,cs),
(314,317,o),
(318,309,o),
(318,303,cs),
(318,297,o),
(315,286,o),
(315,269,c),
(298,265,o),
(276,266,o),
(263,258,c),
(186,258,o),
(182,250,o),
(171,250,cs),
(165,250,o),
(150,250,o),
(144,252,c),
(144,282,o),
(166,284,o),
(172,322,c),
(184,345,o),
(189,357,o),
(189,365,cs)
);
}
);
};
layerId = "93363B85-99D0-48F0-B524-5E3F5EE976E4";
name = "11 oct. 23 à 10:23";
shapes = (
{
closed = 0;
nodes = (
(33,-13,l),
(82,197,o),
(178,434,o),
(278,617,c)
);
},
{
closed = 0;
nodes = (
(379,287,l),
(227,260,o),
(119,236,o),
(25,204,c)
);
},
{
closed = 0;
nodes = (
(215,585,l),
(260,572,o),
(300,544,o),
(327,516,c),
(351,363,o),
(354,201,o),
(338,15,cs)
);
}
);
width = 365;
}
);
unicode = 65;
},
{
glyphname = AE;
kernLeft = A;
kernRight = E;
layers = (
{
layerId = "7B26D558-51A9-4DA4-9A20-DDCE4917C78D";
name = Regular;
shapes = (
{
closed = 0;
nodes = (
(15,-23,l),
(73,184,o),
(223,514,o),
(323,600,c)
);
},
{
closed = 0;
nodes = (
(34,217,l),
(201,272,o),
(428,295,o),
(535,282,c)
);
},
{
closed = 0;
nodes = (
(538,50,l),
(469,13,o),
(390,-10,o),
(332,-10,cs),
(273,-10,o),
(269,14,o),
(269,60,cs),
(269,218,o),
(316,471,o),
(341,534,c),
(379,548,o),
(446,565,o),
(500,564,cs),
(526,564,o),
(547,560,o),
(561,552,c)
);
}
);
width = 556;
}
);
metricLeft = A;
unicode = 198;
},
{
glyphname = B;
kernLeft = H;
kernRight = B;
layers = (
{
layerId = "7B26D558-51A9-4DA4-9A20-DDCE4917C78D";
shapes = (
{
attr = {
lineCapEnd = 1;
lineCapStart = 1;
};
closed = 0;
nodes = (
(180,538,l),
(142,354,o),
(109,113,o),
(102,-55,c)
);
},
{
attr = {
lineCapEnd = 1;
lineCapStart = 1;
};
closed = 0;
nodes = (
(77,556,l),
(139,574,o),
(208,588,o),
(274,588,cs),
(373,588,o),
(437,558,o),
(437,514,cs),
(437,437,o),
(232,324,o),
(85,267,c)
);
},
{
attr = {
lineCapEnd = 1;
lineCapStart = 1;
};
closed = 0;
nodes = (
(85,267,l),
(227,227,o),
(396,164,o),
(396,107,cs),
(396,59,o),
(272,-8,o),
(65,-23,c)
);
}
);
width = 447;
}
);
metricLeft = H;
unicode = 66;
},
{
glyphname = C;
kernLeft = C;
kernRight = C;
layers = (
{
anchors = (
{
name = bottom;
pos = (245,63);
},
{
name = top;
pos = (328,545);
}
);
layerId = "7B26D558-51A9-4DA4-9A20-DDCE4917C78D";
name = Regular;
shapes = (
{
attr = {
lineCapEnd = 1;
lineCapStart = 1;
};
closed = 0;
nodes = (
(372,39,l),
(328,0,o),
(266,-21,o),
(213,-20,cs),
(114,-18,o),
(48,59,o),
(45,185,cs),
(41,380,o),
(187,570,o),
(321,570,cs),
(379,570,o),
(398,534,o),
(398,481,cs),
(398,415,o),
(371,328,o),
(347,267,c)
);
},
{
attr = {
lineCapEnd = 1;
lineCapStart = 1;
};
closed = 0;
nodes = (
(347,267,l),
(354,325,o),
(366,383,o),
(382,436,c)
);
}
);
width = 423;
}
);
metricLeft = "=O-10";
unicode = 67;
},
{
glyphname = D;
kernLeft = D;
kernRight = D;
layers = (
{
anchors = (
{
name = bottom;
pos = (215,0);
},
{
name = center;
pos = (105,290);
},
{
name = top;
pos = (285,540);
}
);
layerId = "7B26D558-51A9-4DA4-9A20-DDCE4917C78D";
shapes = (
{
closed = 0;
nodes = (
(160,497,l),
(123,361,o),
(87,167,o),
(65,16,c)
);
},
{
closed = 0;
nodes = (
(71,583,l),
(270,536,o),
(415,437,o),
(415,310,cs),
(415,178,o),
(261,22,o),
(97,-52,c)
);
},
{
closed = 0;
nodes = (
(97,-52,l),
(167,-5,o),
(230,25,o),
(310,49,c)
);
}
);
width = 445;
},
{
anchors = (
{
name = bottom;
pos = (220,0);
},
{
name = center;
pos = (110,290);
},
{
name = top;
pos = (290,540);
}
);
associatedMasterId = "7B26D558-51A9-4DA4-9A20-DDCE4917C78D";
background = {
shapes = (
{
closed = 1;
nodes = (
(75,307,o),
(76,300,o),
(79,294,c),
(69,275,o),
(67,199,o),
(62,182,c),
(57,76,o),
(50,68,o),
(50,53,cs),
(50,46,o),
(53,43,o),
(53,39,cs),
(53,33,o),
(47,26,o),
(47,11,cs),
(47,-3,o),
(48,-8,o),
(62,-8,cs),
(71,-8,o),
(89,15,o),
(107,60,c),
(113,110,o),
(121,118,o),
(129,189,c),
(130,202,o),
(139,221,o),
(139,236,cs),
(139,251,o),
(143,263,o),
(147,270,c),
(156,334,o),
(167,351,o),
(175,404,c),
(187,429,o),
(187,477,o),
(201,494,c),
(223,480,o),
(257,459,o),
(288,447,c),
(303,425,o),
(327,417,o),
(342,392,c),
(379,351,o),
(368,326,o),
(381,315,c),
(384,312,o),
(384,293,o),
(384,277,c),
(380,251,o),
(369,247,o),
(365,217,c),
(349,199,o),
(317,144,o),
(315,137,c),
(292,119,o),
(305,108,o),
(259,79,c),
(259,70,o),
(248,61,o),
(232,52,cs),
(196,32,o),
(182,6,o),
(136,5,c),
(120,-3,o),
(121,-13,o),
(104,-15,c),
(94,-32,o),
(75,-38,o),
(75,-54,cs),
(75,-67,o),
(87,-70,o),
(95,-78,c),
(123,-78,o),
(134,-73,o),
(147,-73,c),
(173,-61,o),
(196,-57,o),
(204,-47,c),
(222,-44,o),
(246,-24,o),
(260,-11,c),
(273,-10,o),
(287,7,o),
(293,9,cs),
(311,17,o),
(346,42,o),
(346,61,cs),
(346,69,o),
(343,71,o),
(340,71,cs),
(334,71,o),
(328,69,o),
(318,61,c),
(318,76,o),
(362,119,o),
(371,125,c),
(382,161,o),
(404,158,o),
(408,188,c),
(421,197,o),
(437,240,o),
(440,253,c),
(456,276,o),
(458,304,o),
(458,331,cs),
(458,392,o),
(443,402,o),
(440,423,c),
(410,455,o),
(394,492,o),
(361,508,cs),
(350,513,o),
(340,526,o),
(327,531,c),
(286,566,o),
(242,578,o),
(225,592,c),
(179,592,o),
(173,607,o),
(163,607,cs),
(157,607,o),
(153,606,o),
(148,605,c),
(138,618,o),
(105,618,o),
(93,622,c),
(88,622,o),
(84,619,o),
(68,619,cs),
(65,619,o),
(60,620,o),
(55,620,c),
(43,613,l),
(43,601,o),
(47,598,o),
(47,569,cs),
(47,551,o),
(76,549,o),
(108,527,c),
(122,525,o),
(138,521,o),
(152,514,c),
(153,507,l),
(123,498,o),
(130,485,o),
(101,461,c),
(97,441,o),
(91,436,o),
(89,407,cs),
(84,338,o),
(75,325,o),
(75,314,cs)
);
},
{
closed = 1;
nodes = (
(452,90,o),
(435,83,o),
(408,76,cs),
(388,71,o),
(367,66,o),
(348,62,cs),
(338,59,o),
(330,57,o),
(322,55,cs),
(315,53,o),
(309,50,o),
(305,48,c),
(408,156,o),
(459,256,o),
(459,341,cs),
(459,397,o),
(437,447,o),
(385,491,cs),
(352,522,o),
(303,551,o),
(237,584,cs),
(230,588,o),
(219,591,o),
(204,593,cs),
(191,597,o),
(180,602,o),
(173,606,cs),
(172,607,o),
(171,607,o),
(169,607,cs),
(162,606,o),
(156,605,o),
(152,605,c),
(143,608,o),
(133,613,o),
(125,618,cs),
(119,620,o),
(106,623,o),
(92,623,c),
(89,621,o),
(86,620,o),
(83,619,cs),
(79,619,o),
(75,617,o),
(72,616,c),
(66,617,o),
(58,619,o),
(50,621,c),
(45,621,o),
(42,618,o),
(42,612,cs),
(42,610,o),
(43,607,o),
(44,602,cs),
(46,598,o),
(47,593,o),
(49,586,c),
(48,579,o),
(46,573,o),
(45,567,c),
(45,564,o),
(47,560,o),
(51,556,cs),
(55,553,o),
(61,549,o),
(70,545,cs),
(108,527,ls),
(116,523,o),
(127,522,o),
(133,522,cs),
(140,520,o),
(147,519,o),
(150,517,cs),
(154,516,o),
(156,514,o),
(156,512,cs),
(156,509,o),
(154,507,o),
(151,505,cs),
(147,503,o),
(142,502,o),
(136,501,c),
(133,496,o),
(126,488,o),
(117,479,cs),
(107,469,o),
(102,463,o),
(101,459,cs),
(97,440,o),
(94,428,o),
(92,421,cs),
(91,417,o),
(90,411,o),
(89,402,cs),
(88,394,o),
(87,381,o),
(86,367,cs),
(83,344,o),
(80,327,o),
(74,315,c),
(80,291,l),
(72,258,o),
(65,217,o),
(63,169,cs),
(61,149,o),
(59,129,o),
(58,107,cs),
(56,87,o),
(54,67,o),
(53,47,c),
(53,43,o),
(54,40,o),
(55,37,c),
(50,11,l),
(52,4,o),
(54,-1,o),
(55,-5,cs),
(57,-9,o),
(59,-11,o),
(61,-11,cs),
(65,-11,o),
(72,-6,o),
(80,4,cs),
(88,14,o),
(97,30,o),
(108,53,c),
(127,144,ls),
(128,152,o),
(130,160,o),
(131,168,c),
(131,177,o),
(134,195,o),
(138,222,cs),
(142,249,o),
(150,285,o),
(160,329,cs),
(178,409,o),
(190,464,o),
(198,494,c),
(215,486,o),
(236,474,o),
(257,464,cs),
(288,449,o),
(318,425,o),
(341,396,cs),
(372,362,o),
(387,331,o),
(387,303,cs),
(387,260,o),
(381,230,o),
(369,216,c),
(365,213,o),
(363,210,o),
(361,207,cs),
(359,204,o),
(357,202,o),
(355,201,c),
(337,169,o),
(325,146,o),
(315,132,c),
(306,126,o),
(301,118,o),
(297,109,cs),
(296,107,o),
(291,102,o),
(284,95,cs),
(276,88,o),
(266,79,o),
(253,67,cs),
(235,50,o),
(219,34,o),
(205,28,c),
(199,25,o),
(194,22,o),
(190,19,cs),
(185,16,o),
(182,14,o),
(179,11,c),
(166,8,o),
(155,5,o),
(143,2,cs),
(124,-1,o),
(112,-9,o),
(103,-24,cs),
(92,-38,o),
(82,-51,o),
(75,-57,c),
(87,-70,o),
(94,-76,o),
(101,-78,c),
(141,-73,o),
(173,-69,o),
(193,-59,c),
(199,-54,l),
(226,-47,o),
(264,-26,o),
(312,13,c),
(346,17,o),
(372,19,o),
(390,20,c),
(396,22,o),
(402,24,o),
(407,25,cs),
(412,27,o),
(418,28,o),
(422,28,c),
(448,37,o),
(470,49,o),
(482,61,c),
(477,74,o),
(471,88,o),
(463,103,c)
);
}
);
};
layerId = "DA7E2DCD-83DD-40F9-8E1F-FCAF8A08C4DD";
name = "12 févr. 25 à 11:28";
shapes = (
{
closed = 0;
nodes = (
(165,497,l),
(128,361,o),
(92,167,o),
(70,16,c)
);
},
{
closed = 0;
nodes = (
(76,583,l),
(275,536,o),
(420,437,o),
(420,310,cs),
(420,178,o),
(266,22,o),
(102,-52,c)
);
},
{
closed = 0;
nodes = (
(102,-52,l),
(172,-5,o),
(250,33,o),
(330,55,c)
);
}
);
width = 440;
}
);
metricLeft = H;
unicode = 68;
},
{
glyphname = Eth;
kernLeft = D;
kernRight = D;
layers = (
{
layerId = "7B26D558-51A9-4DA4-9A20-DDCE4917C78D";
shapes = (
{
closed = 0;
nodes = (
(50,258,l),
(113,268,o),
(227,273,o),
(291,271,c)
);
},
{
pos = (23,0);
ref = D;
}
);
width = 468;
}
);
metricRight = D;
unicode = 208;
},
{
glyphname = E;
kernLeft = E;
kernRight = E;
layers = (
{
anchors = (
{
name = bottom;
pos = (197,0);
},
{
name = ogonek;
pos = (268,37);
},
{
name = top;
pos = (288,565);
},
{
name = topleft;
pos = (15,580);
}
);
layerId = "7B26D558-51A9-4DA4-9A20-DDCE4917C78D";
name = Regular;
shapes = (
{
attr = {
lineCapEnd = 1;
lineCapStart = 1;
};
closed = 0;
nodes = (
(345,315,l),
(335,316,o),
(325,317,o),
(312,317,cs),
(243,317,o),
(161,293,o),
(77,249,c)
);
},
{
attr = {
lineCapEnd = 1;
lineCapStart = 1;
};
closed = 0;
nodes = (
(346,81,l),
(285,37,o),
(195,6,o),
(103,6,cs),
(85,6,o),
(67,7,o),
(50,10,c)
);
},
{
attr = {
lineCapEnd = 1;
lineCapStart = 1;
};
closed = 0;
nodes = (
(50,10,l),
(59,228,o),
(117,501,o),
(151,535,cs),
(187,571,o),
(253,588,o),
(306,588,cs),
(334,588,o),
(360,584,o),
(388,574,c)
);
}
);
width = 398;
}
);
metricLeft = "=H-15";
unicode = 69;
},
{
glyphname = Schwa;
kernLeft = O;
kernRight = O;
layers = (
{
layerId = "7B26D558-51A9-4DA4-9A20-DDCE4917C78D";
shapes = (
{
attr = {
identifier = ID0x11c8716a0;
lineCapEnd = 1;
lineCapStart = 1;
};
closed = 0;
nodes = (
(484,344,l),
(269,237,o),
(150,103,o),
(150,34,cs),
(150,12,o),
(162,0,o),
(189,0,cs),
(301,0,o),
(490,202,o),
(490,404,cs),
(490,506,o),
(441,588,o),
(331,588,cs),
(250,588,o),
(132,544,o),
(50,366,c)
);
}
);
width = 530;
}
);
metricRight = O;
unicode = 399;
},
{
glyphname = F;
kernLeft = E;
kernRight = F;
layers = (
{
layerId = "7B26D558-51A9-4DA4-9A20-DDCE4917C78D";
shapes = (
{
closed = 0;
nodes = (
(88,-58,l),
(88,118,o),
(120,480,o),
(165,532,cs),
(193,564,o),
(260,586,o),
(320,586,cs),
(337,586,o),
(354,584,o),
(370,580,cs)
);
},
{
closed = 0;
nodes = (
(368,297,l),
(351,301,o),
(331,303,o),
(310,303,cs),
(240,302,o),
(148,281,o),
(55,243,c)
);
}
);
width = 380;
}
);
metricLeft = "=H-10";
unicode = 70;
},
{
glyphname = G;
kernLeft = C;
kernRight = G;
layers = (
{
anchors = (
{
name = bottom;
pos = (176,-40);
},
{
name = top;
pos = (334,548);
}
);
layerId = "7B26D558-51A9-4DA4-9A20-DDCE4917C78D";
shapes = (
{
closed = 0;
nodes = (
(432,414,l),
(434,529,o),
(384,575,o),
(324,575,cs),
(196,575,o),
(45,363,o),
(45,168,cs),
(45,63,o),
(90,-3,o),
(158,-3,cs),
(229,-3,o),
(317,68,o),
(387,174,c),
(392,172,l),
(384,99,o),
(362,-26,o),
(335,-142,cs)
);
}
);
width = 462;
}
);
metricLeft = "=O-10";
unicode = 71;
},
{
glyphname = H;
kernLeft = H;
kernRight = H;
layers = (
{
anchors = (
{
name = bottom;
pos = (273,0);
},
{
name = center;
pos = (273,437);
},
{
name = top;
pos = (323,550);
},
{
name = topleft;
pos = (25,580);
}
);
layerId = "7B26D558-51A9-4DA4-9A20-DDCE4917C78D";
shapes = (
{
closed = 0;
nodes = (
(157,582,l),
(126,435,o),
(106,169,o),
(106,51,cs),
(106,18,o),
(112,-2,o),
(122,-2,cs),
(130,-2,o),
(142,8,o),
(158,32,c)
);
},
{
closed = 0;
nodes = (
(65,223,l),
(150,253,o),
(271,276,o),
(443,285,c)
);
},
{
closed = 0;
nodes = (
(472,582,l),
(481,568,o),
(485,549,o),
(485,527,cs),
(485,438,o),
(415,129,o),
(356,-82,c)
);
}
);
width = 540;
}
);
unicode = 72;
},
{
glyphname = Hbar;
kernLeft = H;
kernRight = H;
layers = (
{
layerId = "7B26D558-51A9-4DA4-9A20-DDCE4917C78D";
shapes = (
{
pos = (7,0);
ref = H;
},
{
closed = 0;
nodes = (
(40,354,l),
(187,405,o),
(389,435,o),
(566,435,c)
);
}
);
width = 596;
}
);
unicode = 294;
},
{
glyphname = I;
kernLeft = I;
kernRight = I;
layers = (
{
anchors = (
{
name = bottom;
pos = (109,0);
},
{
name = ogonek;
pos = (112,-4);
},
{
name = top;
pos = (192,580);
},
{
name = topleft;
pos = (86,580);
}
);
layerId = "7B26D558-51A9-4DA4-9A20-DDCE4917C78D";
name = Regular;
shapes = (
{
closed = 0;
nodes = (
(114,390,l),
(129,465,o),
(139,508,o),
(158,575,c),
(163,576,l),
(124,379,o),
(95,165,o),
(95,47,cs),
(95,30,o),
(100,9,o),
(112,-4,c)
);
}
);
width = 218;
}
);
metricLeft = "=H+30";
metricRight = H;
unicode = 73;
},
{
glyphname = IJ;
kernLeft = I;
kernRight = J;
layers = (
{
layerId = "7B26D558-51A9-4DA4-9A20-DDCE4917C78D";
shapes = (
{
ref = I;
},
{
closed = 0;
nodes = (
(397,552,l),
(414,559,o),
(435,565,o),
(449,565,cs),
(471,565,o),
(478,551,o),
(478,515,cs),
(478,384,o),
(408,62,o),
(350,4,cs),
(343,-3,o),
(335,-9,o),
(325,-9,cs),
(280,-9,o),
(246,124,o),
(233,223,c),
(237,224,l),
(271,113,l)
);
}
);
width = 518;
}
);
metricLeft = I;
metricRight = J;
unicode = 306;
},
{
glyphname = J;
kernLeft = J;
kernRight = J;
layers = (
{
associatedMasterId = "7B26D558-51A9-4DA4-9A20-DDCE4917C78D";
layerId = "55333BDC-7A2E-4C40-BF97-23E339C6BD3D";
name = "7 janv. 25 à 15:19";
shapes = (
{
closed = 0;
nodes = (
(225,539,l),
(233,542,o),
(240,544,o),
(248,544,cs),
(271,544,o),
(276,530,o),
(276,498,cs),
(276,375,o),
(201,45,o),
(142,-13,cs),
(135,-20,o),
(126,-26,o),
(117,-26,cs),
(74,-26,o),
(38,107,o),
(25,206,c)
);
},
{
closed = 0;
nodes = (
(25,206,l),
(29,207,l)
);
},
{
closed = 0;
nodes = (
(29,207,l),
(63,96,l)
);
}
);
width = 306;
},
{
anchors = (
{
name = bottom;
pos = (158,0);
},
{
name = top;
pos = (268,560);
}
);
layerId = "7B26D558-51A9-4DA4-9A20-DDCE4917C78D";
name = Regular;
shapes = (
{
closed = 0;
nodes = (
(224,560,l),
(232,563,o),
(239,565,o),
(247,565,cs),
(268,565,o),
(275,551,o),
(275,515,cs),
(275,384,o),
(205,62,o),
(147,4,cs),
(140,-3,o),
(132,-9,o),
(122,-9,cs),
(77,-9,o),
(43,124,o),
(30,223,c),
(34,224,l),
(68,113,l)
);
}
);
width = 315;
}
);
unicode = 74;
},
{
glyphname = K;
kernLeft = H;
kernRight = K;
layers = (
{
anchors = (
{
name = bottom;
pos = (169,20);
},
{
name = top;
pos = (277,570);
}
);
layerId = "7B26D558-51A9-4DA4-9A20-DDCE4917C78D";
name = Regular;
shapes = (
{
closed = 0;
nodes = (
(70,19,l),
(83,199,o),
(109,387,o),
(146,562,c)
);
},
{
closed = 0;
nodes = (
(376,605,l),
(379,606,o),
(384,607,o),
(388,607,cs),
(406,608,o),
(412,597,o),
(412,585,cs),
(412,548,o),
(359,477,o),
(323,436,cs),
(272,377,o),
(223,329,o),
(150,271,c),
(177,217,o),
(282,28,o),
(346,28,cs),
(373,28,o),
(409,62,o),
(453,106,cs),
(458,111,l)
);
}
);
width = 458;
},
{
anchors = (
{
name = bottom;
pos = (174,20);
},
{
name = top;
pos = (282,570);
}
);
associatedMasterId = "7B26D558-51A9-4DA4-9A20-DDCE4917C78D";
background = {
shapes = (
{
closed = 1;
nodes = (
(227,295,o),
(244,310,o),
(251,314,cs),
(265,322,o),
(280,353,o),
(298,361,c),
(341,416,o),
(359,425,o),
(359,437,c),
(363,443,o),
(401,465,o),
(438,542,c),
(463,556,o),
(472,603,o),
(472,642,cs),
(472,647,o),
(463,656,o),
(458,656,c),
(448,645,o),
(426,653,o),
(414,642,cs),
(404,632,o),
(354,623,o),
(354,597,cs),
(354,591,o),
(370,583,o),
(370,575,cs),
(370,560,o),
(350,528,o),
(325,492,c),
(321,478,o),
(306,460,o),
(299,452,c),
(273,425,o),
(273,412,o),
(261,405,cs),
(251,400,o),
(166,285,o),
(144,285,c),
(144,336,o),
(164,381,o),
(169,428,cs),
(170,443,o),
(191,503,o),
(191,516,cs),
(191,529,o),
(201,548,o),
(201,563,cs),
(201,581,o),
(181,602,o),
(177,602,cs),
(169,602,o),
(166,590,o),
(151,588,c),
(146,587,o),
(128,573,o),
(110,556,cs),
(105,550,o),
(100,506,o),
(100,481,c),
(91,445,o),
(88,375,o),
(82,365,c),
(81,348,o),
(77,324,o),
(75,316,c),
(75,276,o),
(75,265,o),
(78,259,c),
(78,254,o),
(69,244,o),
(69,240,cs),
(69,221,o),
(60,174,o),
(60,153,c),
(52,114,o),
(52,47,o),
(48,36,c),
(48,6,o),
(53,-1,o),
(59,-1,cs),
(65,-1,o),
(68,2,o),
(74,2,cs),
(80,2,o),
(83,-1,o),
(88,-1,cs),
(93,-1,o),
(108,4,o),
(108,12,cs),
(108,17,o),
(107,21,o),
(107,25,cs),
(107,36,o),
(115,97,o),
(115,134,c),
(124,143,o),
(125,225,o),
(137,225,cs),
(141,225,o),
(189,130,o),
(202,125,c),
(213,101,o),
(227,91,o),
(235,70,c),
(266,51,o),
(269,-6,o),
(325,-6,cs),
(348,-6,o),
(353,-1,o),
(389,19,c),
(399,39,o),
(423,58,o),
(427,65,c),
(452,74,o),
(462,89,o),
(462,106,cs),
(462,118,o),
(460,122,o),
(454,122,cs),
(445,122,o),
(433,113,o),
(429,107,c),
(412,99,o),
(381,71,o),
(361,71,cs),
(342,71,o),
(336,75,o),
(305,123,c),
(296,123,o),
(250,228,o),
(242,249,cs),
(241,254,o),
(227,268,o),
(227,282,cs)
);
}
);
};
layerId = "B0FFED6C-9BE7-48A1-8416-327B2420E8C3";
name = "11 févr. 25 à 21:42";
shapes = (
{
closed = 0;
nodes = (
(75,19,l),
(88,199,o),
(114,387,o),
(151,562,c)
);
},
{
closed = 0;
nodes = (
(438,89,l),
(399,39,o),
(365,15,o),
(344,15,cs),
(285,15,o),
(171,208,o),
(144,262,c),
(217,320,o),
(277,377,o),
(328,436,cs),
(364,477,o),
(417,548,o),
(417,585,cs),
(417,597,o),
(411,608,o),
(393,607,cs),
(389,607,o),
(384,606,o),
(381,605,c)
);
}
);
width = 448;
}
);
metricLeft = "=H+5";
unicode = 75;
},
{
glyphname = L;
kernLeft = H;
kernRight = L;
layers = (
{
anchors = (
{
name = bottom;
pos = (153,0);
},
{
name = center;
pos = (168,350);
},
{
name = top;
pos = (204,561);
},
{
name = topright;
pos = (286,580);
}
);
layerId = "7B26D558-51A9-4DA4-9A20-DDCE4917C78D";
name = Regular;
shapes = (
{
closed = 0;
nodes = (
(98,349,l),
(122,438,o),
(147,522,o),
(175,592,c)
);
},
{
closed = 0;
nodes = (
(175,592,l),
(178,591,l)
);
},
{
closed = 0;
nodes = (
(178,591,l),
(129,407,o),
(70,120,o),
(70,49,cs),
(70,9,o),
(88,-3,o),
(119,-3,cs),
(169,-3,o),
(250,28,o),
(304,60,cs)
);
}
);
width = 319;
}
);
metricLeft = "=H+5";
unicode = 76;
},
{
glyphname = Lslash;
kernLeft = H;
kernRight = L;
layers = (
{
layerId = "7B26D558-51A9-4DA4-9A20-DDCE4917C78D";
shapes = (
{
closed = 0;
nodes = (
(30,198,l),
(125,280,o),
(208,347,o),
(290,411,c)
);
},
{
pos = (20,0);
ref = L;
}
);
width = 339;
}
);
metricRight = L;
unicode = 321;
},
{
glyphname = M;
kernLeft = H;
kernRight = H;
layers = (
{
layerId = "7B26D558-51A9-4DA4-9A20-DDCE4917C78D";
name = Regular;
shapes = (
{
closed = 0;
nodes = (
(75,11,l),
(97,201,o),
(125,431,o),
(146,601,c),
(151,603,l),
(134,431,o),
(200,270,o),
(270,267,cs),
(334,264,o),
(437,377,o),
(532,537,c),
(537,539,l),
(501,369,o),
(468,199,o),
(434,29,c)
);
}
);
width = 567;
}
);
metricLeft = "=H+10";
metricRight = "=H-25";
unicode = 77;
},
{
glyphname = N;
kernLeft = H;
kernRight = H;
layers = (
{
anchors = (
{
name = bottom;
pos = (200,10);
},
{
name = top;
pos = (347,540);
}
);
layerId = "7B26D558-51A9-4DA4-9A20-DDCE4917C78D";
name = Regular;
shapes = (
{
closed = 0;
nodes = (
(227,564,l),
(167,421,o),
(86,108,o),
(50,-34,c)
);
},
{
closed = 0;
nodes = (
(50,-34,l),
(110,210,o),
(129,353,o),
(148,524,c),
(152,525,l),
(204,360,o),
(290,152,o),
(382,5,c),
(395,10,l),
(442,217,o),
(467,413,o),
(484,593,c)
);
}
);
width = 519;
}
);
metricLeft = "=H-15";
metricRight = "=H-20";
unicode = 78;
},
{
glyphname = O;
kernLeft = O;
kernRight = O;
layers = (
{
anchors = (
{
name = bottom;
pos = (203,1);
},
{
name = center;
pos = (311,349);
},
{
name = ogonek;
pos = (499,11);
},
{
name = top;
pos = (362,580);
},
{
name = topleft;
pos = (35,744);
},
{
name = topright;
pos = (532,744);
}
);
associatedMasterId = "7B26D558-51A9-4DA4-9A20-DDCE4917C78D";
background = {
shapes = (
{
closed = 1;
nodes = (
(160,333,o),
(177,354,o),
(189,422,c),
(205,444,o),
(236,475,o),
(246,481,cs),
(258,488,o),
(301,508,o),
(325,508,cs),
(352,508,o),
(394,491,o),
(397,477,c),
(439,432,o),
(429,413,o),
(445,396,c),
(444,390,o),
(444,385,o),
(444,381,cs),
(444,367,o),
(450,345,o),
(450,334,cs),
(450,305,o),
(435,274,o),
(435,252,c),
(427,249,o),
(423,231,o),
(414,204,cs),
(408,185,o),
(384,161,o),
(367,134,c),
(335,112,o),
(331,90,o),
(282,68,c),
(273,59,o),
(251,56,o),
(228,53,c),
(189,53,o),
(174,112,o),
(166,121,c),
(163,143,o),
(157,177,o),
(157,183,cs),
(157,198,o),
(160,207,o),
(160,219,cs)
);
},
{
closed = 1;
nodes = (
(52,237,o),
(58,235,o),
(66,235,cs),
(77,235,o),
(78,260,o),
(84,260,cs),
(87,260,o),
(89,258,o),
(89,226,c),
(80,214,o),
(80,192,o),
(80,152,cs),
(80,149,o),
(76,138,o),
(76,130,c),
(85,82,o),
(80,57,o),
(109,17,c),
(132,-19,o),
(165,-18,o),
(189,-24,c),
(239,-24,o),
(246,-6,o),
(294,7,c),
(321,29,o),
(340,45,o),
(372,66,c),
(388,92,o),
(422,108,o),
(427,132,c),
(465,165,o),
(469,190,o),
(481,200,c),
(523,282,o),
(520,317,o),
(529,370,c),
(529,475,o),
(493,502,o),
(485,527,c),
(468,537,o),
(468,557,o),
(451,565,c),
(440,583,o),
(427,584,o),
(417,596,c),
(373,606,o),
(370,611,o),
(360,611,cs),
(346,611,o),
(346,601,o),
(338,601,cs),
(298,601,o),
(298,576,o),
(261,560,c),
(252,557,o),
(224,523,o),
(221,523,cs),
(219,523,o),
(219,527,o),
(219,534,cs),
(219,554,o),
(236,554,o),
(236,591,cs),
(236,599,o),
(226,606,o),
(219,606,c),
(211,594,o),
(188,591,o),
(183,566,c),
(157,542,o),
(152,492,o),
(138,472,c),
(138,464,o),
(125,440,o),
(125,422,c),
(109,407,o),
(105,366,o),
(66,306,c),
(56,295,o),
(52,265,o),
(52,246,cs)
);
},
{
closed = 0;
nodes = (
(214,570,l),
(155,443,o),
(107,300,o),
(107,166,cs),
(107,64,o),
(136,-6,o),
(211,-6,cs),
(334,-6,o),
(488,179,o),
(488,365,cs),
(488,478,o),
(436,555,o),
(355,556,cs),
(239,558,o),
(132,405,o),
(68,253,cs)
);
}
);
};
layerId = "4B3C5F29-6460-4486-93E9-D9933D50F83E";
name = "7 janv. 25 à 15:58";
shapes = (
{
closed = 0;
nodes = (
(210,573,l),
(162,473,o),
(108,328,o),
(108,191,cs),
(108,87,o),
(137,1,o),
(219,1,cs),
(339,1,o),
(497,189,o),
(497,378,cs),
(497,487,o),
(446,561,o),
(362,562,cs),
(243,564,o),
(126,418,o),
(65,271,cs)
);
}
);
width = 530;
},
{
anchors = (
{
name = bottom;
pos = (199,-1);
},
{
name = center;
pos = (254,290);
},
{
name = ogonek;
pos = (192,-1);
},
{
name = top;
pos = (363,551);
},
{
name = topleft;
pos = (11,580);
},
{
name = topright;
pos = (496,580);
}
);
layerId = "7B26D558-51A9-4DA4-9A20-DDCE4917C78D";
name = Regular;
shapes = (
{
closed = 0;
nodes = (
(201,575,l),
(142,448,o),
(95,305,o),
(95,171,cs),
(95,69,o),
(124,-1,o),
(199,-1,cs),
(320,-1,o),
(471,184,o),
(471,374,cs),
(471,483,o),
(422,560,o),
(342,561,cs),
(228,563,o),
(119,410,o),
(55,258,cs)
);
}
);
width = 511;
}
);
unicode = 79;
},
{
glyphname = Oslash;
kernLeft = O;
kernRight = O;
layers = (
{
layerId = "7B26D558-51A9-4DA4-9A20-DDCE4917C78D";
shapes = (
{
closed = 0;
nodes = (
(60,-46,l),
(161,160,o),
(298,346,o),
(430,612,c)
);
},
{
closed = 0;
nodes = (
(312,561,ls),
(241,562,o),
(174,497,o),
(132,439,c),
(89,344,o),
(66,255,o),
(66,171,cs),
(66,69,o),
(95,-1,o),
(170,-1,cs),
(291,-1,o),
(442,184,o),
(442,374,cs),
(442,483,o),
(393,560,o),
(314,561,c)
);
}
);
width = 482;
}
);
metricRight = O;
unicode = 216;
},
{
glyphname = OE;
kernLeft = O;
kernRight = E;
layers = (
{
layerId = "7B26D558-51A9-4DA4-9A20-DDCE4917C78D";
shapes = (
{
closed = 0;
nodes = (
(732,302,l),
(656,311,o),
(562,289,o),
(464,234,c)
);
},
{
closed = 0;
nodes = (
(736,62,l),
(675,27,o),
(589,-4,o),
(497,-4,cs),
(479,-4,o),
(461,-3,o),
(444,0,c),
(453,218,o),
(492,455,o),
(540,512,cs),
(571,549,o),
(644,576,o),
(711,576,cs),
(730,576,o),
(751,574,o),
(770,569,c)
);
},
{
closed = 0;
nodes = (
(202,557,l),
(143,430,o),
(94,305,o),
(94,171,cs),
(94,69,o),
(123,-1,o),
(199,-1,cs),
(319,-1,o),
(470,174,o),
(470,363,cs),
(470,471,o),
(421,540,o),
(344,541,cs),
(227,543,o),
(116,386,o),
(55,242,cs)
);
}
);
width = 765;
},
{
associatedMasterId = "7B26D558-51A9-4DA4-9A20-DDCE4917C78D";
background = {
shapes = (
{
closed = 1;
nodes = (
(157,312,o),
(174,333,o),
(186,401,c),
(202,423,o),
(233,453,o),
(243,460,cs),
(255,467,o),
(298,487,o),
(322,487,cs),
(349,487,o),
(391,470,o),
(394,456,c),
(436,411,o),
(426,392,o),
(442,375,c),
(441,369,o),
(441,363,o),
(441,360,cs),
(441,345,o),
(447,324,o),
(447,313,cs),
(447,283,o),
(432,253,o),
(432,231,c),
(424,228,o),
(420,210,o),
(411,183,cs),
(405,164,o),
(381,139,o),
(364,113,c),
(332,91,o),
(328,69,o),
(279,47,c),
(270,38,o),
(248,35,o),
(225,32,c),
(186,32,o),
(171,91,o),
(163,100,c),
(160,121,o),
(154,156,o),
(154,162,cs),
(154,177,o),
(157,186,o),
(157,198,cs)
);
},
{
closed = 1;
nodes = (
(800,606,o),
(786,613,o),
(753,615,c),
(750,615,o),
(744,614,o),
(738,614,cs),
(734,614,o),
(729,617,o),
(722,617,cs),
(707,617,o),
(693,615,o),
(684,612,c),
(633,612,o),
(618,597,o),
(603,592,c),
(599,590,o),
(594,587,o),
(587,577,c),
(574,571,o),
(561,555,o),
(522,530,c),
(515,516,o),
(504,503,o),
(490,491,c),
(465,516,o),
(465,536,o),
(448,543,c),
(437,561,o),
(424,562,o),
(414,575,c),
(370,585,o),
(367,590,o),
(357,590,cs),
(343,590,o),
(343,579,o),
(335,579,cs),
(295,579,o),
(295,555,o),
(258,539,c),
(249,535,o),
(221,502,o),
(218,502,cs),
(216,502,o),
(216,506,o),
(216,513,cs),
(216,533,o),
(233,533,o),
(233,570,cs),
(233,578,o),
(223,585,o),
(216,585,c),
(208,573,o),
(185,570,o),
(180,545,c),
(154,521,o),
(149,471,o),
(135,451,c),
(135,443,o),
(122,419,o),
(122,401,c),
(106,386,o),
(102,345,o),
(63,285,c),
(53,273,o),
(49,244,o),
(49,225,cs),
(49,216,o),
(55,214,o),
(63,214,cs),
(74,214,o),
(75,238,o),
(81,238,cs),
(84,238,o),
(86,237,o),
(86,205,c),
(77,192,o),
(77,171,o),
(77,131,cs),
(77,128,o),
(73,117,o),
(73,109,c),
(82,61,o),
(77,36,o),
(106,-5,c),
(129,-41,o),
(162,-39,o),
(186,-45,c),
(236,-45,o),
(243,-27,o),
(291,-15,c),
(318,8,o),
(337,24,o),
(369,45,c),
(381,66,o),
(405,80,o),
(419,102,c),
(421,102,l),
(421,102,l),
(421,35,o),
(415,12,o),
(415,2,cs),
(415,-17,o),
(419,-24,o),
(443,-24,c),
(441,-30,o),
(441,-36,o),
(441,-42,cs),
(441,-52,o),
(463,-56,o),
(470,-56,cs),
(476,-56,o),
(484,-56,o),
(493,-53,c),
(498,-54,o),
(505,-54,o),
(513,-54,cs),
(519,-54,o),
(542,-49,o),
(572,-48,c),
(579,-48,o),
(609,-39,o),
(639,-24,c),
(648,-24,o),
(663,-16,o),
(672,-10,c),
(682,-10,o),
(713,6,o),
(725,20,c),
(747,30,o),
(760,48,o),
(760,66,cs),
(760,74,o),
(758,81,o),
(747,83,c),
(738,77,o),
(729,80,o),
(717,66,c),
(693,62,o),
(680,53,o),
(663,48,c),
(647,45,o),
(610,39,o),
(600,33,c),
(591,33,o),
(572,30,o),
(563,28,c),
(553,29,o),
(544,30,o),
(536,30,cs),
(524,30,o),
(510,27,o),
(507,26,c),
(498,28,o),
(490,29,o),
(481,29,c),
(481,51,o),
(481,76,o),
(491,101,c),
(491,105,o),
(489,111,o),
(489,118,c),
(495,128,o),
(495,161,o),
(504,188,c),
(507,237,o),
(563,229,o),
(606,247,c),
(612,247,o),
(619,246,o),
(624,246,cs),
(627,246,o),
(632,249,o),
(637,249,cs),
(666,249,o),
(674,249,o),
(693,253,c),
(712,248,o),
(729,248,o),
(742,246,c),
(751,252,o),
(758,266,o),
(758,304,c),
(752,310,o),
(751,321,o),
(744,326,c),
(728,326,o),
(725,331,o),
(711,331,cs),
(699,331,o),
(671,327,o),
(666,327,cs),
(659,327,o),
(652,328,o),
(645,328,cs),
(619,328,o),
(607,314,o),
(579,310,c),
(551,297,o),
(551,278,o),
(525,278,c),
(525,314,o),
(534,316,o),
(536,341,c),
(545,357,o),
(548,397,o),
(567,444,c),
(567,448,o),
(565,455,o),
(564,459,c),
(578,471,o),
(579,516,o),
(610,516,cs),
(636,516,o),
(636,523,o),
(643,523,cs),
(674,523,o),
(678,526,o),
(684,526,cs),
(717,526,o),
(725,526,o),
(750,517,c),
(753,513,o),
(761,510,o),
(771,510,cs),
(788,510,o),
(793,512,o),
(793,533,cs),
(793,547,o),
(800,549,o),
(800,579,cs)
);
}
);
};
layerId = "A6287FAC-E222-4467-960C-0733A8D67DE9";
name = "20 oct. 23 à 14:52";
shapes = (
{
closed = 0;
nodes = (
(739,302,l),
(663,311,o),
(569,289,o),
(471,234,c)
);
},
{
closed = 0;
nodes = (
(743,72,l),
(682,37,o),
(596,6,o),
(504,6,cs),
(486,6,o),
(468,7,o),
(451,10,c),
(460,228,o),
(499,455,o),
(547,512,cs),
(578,549,o),
(651,577,o),
(715,577,cs),
(737,577,o),
(758,575,o),
(777,570,c)
);
},
{
ref = O;
}
);
width = 792;
}
);
metricLeft = O;
unicode = 338;
},
{
glyphname = P;
kernLeft = H;
kernRight = P;
layers = (
{
associatedMasterId = "7B26D558-51A9-4DA4-9A20-DDCE4917C78D";
background = {
shapes = (
{
closed = 1;
nodes = (
(135,-17,o),
(116,-15,o),
(116,10,cs),
(116,32,o),
(116,43,o),
(119,52,c),
(119,59,o),
(118,66,o),
(118,70,cs),
(118,90,o),
(122,100,o),
(127,100,cs),
(160,100,o),
(204,125,o),
(256,142,c),
(361,194,o),
(362,212,o),
(386,232,c),
(411,273,o),
(417,316,o),
(417,347,cs),
(417,359,o),
(412,373,o),
(411,393,c),
(406,396,o),
(405,407,o),
(404,428,c),
(393,437,o),
(389,465,o),
(376,478,c),
(370,499,o),
(327,546,o),
(311,553,c),
(296,581,o),
(280,572,o),
(264,596,c),
(229,611,o),
(191,645,o),
(154,645,c),
(151,651,o),
(146,653,o),
(142,653,cs),
(130,653,o),
(127,642,o),
(108,631,cs),
(88,620,o),
(68,589,o),
(68,577,cs),
(68,563,o),
(106,532,o),
(115,502,c),
(88,392,o),
(95,355,o),
(86,329,cs),
(78,307,o),
(73,271,o),
(73,234,c),
(65,228,o),
(65,140,o),
(60,131,c),
(43,103,o),
(23,122,o),
(23,87,c),
(49,68,o),
(55,77,o),
(55,53,cs),
(55,44,o),
(48,25,o),
(48,-54,c),
(63,-86,o),
(65,-90,o),
(75,-90,cs),
(101,-90,o),
(135,-31,o),
(135,-26,cs)
);
},
{
closed = 1;
nodes = (
(333,269,o),
(315,255,o),
(310,244,c),
(298,238,o),
(274,214,o),
(257,208,c),
(246,194,o),
(228,193,o),
(219,183,c),
(177,167,o),
(154,152,o),
(145,152,cs),
(136,152,o),
(135,157,o),
(135,169,cs),
(135,180,o),
(146,242,o),
(151,250,c),
(151,281,o),
(165,292,o),
(165,299,cs),
(165,303,o),
(163,311,o),
(163,316,c),
(163,316,o),
(177,353,o),
(182,381,c),
(193,399,o),
(194,413,o),
(194,422,c),
(201,438,o),
(205,451,o),
(205,457,cs),
(205,501,o),
(153,535,o),
(153,546,cs),
(153,549,o),
(154,551,o),
(156,552,c),
(179,546,o),
(167,545,o),
(190,537,cs),
(205,533,o),
(215,512,o),
(264,476,c),
(278,453,o),
(303,433,o),
(310,401,c),
(323,392,o),
(333,365,o),
(333,311,cs)
);
}
);
};
layerId = "B6C2F145-55F4-428D-BA99-9C3F7100D8D7";
name = "7 janv. 25 à 22:33";
shapes = (
{
closed = 0;
nodes = (
(45,73,l),
(304,140,o),
(387,222,o),
(387,329,cs),
(387,445,o),
(289,536,o),
(134,598,c)
);
},
{
closed = 0;
nodes = (
(168,496,l),
(126,329,o),
(84,91,o),
(84,-24,cs),
(84,-44,o),
(94,-58,o),
(110,-66,c)
);
}
);
width = 407;
},
{
layerId = "7B26D558-51A9-4DA4-9A20-DDCE4917C78D";
name = Regular;
shapes = (
{
closed = 0;
nodes = (
(42,99,l),
(290,155,o),
(373,245,o),
(373,341,cs),
(373,489,o),
(178,609,o),
(125,609,cs),
(107,609,o),
(97,595,o),
(97,578,cs),
(97,559,o),
(110,535,o),
(134,509,c)
);
},
{
closed = 0;
nodes = (
(152,475,l),
(109,306,o),
(78,124,o),
(78,-4,cs),
(78,-25,o),
(85,-40,o),
(101,-53,c)
);
}
);
width = 388;
}
);
metricLeft = "=H-23";
unicode = 80;
},
{
glyphname = Thorn;
kernLeft = H;
kernRight = P;
layers = (
{
layerId = "7B26D558-51A9-4DA4-9A20-DDCE4917C78D";
shapes = (
{
closed = 0;
nodes = (
(192,581,l),
(168,452,o),
(148,176,o),
(148,76,cs),
(148,25,o),
(153,5,o),
(164,5,cs),
(172,5,o),
(186,14,o),
(204,38,cs)
);
},
{
closed = 0;
nodes = (
(80,148,l),
(247,209,o),
(421,323,o),
(424,401,cs),
(426,456,o),
(343,485,o),
(243,485,cs),
(184,485,o),
(126,475,o),
(65,454,c)
);
}
);
width = 434;
}
);
metricLeft = H;
unicode = 222;
},
{
glyphname = Q;
kernLeft = O;
kernRight = Q;
layers = (
{
associatedMasterId = "7B26D558-51A9-4DA4-9A20-DDCE4917C78D";
background = {
shapes = (
{
closed = 1;
nodes = (
(317,59,o),
(382,104,o),
(389,130,c),
(413,158,o),
(417,166,o),
(432,200,c),
(440,208,o),
(464,257,o),
(465,278,c),
(470,285,o),
(488,352,o),
(488,369,cs),
(488,373,o),
(488,377,o),
(487,380,c),
(489,392,o),
(494,415,o),
(494,446,cs),
(494,528,o),
(465,542,o),
(463,557,c),
(456,561,o),
(451,577,o),
(432,588,c),
(421,605,o),
(372,619,o),
(332,619,cs),
(300,619,o),
(297,610,o),
(272,606,cs),
(253,602,o),
(212,568,o),
(199,560,c),
(112,480,o),
(123,463,o),
(100,427,c),
(90,379,o),
(77,370,o),
(77,305,cs),
(77,257,o),
(110,131,o),
(128,131,c),
(151,81,o),
(184,46,o),
(184,40,cs),
(184,36,o),
(181,34,o),
(172,34,cs),
(148,34,o),
(119,60,o),
(106,77,c),
(98,98,o),
(90,112,o),
(82,133,c),
(81,154,o),
(70,159,o),
(70,190,cs),
(70,205,o),
(70,216,o),
(66,221,c),
(66,231,o),
(67,238,o),
(70,244,c),
(68,249,o),
(65,252,o),
(61,252,cs),
(36,252,o),
(29,235,o),
(15,116,c),
(29,73,o),
(20,50,o),
(49,10,c),
(76,-8,o),
(90,-38,o),
(144,-38,cs),
(210,-38,o),
(218,-13,o),
(233,-13,cs),
(245,-13,o),
(251,-19,o),
(305,-76,c),
(353,-116,o),
(386,-120,o),
(406,-137,c),
(425,-144,o),
(453,-162,o),
(469,-162,cs),
(479,-162,o),
(486,-161,o),
(493,-159,c),
(498,-155,o),
(515,-148,o),
(515,-136,cs),
(515,-124,o),
(485,-112,o),
(463,-90,c),
(427,-73,o),
(426,-54,o),
(368,-21,c),
(340,16,o),
(317,20,o),
(317,41,cs)
);
},
{
closed = 1;
nodes = (
(353,527,o),
(353,511,o),
(371,506,c),
(416,461,o),
(416,414,o),
(423,389,c),
(423,385,o),
(421,371,o),
(421,365,cs),
(421,358,o),
(423,353,o),
(423,346,cs),
(423,318,o),
(398,256,o),
(391,230,c),
(384,219,o),
(371,190,o),
(362,167,c),
(346,149,o),
(299,75,o),
(279,75,cs),
(257,75,o),
(209,176,o),
(191,190,c),
(190,218,o),
(155,252,o),
(155,369,c),
(161,383,o),
(165,420,o),
(180,441,c),
(191,487,o),
(240,527,o),
(299,527,cs)
);
}
);
};
layerId = "16D2FA60-3423-422B-AD0B-C16F6EE32EEC";
name = "8 janv. 25 à 12:08";
shapes = (
{
closed = 0;
nodes = (
(52,228,l),
(47,205,o),
(45,186,o),
(45,169,cs),
(45,79,o),
(93,0,o),
(175,0,cs),
(319,0,o),
(458,225,o),
(458,390,cs),
(458,492,o),
(405,579,o),
(315,578,cs),
(214,577,o),
(120,468,o),
(120,320,cs),
(120,131,o),
(268,-18,o),
(446,-121,c)
);
}
);
width = 478;
},
{
layerId = "7B26D558-51A9-4DA4-9A20-DDCE4917C78D";
name = Regular;
shapes = (
{
closed = 0;
nodes = (
(47,228,l),
(42,207,o),
(40,187,o),
(40,169,cs),
(40,79,o),
(94,0,o),
(176,0,cs),
(315,0,o),
(453,228,o),
(453,390,cs),
(453,492,o),
(398,576,o),
(308,575,cs),
(207,574,o),
(115,468,o),
(115,320,cs),
(115,131,o),
(263,-28,o),
(478,-139,c)
);
}
);
width = 488;
}
);
metricLeft = "=O-15";
unicode = 81;
},
{
glyphname = R;
kernLeft = H;
kernRight = R;
layers = (
{
associatedMasterId = "7B26D558-51A9-4DA4-9A20-DDCE4917C78D";
background = {
shapes = (
{
closed = 1;
nodes = (
(82,424,ls),
(82,400,o),
(87,393,o),
(87,372,cs),
(87,360,o),
(83,261,o),
(80,257,cs),
(77,251,o),
(65,242,o),
(43,230,c),
(40,226,o),
(39,222,o),
(39,208,cs),
(39,173,o),
(70,182,o),
(70,157,cs),
(70,83,o),
(57,81,o),
(57,-13,c),
(63,-19,o),
(71,-40,o),
(93,-40,cs),
(106,-40,o),
(103,-9,o),
(112,13,c),
(112,40,o),
(129,98,o),
(129,110,cs),
(129,118,o),
(131,124,o),
(134,124,cs),
(138,124,o),
(171,105,o),
(183,91,c),
(213,78,o),
(221,61,o),
(231,56,c),
(254,46,o),
(260,37,o),
(277,29,c),
(322,-12,o),
(356,-20,o),
(420,-54,c),
(444,-60,o),
(444,-78,o),
(468,-78,cs),
(478,-78,o),
(479,-73,o),
(479,-43,cs),
(479,-9,o),
(463,-10,o),
(445,8,c),
(422,13,o),
(422,35,o),
(399,35,c),
(380,59,o),
(360,62,o),
(341,81,cs),
(321,99,o),
(305,116,o),
(280,125,c),
(250,164,o),
(179,198,o),
(179,231,cs),
(179,247,o),
(224,260,o),
(240,269,cs),
(275,288,o),
(297,290,o),
(333,319,c),
(356,327,o),
(429,369,o),
(433,388,c),
(444,396,o),
(459,407,o),
(459,449,cs),
(459,512,o),
(424,524,o),
(413,543,c),
(386,554,o),
(383,567,o),
(361,573,c),
(349,584,o),
(335,582,o),
(321,593,c),
(311,593,o),
(296,611,o),
(260,611,cs),
(254,611,o),
(230,622,o),
(215,622,cs),
(181,622,ls),
(158,622,o),
(140,621,o),
(119,602,c),
(96,593,o),
(79,562,o),
(79,538,cs),
(79,526,o),
(80,521,o),
(82,513,c)
);
},
{
closed = 1;
nodes = (
(188,458,o),
(178,477,o),
(166,477,cs),
(158,477,o),
(138,468,o),
(133,458,c),
(119,458,o),
(120,483,o),
(120,492,cs),
(120,527,o),
(138,526,o),
(171,530,c),
(202,525,o),
(241,524,o),
(261,514,c),
(277,514,o),
(299,502,o),
(310,497,c),
(324,495,o),
(373,458,o),
(373,435,cs),
(373,397,o),
(288,355,o),
(274,337,c),
(259,337,o),
(174,284,o),
(164,284,cs),
(160,284,o),
(157,287,o),
(157,291,cs),
(157,297,o),
(170,356,o),
(174,367,c),
(174,376,o),
(176,386,o),
(179,393,c),
(179,420,o),
(188,429,o),
(188,448,cs)
);
}
);
};
layerId = "6E55838A-2211-4CDF-B41F-9171AA153757";
name = "6 janv. 25 à 11:55";
shapes = (
{
closed = 0;
nodes = (
(172,449,l),
(147,303,o),
(119,151,o),
(86,0,c)
);
},
{
closed = 0;
nodes = (
(86,0,l),
(121,214,o),
(137,411,o),
(126,571,c),
(152,574,o),
(171,575,o),
(199,575,cs),
(314,575,o),
(436,520,o),
(436,454,cs),
(436,358,o),
(227,268,o),
(80,219,c),
(203,121,o),
(317,43,o),
(455,-40,c)
);
}
);
width = 450;
},
{
anchors = (
{
name = bottom;
pos = (222,30);
},
{
name = top;
pos = (282,560);
}
);
layerId = "7B26D558-51A9-4DA4-9A20-DDCE4917C78D";
name = Regular;
shapes = (
{
closed = 0;
nodes = (
(179,449,l),
(160,298,o),
(135,147,o),
(102,-4,c)
);
},
{
closed = 0;
nodes = (
(102,-4,l),
(124,215,o),
(134,403,o),
(130,566,c),
(162,570,o),
(190,572,o),
(211,572,cs),
(322,572,o),
(434,519,o),
(434,451,cs),
(434,358,o),
(228,263,o),
(80,216,c),
(194,129,o),
(304,56,o),
(473,-41,c)
);
}
);
width = 453;
}
);
metricLeft = "=H+15";
unicode = 82;
},
{
glyphname = S;
kernLeft = S;
kernRight = S;
layers = (
{
anchors = (
{
name = bottom;
pos = (117,-17);
},
{
name = top;
pos = (268,580);
}
);
layerId = "7B26D558-51A9-4DA4-9A20-DDCE4917C78D";
shapes = (
{
closed = 0;
nodes = (
(195,492,l),
(241,521,o),
(307,574,o),
(307,599,cs),
(307,605,o),
(303,608,o),
(295,608,cs),
(289,608,o),
(283,607,o),
(274,604,cs),
(175,572,o),
(73,481,o),
(73,402,cs),
(73,349,o),
(109,310,o),
(151,270,cs),
(203,221,o),
(254,183,o),
(254,140,cs),
(254,70,o),
(115,-18,o),
(83,-30,cs),
(76,-33,o),
(63,-37,o),
(52,-37,cs),
(42,-37,o),
(35,-33,o),
(35,-24,cs),
(35,3,o),
(137,48,o),
(309,111,c)
);
}
);
width = 309;
},
{
anchors = (
{
name = bottom;
pos = (127,-17);
},
{
name = top;
pos = (278,580);
}
);
associatedMasterId = "7B26D558-51A9-4DA4-9A20-DDCE4917C78D";
background = {
shapes = (
{
closed = 1;
nodes = (
(199,71,l),
(195,64,o),
(166,32,o),
(154,32,cs),
(150,32,o),
(148,33,o),
(148,36,cs),
(148,42,o),
(182,51,o),
(182,66,cs),
(182,72,o),
(174,79,o),
(171,79,cs),
(160,79,o),
(99,44,o),
(66,31,c),
(36,9,o),
(13,2,o),
(13,-19,cs),
(13,-42,o),
(29,-48,o),
(64,-60,c),
(108,-60,o),
(117,-41,o),
(146,-31,c),
(180,-5,o),
(220,2,o),
(271,69,cs),
(285,87,o),
(319,93,o),
(319,106,cs),
(319,129,o),
(318,130,o),
(303,133,c),
(301,179,o),
(295,203,o),
(250,251,c),
(236,272,o),
(209,292,o),
(201,306,cs),
(185,336,o),
(151,362,o),
(147,379,cs),
(144,398,o),
(134,410,o),
(134,423,cs),
(134,484,o),
(214,540,o),
(224,540,c),
(225,540,o),
(226,539,o),
(226,537,c),
(226,522,o),
(188,511,o),
(188,487,cs),
(188,477,o),
(197,475,o),
(208,475,c),
(232,489,o),
(260,499,o),
(299,530,cs),
(323,549,o),
(330,558,o),
(336,560,cs),
(346,563,o),
(349,595,o),
(349,602,cs),
(349,634,o),
(343,638,o),
(322,646,c),
(300,646,o),
(243,617,o),
(230,614,cs),
(213,611,o),
(190,587,o),
(174,581,c),
(133,544,o),
(113,540,o),
(81,503,c),
(71,475,o),
(40,452,o),
(40,409,cs),
(40,363,o),
(42,336,o),
(76,306,c),
(78,287,o),
(122,255,o),
(136,239,c),
(144,234,o),
(155,210,o),
(178,197,c),
(194,170,o),
(225,152,o),
(225,116,cs),
(225,98,o),
(199,96,o),
(199,83,cs)
);
},
{
closed = 0;
nodes = (
(205,491,l),
(249,521,o),
(283,549,o),
(310,581,cs),
(317,589,o),
(319,597,o),
(319,603,cs),
(319,608,o),
(315,612,o),
(306,612,cs),
(301,612,o),
(295,611,o),
(286,608,cs),
(187,576,o),
(83,494,o),
(83,418,cs),
(83,352,o),
(120,314,o),
(161,273,cs),
(210,224,o),
(264,186,o),
(264,141,cs),
(264,73,o),
(121,-14,o),
(89,-26,cs),
(82,-29,o),
(69,-33,o),
(58,-33,cs),
(48,-33,o),
(41,-27,o),
(41,-17,cs),
(41,14,o),
(132,60,o),
(308,111,c)
);
}
);
};
layerId = "ECC17645-E875-40F6-943B-6BE9C66AB10F";
name = "12 févr. 25 à 07:37";
shapes = (
{
closed = 0;
nodes = (
(205,492,l),
(251,521,o),
(317,574,o),
(317,599,cs),
(317,605,o),
(313,608,o),
(305,608,cs),
(299,608,o),
(293,607,o),
(284,604,cs),
(185,572,o),
(83,491,o),
(83,402,cs),
(83,349,o),
(119,310,o),
(161,270,cs),
(213,221,o),
(264,183,o),
(264,140,cs),
(264,70,o),
(125,-18,o),
(93,-30,cs),
(86,-33,o),
(73,-37,o),
(62,-37,cs),
(52,-37,o),
(45,-33,o),
(45,-24,cs),
(45,7,o),
(136,55,o),
(304,108,c)
);
}
);
width = 337;
}
);
unicode = 83;
},
{
glyphname = Germandbls;
kernLeft = H;
kernRight = B;
layers = (
{
layerId = "7B26D558-51A9-4DA4-9A20-DDCE4917C78D";
shapes = (
{
attr = {
lineCapEnd = 1;
lineCapStart = 1;
};
closed = 0;
nodes = (
(144,554,l),
(146,403,o),
(121,145,o),
(80,-60,c)
);
},
{
attr = {
lineCapEnd = 1;
lineCapStart = 1;
};
closed = 0;
nodes = (
(80,-60,l),
(103,242,o),
(131,580,o),
(373,580,cs),
(445,580,o),
(473,547,o),
(473,516,cs),
(473,456,o),
(367,377,o),
(260,314,c)
);
},
{
attr = {
lineCapEnd = 1;
lineCapStart = 1;
};
closed = 0;
nodes = (
(260,314,l),
(405,277,o),
(448,207,o),
(448,148,cs),
(448,89,o),
(406,15,o),
(291,15,cs),
(258,15,o),
(220,22,o),
(175,43,c)
);
}
);
width = 513;
}
);
unicode = 7838;
},
{
glyphname = T;
kernLeft = T;
kernRight = T;
layers = (
{
associatedMasterId = "7B26D558-51A9-4DA4-9A20-DDCE4917C78D";
background = {
shapes = (
{
closed = 1;
nodes = (
(26,519,o),
(34,515,o),
(40,515,cs),
(44,515,o),
(72,524,o),
(100,534,c),
(113,534,o),
(125,540,o),
(132,540,cs),
(156,540,o),
(157,548,o),
(164,548,cs),
(171,548,o),
(181,543,o),
(185,540,c),
(185,491,o),
(175,470,o),
(175,432,cs),
(175,427,o),
(175,423,o),
(176,418,c),
(163,405,o),
(166,345,o),
(162,318,cs),
(149,224,o),
(148,188,o),
(148,155,cs),
(148,144,o),
(148,137,o),
(151,128,c),
(148,119,o),
(146,106,o),
(146,101,cs),
(146,93,o),
(147,87,o),
(152,74,c),
(150,65,o),
(149,56,o),
(149,43,c),
(154,-19,o),
(158,-30,o),
(171,-30,cs),
(176,-30,o),
(179,-30,o),
(181,-23,c),
(193,-14,o),
(205,-16,o),
(205,-7,cs),
(205,67,o),
(209,88,o),
(209,127,c),
(216,134,o),
(229,240,o),
(229,246,cs),
(229,264,o),
(237,268,o),
(242,301,c),
(255,349,o),
(258,420,o),
(267,425,c),
(267,459,o),
(274,471,o),
(274,488,cs),
(274,520,o),
(249,540,o),
(240,548,c),
(240,558,o),
(269,559,o),
(290,559,c),
(304,552,o),
(340,552,o),
(355,549,c),
(362,549,o),
(363,553,o),
(363,564,cs),
(363,573,o),
(360,577,o),
(360,581,cs),
(360,584,o),
(362,589,o),
(362,596,cs),
(362,626,o),
(358,633,o),
(346,633,cs),
(342,633,o),
(338,632,o),
(336,632,c),
(328,634,o),
(312,640,o),
(302,640,cs),
(296,640,o),
(288,640,o),
(280,638,c),
(271,643,o),
(238,643,o),
(227,643,c),
(213,642,o),
(171,642,o),
(156,635,c),
(152,635,o),
(145,638,o),
(140,638,cs),
(128,638,o),
(113,632,o),
(93,632,cs),
(83,632,o),
(54,619,o),
(49,608,c),
(44,594,o),
(35,578,o),
(35,553,cs),
(35,547,o),
(26,535,o),
(26,525,cs)
);
}
);
};
layerId = "29168F57-76AD-4B5F-9EE9-BC919AAAFF91";
name = "3 janv. 25 à 21:36";
shapes = (
{
closed = 0;
nodes = (
(165,-41,l),
(168,158,o),
(190,347,o),
(223,538,c)
);
},
{
closed = 0;
nodes = (
(39,521,l),
(125,545,o),
(192,555,o),
(261,555,cs),
(292,555,o),
(323,553,o),
(356,549,c)
);
}
);
width = 331;
},
{
anchors = (
{
name = bottom;
pos = (168,-12);
},
{
name = center;
pos = (163,290);
},
{
name = top;
pos = (223,580);
}
);
layerId = "7B26D558-51A9-4DA4-9A20-DDCE4917C78D";
name = Regular;
shapes = (
{
closed = 0;
nodes = (
(168,-12,l),
(168,187,o),
(184,377,o),
(217,568,c)
);
},
{
closed = 0;
nodes = (
(35,551,l),
(114,576,o),
(188,585,o),
(255,585,cs),
(287,585,o),
(318,583,o),
(350,579,c)
);
}
);
width = 325;
}
);
unicode = 84;
},
{
glyphname = U;
kernLeft = U;
kernRight = U;
layers = (
{
anchors = (
{
name = bottom;
pos = (166,1);
},
{
name = ogonek;
pos = (354,-16);
},
{
name = top;
pos = (269,550);
},
{
name = topright;
pos = (447,745);
}
);
layerId = "7B26D558-51A9-4DA4-9A20-DDCE4917C78D";
shapes = (
{
closed = 0;
nodes = (
(94,546,l),
(80,457,o),
(71,362,o),
(70,282,cs),
(68,134,o),
(93,12,o),
(166,12,cs),
(281,12,o),
(376,311,o),
(440,583,c)
);
},
{
closed = 0;
nodes = (
(440,583,l),
(371,346,o),
(332,116,o),
(332,36,cs),
(332,5,o),
(338,-6,o),
(354,-16,cs)
);
}
);
width = 450;
}
);
unicode = 85;
},
{
glyphname = V;
kernLeft = V;
kernRight = V;
layers = (
{
layerId = "7B26D558-51A9-4DA4-9A20-DDCE4917C78D";
shapes = (
{
attr = {
lineCapEnd = 1;
lineCapStart = 1;
};
closed = 0;
nodes = (
(89,617,l),
(87,597,o),
(85,575,o),
(85,537,cs),
(85,421,o),
(105,271,o),
(131,162,cs),
(151,80,o),
(175,22,o),
(196,22,cs),
(201,22,o),
(205,23,o),
(209,26,c)
);
},
{
attr = {
lineCapEnd = 1;
lineCapStart = 1;
};
closed = 0;
nodes = (
(151,-12,l),
(282,138,o),
(379,372,o),
(392,520,c)
);
}
);
width = 397;
}
);
unicode = 86;
},
{
glyphname = W;
kernLeft = V;
kernRight = V;
layers = (
{
anchors = (
{
name = bottom;
pos = (304,0);
},
{
name = top;
pos = (404,560);
}
);
layerId = "7B26D558-51A9-4DA4-9A20-DDCE4917C78D";
shapes = (
{
closed = 0;
nodes = (
(583,562,l),
(559,331,o),
(430,31,o),
(392,31,cs),
(375,31,o),
(361,90,o),
(361,177,cs),
(361,287,o),
(375,428,o),
(385,507,c)
);
},
{
closed = 0;
nodes = (
(380,505,l),
(327,311,o),
(207,-2,o),
(180,-2,cs),
(152,-2,o),
(117,269,o),
(119,490,cs),
(119,535,o),
(122,575,o),
(125,613,c)
);
},
{
closed = 0;
nodes = (
(385,507,l),
(380,505,l)
);
},
{
closed = 0;
nodes = (
(120,615,l),
(106,538,o),
(100,440,o),
(100,352,c)
);
},
{
closed = 0;
nodes = (
(125,613,l),
(120,615,l)
);
}
);
width = 603;
}
);
metricLeft = "=V+15";
metricRight = "=V+15";
unicode = 87;
},
{
glyphname = X;
kernLeft = X;
kernRight = X;
layers = (
{
layerId = "7B26D558-51A9-4DA4-9A20-DDCE4917C78D";
name = Regular;
shapes = (
{
attr = {
lineCapEnd = 1;
lineCapStart = 1;
};
closed = 0;
nodes = (
(304,531,l),
(337,561,o),
(383,597,o),
(401,597,cs),
(407,597,o),
(410,592,o),
(410,580,cs),
(410,570,o),
(409,558,o),
(393,534,cs),
(370,500,o),
(277,376,o),
(205,267,cs),
(136,162,o),
(81,70,o),
(20,-45,cs)
);
},
{
attr = {
lineCapEnd = 1;
lineCapStart = 1;
};
closed = 0;
nodes = (
(332,14,l),
(209,163,o),
(105,413,o),
(105,532,cs),
(105,563,o),
(112,578,o),
(128,595,cs)
);
}
);
width = 395;
}
);
unicode = 88;
},
{
glyphname = Y;
kernLeft = Y;
kernRight = Y;
layers = (
{
anchors = (
{
name = bottom;
pos = (164,-19);
},
{
name = top;
pos = (247,570);
},
{
name = topleft;
pos = (17,741);
}
);
layerId = "7B26D558-51A9-4DA4-9A20-DDCE4917C78D";
name = Regular;
shapes = (
{
closed = 0;
nodes = (
(80,570,l),
(80,423,o),
(129,247,o),
(192,176,c)
);
},
{
closed = 0;
nodes = (
(171,-19,l),
(152,-16,o),
(142,-6,o),
(142,19,cs),
(142,85,o),
(209,204,o),
(245,273,cs),
(299,379,o),
(356,474,o),
(398,595,c)
);
}
);
width = 368;
},
{
anchors = (
{
name = bottom;
pos = (169,-3);
},
{
name = top;
pos = (207,622);
},
{
name = topleft;
pos = (7,741);
}
);
associatedMasterId = "7B26D558-51A9-4DA4-9A20-DDCE4917C78D";
background = {
shapes = (
{
closed = 1;
nodes = (
(136,591,o),
(111,610,o),
(103,610,cs),
(84,610,o),
(72,597,o),
(64,597,cs),
(56,597,ls),
(45,597,o),
(31,571,o),
(31,566,cs),
(31,530,o),
(32,501,o),
(40,495,c),
(45,397,o),
(58,391,o),
(58,368,c),
(63,363,o),
(77,308,o),
(81,288,c),
(101,257,o),
(116,188,o),
(146,178,c),
(146,152,o),
(136,135,o),
(127,125,c),
(125,111,o),
(113,92,o),
(112,64,c),
(101,54,o),
(86,-5,o),
(86,-21,cs),
(86,-39,o),
(113,-37,o),
(127,-42,c),
(136,-42,o),
(158,-37,o),
(160,-28,c),
(177,-28,o),
(194,-6,o),
(194,-1,cs),
(194,9,o),
(185,11,o),
(185,22,cs),
(185,69,o),
(203,89,o),
(207,125,c),
(216,134,o),
(259,233,o),
(260,248,c),
(275,261,o),
(281,288,o),
(304,313,c),
(321,359,o),
(338,358,o),
(350,400,c),
(357,404,o),
(361,410,o),
(362,431,c),
(376,443,o),
(398,521,o),
(402,539,c),
(408,549,o),
(410,567,o),
(410,616,c),
(405,620,o),
(401,631,o),
(390,631,cs),
(374,631,o),
(369,607,o),
(340,566,c),
(320,527,o),
(310,525,o),
(303,500,cs),
(298,484,o),
(270,454,o),
(256,395,c),
(235,371,o),
(198,257,o),
(182,257,cs),
(175,257,o),
(175,276,o),
(164,287,c),
(163,315,o),
(153,329,o),
(151,360,c),
(145,381,o),
(145,399,o),
(138,423,c),
(138,468,o),
(133,476,o),
(133,482,cs),
(133,517,o),
(136,548,o),
(136,573,cs)
);
},
{
closed = 0;
nodes = (
(70,579,l),
(70,423,o),
(119,247,o),
(185,173,c)
);
},
{
closed = 0;
nodes = (
(154,-19,l),
(143,-12,o),
(139,-1,o),
(139,23,cs),
(138,85,o),
(199,204,o),
(235,273,cs),
(289,379,o),
(350,474,o),
(384,595,c)
);
}
);
};
layerId = "9C20C143-D712-4644-A6DD-1B3F3EAFED08";
name = "12 oct. 23 à 19:24";
shapes = (
{
closed = 0;
nodes = (
(70,579,l),
(70,423,o),
(120,247,o),
(186,173,c)
);
},
{
closed = 0;
nodes = (
(169,-5,l),
(156,-13,o),
(139,-22,o),
(124,-22,c),
(149,97,o),
(191,188,o),
(235,273,cs),
(289,379,o),
(346,474,o),
(393,595,c)
);
}
);
width = 362;
}
);
unicode = 89;
},
{
glyphname = Z;
kernLeft = Z;
kernRight = Z;
layers = (
{
anchors = (
{
name = bottom;
pos = (210,-3);
},
{
name = center;
pos = (210,410);
},
{
name = top;
pos = (210,580);
}
);
layerId = "7B26D558-51A9-4DA4-9A20-DDCE4917C78D";
shapes = (
{
attr = {
lineCapEnd = 1;
lineCapStart = 1;
};
closed = 0;
nodes = (
(74,578,l),
(94,582,o),
(119,586,o),
(155,586,cs),
(236,586,o),
(341,566,o),
(341,512,cs),
(341,466,o),
(264,366,o),
(187,268,cs),
(110,170,o),
(30,75,o),
(18,56,cs),
(9,42,o),
(5,31,o),
(5,23,cs),
(5,9,o),
(17,2,o),
(46,2,cs),
(99,2,o),
(234,26,o),
(368,111,cs)
);
}
);
width = 368;
},
{
anchors = (
{
name = bottom;
pos = (210,-3);
},
{
name = center;
pos = (210,410);
},
{
name = top;
pos = (210,580);
}
);
associatedMasterId = "7B26D558-51A9-4DA4-9A20-DDCE4917C78D";
background = {
shapes = (
{
closed = 1;
nodes = (
(295,458,o),
(209,359,o),
(207,344,c),
(183,309,o),
(157,292,o),
(127,240,c),
(110,231,o),
(68,160,o),
(29,125,c),
(-12,81,o),
(-13,58,o),
(-22,54,c),
(-25,45,o),
(-30,29,o),
(-30,10,cs),
(-30,-16,o),
(-1,-36,o),
(30,-36,cs),
(64,-36,o),
(104,-18,o),
(128,-18,cs),
(143,-18,o),
(193,5,o),
(208,5,c),
(218,6,o),
(245,20,o),
(255,30,c),
(278,32,o),
(294,40,o),
(305,51,c),
(363,69,o),
(372,84,o),
(372,100,cs),
(372,124,o),
(369,129,o),
(362,129,cs),
(347,129,o),
(326,109,o),
(298,104,c),
(238,71,o),
(191,84,o),
(155,63,c),
(146,68,o),
(139,68,o),
(136,68,cs),
(131,68,o),
(125,67,o),
(120,65,c),
(118,67,o),
(112,68,o),
(109,68,cs),
(103,68,o),
(96,67,o),
(83,65,c),
(83,95,o),
(135,140,o),
(137,155,c),
(150,162,o),
(189,207,o),
(189,224,c),
(205,232,o),
(236,273,o),
(245,285,cs),
(271,323,o),
(299,339,o),
(311,374,c),
(333,383,o),
(352,428,o),
(371,445,c),
(374,470,o),
(393,480,o),
(393,524,cs),
(393,559,o),
(372,582,o),
(346,603,c),
(315,611,o),
(300,626,o),
(292,626,cs),
(282,626,o),
(209,645,o),
(180,645,cs),
(173,645,o),
(166,644,o),
(157,642,c),
(149,646,o),
(139,648,o),
(130,648,cs),
(75,648,o),
(68,641,o),
(56,602,c),
(49,597,o),
(41,578,o),
(41,559,cs),
(41,546,o),
(45,542,o),
(61,542,cs),
(79,542,o),
(93,544,o),
(105,544,cs),
(118,544,o),
(129,542,o),
(137,542,cs),
(146,542,o),
(159,544,o),
(167,546,c),
(175,536,o),
(295,540,o),
(295,500,cs)
);
}
);
};
layerId = "5F5B1527-FFA6-4E01-81D0-DF80AD6DA8A6";
name = "12 févr. 25 à 07:25";
shapes = (
{
attr = {
lineCapEnd = 1;
lineCapStart = 1;
};
closed = 0;
nodes = (
(83,580,l),
(100,583,o),
(119,586,o),
(151,586,cs),
(236,586,o),
(341,566,o),
(341,512,cs),
(341,466,o),
(264,366,o),
(187,268,cs),
(110,170,o),
(30,75,o),
(18,56,cs),
(9,42,o),
(5,31,o),
(5,23,cs),
(5,9,o),
(17,2,o),
(46,2,cs),
(99,2,o),
(224,25,o),
(348,94,cs)
);
}
);
width = 378;
}
);
unicode = 90;
},
{
glyphname = Saltillo;
layers = (
{
layerId = "7B26D558-51A9-4DA4-9A20-DDCE4917C78D";
shapes = (
{
closed = 0;
nodes = (
(94,650,l),
(98,594,o),
(95,525,o),
(80,445,c)
);
}
);
width = 166;
}
);
unicode = 42891;
},
{
glyphname = C.alt;
kernLeft = C;
kernRight = C.alt;
layers = (
{
anchors = (
{
name = bottom;
pos = (250,63);
},
{
name = top;
pos = (333,545);
}
);
layerId = "7B26D558-51A9-4DA4-9A20-DDCE4917C78D";
shapes = (
{
attr = {
lineCapEnd = 1;
lineCapStart = 1;
};
closed = 0;
nodes = (
(449,111,l),
(380,33,o),
(308,-20,o),
(223,-20,cs),
(119,-20,o),
(53,59,o),
(50,185,cs),
(46,380,o),
(192,570,o),
(326,570,cs),
(384,570,o),
(403,534,o),
(403,481,cs),
(403,415,o),
(376,328,o),
(352,267,c)
);
},
{
attr = {
lineCapEnd = 1;
lineCapStart = 1;
};
closed = 0;
nodes = (
(352,267,l),
(359,325,o),
(371,383,o),
(387,436,c)
);
}
);
width = 449;
}
);
metricLeft = "=O-5";
},
{
glyphname = L.alt;
kernLeft = H;
kernRight = L.alt;
layers = (
{
anchors = (
{
name = bottom;
pos = (153,0);
},
{
name = center;
pos = (168,350);
},
{
name = top;
pos = (204,561);
},
{
name = topright;
pos = (286,580);
}
);
layerId = "7B26D558-51A9-4DA4-9A20-DDCE4917C78D";
shapes = (
{
closed = 0;
nodes = (
(98,349,l),
(122,438,o),
(147,522,o),
(175,592,c)
);
},
{
closed = 0;
nodes = (
(175,592,l),
(178,591,l)
);
},
{
closed = 0;
nodes = (
(178,591,l),
(129,407,o),
(70,120,o),
(70,49,cs),
(70,9,o),
(88,-3,o),
(119,-3,cs),
(178,-3,o),
(266,40,o),
(345,111,cs)
);
}
);
width = 345;
}
);
metricLeft = "=H+5";
},
{
glyphname = Lslash.alt;
kernLeft = H;
kernRight = L;
layers = (
{
layerId = "7B26D558-51A9-4DA4-9A20-DDCE4917C78D";
shapes = (
{
closed = 0;
nodes = (
(30,198,l),
(125,280,o),
(208,347,o),
(290,411,c)
);
},
{
pos = (20,0);
ref = L.alt;
}
);
width = 365;
}
);
metricRight = L.alt;
},
{
glyphname = AE.ss06;
kernLeft = A;
kernRight = E;
layers = (
{
anchors = (
{
name = bottom;
pos = (213,2);
},
{
name = ogonek;
pos = (335,-15);
},
{
name = top;
pos = (291,580);
},
{
name = topleft;
pos = (306,580);
}
);
layerId = "7B26D558-51A9-4DA4-9A20-DDCE4917C78D";
name = Regular;
shapes = (
{
closed = 0;
nodes = (
(15,-46,l),
(64,166,o),
(177,434,o),
(277,617,c)
);
},
{
closed = 0;
nodes = (
(201,575,l),
(246,562,o),
(312,529,o),
(331,498,cs),
(351,466,o),
(352,349,o),
(352,271,cs),
(351,183,o),
(347,90,o),
(335,-15,cs)
);
},
{
attr = {
identifier = ID0x1106a61b0;
lineCapEnd = 1;
lineCapStart = 1;
};
closed = 0;
nodes = (
(636,317,l),
(626,318,o),
(616,319,o),
(603,319,cs),
(534,319,o),
(452,293,o),
(368,249,c)
);
},
{
attr = {
identifier = ID0x1106a61b0;
lineCapEnd = 1;
lineCapStart = 1;
};
closed = 0;
nodes = (
(637,74,l),
(577,34,o),
(491,6,o),
(404,6,cs),
(386,6,o),
(368,7,o),
(351,10,c)
);
},
{
attr = {
identifier = ID0x1106a61b0;
lineCapEnd = 1;
lineCapStart = 1;
};
closed = 0;
nodes = (
(346,93,l),
(364,293,o),
(412,509,o),
(442,537,cs),
(479,571,o),
(544,588,o),
(597,588,cs),
(625,588,o),
(651,584,o),
(679,574,c)
);
},
{
closed = 0;
nodes = (
(350,254,l),
(228,234,o),
(118,210,o),
(24,178,c)
);
}
);
width = 674;
}
);
metricLeft = A;
},
{
glyphname = B_i;
kernLeft = H;
kernRight = i;
layers = (
{
anchors = (
{
name = bottom;
pos = (542,0);
},
{
name = ogonek;
pos = (603,40);
},
{
name = top;
pos = (564,255);
}
);
layerId = "7B26D558-51A9-4DA4-9A20-DDCE4917C78D";
shapes = (
{
attr = {
identifier = ID0x11618cd60;
lineCapEnd = 1;
lineCapStart = 1;
};
closed = 0;
nodes = (
(168,538,l),
(130,354,o),
(97,113,o),
(90,-55,c)
);
},
{
attr = {
identifier = ID0x11618cd60;
lineCapEnd = 1;
lineCapStart = 1;
};
closed = 0;
nodes = (
(65,556,l),
(127,574,o),
(196,588,o),
(262,588,cs),
(361,588,o),
(425,558,o),
(425,514,cs),
(425,437,o),
(220,324,o),
(73,267,c),
(234,239,o),
(358,193,o),
(358,127,cs),
(358,94,o),
(327,57,o),
(283,23,cs),
(247,-5,o),
(162,-55,o),
(145,-55,cs),
(143,-55,o),
(142,-54,o),
(142,-53,cs),
(142,-38,o),
(259,50,o),
(318,97,cs),
(383,147,o),
(447,193,o),
(503,231,c)
);
},
{
closed = 0;
nodes = (
(543,362,l),
(561,403,o),
(582,459,o),
(594,503,c)
);
},
{
attr = {
identifier = ID0x11618cd60;
lineCapEnd = 1;
lineCapStart = 1;
};
closed = 0;
nodes = (
(503,231,l),
(505,231,l)
);
},
{
attr = {
identifier = ID0x11618cd60;
lineCapEnd = 1;
lineCapStart = 1;
};
closed = 0;
nodes = (
(505,231,l),
(511,173,o),
(524,40,o),
(582,40,cs),
(605,40,o),
(633,61,o),
(660,88,cs),
(683,111,l)
);
}
);
width = 683;
},
{
associatedMasterId = "7B26D558-51A9-4DA4-9A20-DDCE4917C78D";
layerId = "A292E118-8850-458B-BBB4-AB937C7986FD";
name = "20 oct. 22 à 09:38";
shapes = (
{
closed = 0;
nodes = (
(134,553,l),
(92,332,o),
(89,205,o),
(85,-4,c)
);
},
{
closed = 0;
nodes = (
(59,570,l),
(240,609,o),
(408,611,o),
(408,546,cs),
(408,467,o),
(192,362,o),
(76,300,c),
(200,262,o),
(359,206,o),
(359,154,cs),
(359,118,o),
(292,91,o),
(50,29,c)
);
}
);
width = 438;
}
);
metricLeft = H;
},
{
glyphname = M_i;
kernLeft = H;
kernRight = i;
layers = (
{
anchors = (
{
name = ogonek;
pos = (728,40);
}
);
layerId = "7B26D558-51A9-4DA4-9A20-DDCE4917C78D";
shapes = (
{
closed = 0;
nodes = (
(75,11,l),
(97,201,o),
(125,431,o),
(146,601,c),
(151,603,l),
(134,431,o),
(200,270,o),
(270,267,cs),
(334,264,o),
(437,377,o),
(532,537,c),
(537,539,l),
(502,369,o),
(450,115,o),
(417,-51,cs),
(411,-80,o),
(401,-92,o),
(396,-92,cs),
(392,-92,o),
(391,-85,o),
(394,-75,cs),
(412,-4,o),
(565,102,o),
(695,232,c)
);
},
{
closed = 0;
nodes = (
(736,362,l),
(754,403,o),
(775,459,o),
(787,503,c)
);
},
{
attr = {
lineCapEnd = "1";
lineCapStart = "1";
};
closed = 0;
nodes = (
(695,232,l),
(698,231,l)
);
},
{
attr = {
lineCapEnd = "1";
lineCapStart = "1";
};
closed = 0;
nodes = (
(698,231,l),
(704,173,o),
(717,40,o),
(775,40,cs),
(798,40,o),
(826,61,o),
(853,88,cs),
(876,111,l)
);
}
);
width = 876;
},
{
associatedMasterId = "7B26D558-51A9-4DA4-9A20-DDCE4917C78D";
layerId = "7F7F8207-C320-41BC-83CB-47479E0BDE21";
name = "29 nov. 22 à 10:57";
shapes = (
{
closed = 0;
nodes = (
(45,5,l),
(70,174,o),
(95,365,o),
(120,533,c),
(104,369,o),
(145,227,o),
(194,227,cs),
(282,227,o),
(421,437,o),
(437,464,c),
(370,154,o),
(366,43,o),
(338,1,cs),
(314,-35,o),
(265,-59,o),
(265,-59,c),
(265,-59,o),
(314,3,o),
(340,27,cs),
(357,43,o),
(378,60,o),
(406,80,c)
);
},
{
closed = 0;
nodes = (
(430,91,l),
(445,106,ls),
(461,122,o),
(491,158,o),
(512,192,c),
(514,192,l),
(517,143,o),
(527,31,o),
(575,31,cs),
(596,31,o),
(620,49,o),
(643,72,c),
(662,91,l)
);
},
{
closed = 0;
nodes = (
(547,318,l),
(603,421,l)
);
}
);
width = 662;
},
{
associatedMasterId = "7B26D558-51A9-4DA4-9A20-DDCE4917C78D";
layerId = "11C4DB08-8328-4F2E-8492-8127811A0360";
name = "29 nov. 22 à 11:01";
shapes = (
{
closed = 0;
nodes = (
(45,5,l),
(70,174,o),
(95,365,o),
(120,533,c),
(104,369,o),
(145,227,o),
(194,227,cs),
(282,227,o),
(421,437,o),
(437,464,c),
(327,-42,o),
(384,49,o),
(409,72,c)
);
},
{
closed = 0;
nodes = (
(430,91,l),
(445,106,ls),
(461,122,o),
(491,158,o),
(512,192,c),
(514,192,l),
(517,143,o),
(527,31,o),
(575,31,cs),
(596,31,o),
(620,49,o),
(643,72,c),
(662,91,l)
);
},
{
closed = 0;
nodes = (
(547,318,l),
(603,421,l)
);
}
);
width = 662;
},
{
associatedMasterId = "7B26D558-51A9-4DA4-9A20-DDCE4917C78D";
layerId = "A4F7B853-658E-4656-8684-F77B65F1ADCB";
name = "29 nov. 22 à 11:01";
shapes = (
{
closed = 0;
nodes = (
(45,5,l),
(70,174,o),
(95,365,o),
(120,533,c),
(104,369,o),
(145,227,o),
(194,227,cs),
(282,227,o),
(421,437,o),
(437,464,c),
(320,49,ls),
(303,-11,o),
(254,-24,o),
(204,-43,c),
(280,8,o),
(315,37,o),
(383,57,c)
);
},
{
closed = 0;
nodes = (
(430,91,l),
(445,106,ls),
(461,122,o),
(491,158,o),
(512,192,c),
(514,192,l),
(517,143,o),
(527,31,o),
(575,31,cs),
(596,31,o),
(620,49,o),
(643,72,c),
(662,91,l)
);
},
{
closed = 0;
nodes = (
(547,318,l),
(603,421,l)
);
}
);
width = 662;
},
{
associatedMasterId = "7B26D558-51A9-4DA4-9A20-DDCE4917C78D";
layerId = "87BE9A87-D006-4014-B2F3-60D63A43537B";
name = "1 déc. 22 à 11:20";
shapes = (
{
closed = 0;
nodes = (
(45,5,l),
(70,174,o),
(95,365,o),
(120,533,c),
(104,369,o),
(145,227,o),
(194,227,cs),
(282,227,o),
(421,437,o),
(437,464,c),
(362,118,o),
(340,16,o),
(327,-19,cs),
(322,-36,o),
(313,-56,o),
(308,-56,cs),
(305,-56,o),
(310,-24,o),
(332,5,cs),
(345,23,o),
(395,62,o),
(421,84,cs),
(452,111,o),
(510,158,o),
(542,192,c),
(544,192,l),
(547,143,o),
(557,31,o),
(605,31,cs),
(626,31,o),
(650,49,o),
(673,72,c),
(692,91,l)
);
},
{
closed = 0;
nodes = (
(577,318,l),
(633,421,l)
);
}
);
width = 692;
}
);
metricLeft = "=H+10";
},
{
glyphname = R_A;
kernLeft = H;
kernRight = A;
layers = (
{
anchors = (
{
name = bottom;
pos = (222,30);
},
{
name = top;
pos = (282,560);
}
);
layerId = "7B26D558-51A9-4DA4-9A20-DDCE4917C78D";
shapes = (
{
closed = 0;
nodes = (
(179,449,l),
(160,298,o),
(135,147,o),
(102,-4,c)
);
},
{
pos = (453,0);
ref = A;
},
{
closed = 0;
nodes = (
(102,-4,l),
(124,215,o),
(134,403,o),
(130,566,c),
(162,570,o),
(190,572,o),
(211,572,cs),
(322,572,o),
(434,519,o),
(434,451,cs),
(434,358,o),
(228,263,o),
(80,216,c),
(180,140,o),
(276,75,o),
(412,-5,c)
);
}
);
width = 872;
}
);
metricLeft = "=H+15";
metricRight = A;
},
{
glyphname = R_S;
kernLeft = H;
kernRight = S;
layers = (
{
layerId = "7B26D558-51A9-4DA4-9A20-DDCE4917C78D";
shapes = (
{
pos = (453,0);
ref = S;
},
{
closed = 0;
nodes = (
(179,449,l),
(160,298,o),
(135,147,o),
(102,-4,c)
);
},
{
closed = 0;
nodes = (
(102,-4,l),
(124,215,o),
(134,403,o),
(130,566,c),
(162,570,o),
(190,572,o),
(211,572,cs),
(322,572,o),
(434,519,o),
(434,451,cs),
(434,358,o),
(228,263,o),
(80,216,c),
(180,140,o),
(276,75,o),
(412,-5,c)
);
}
);
width = 762;
}
);
metricLeft = "=H+15";
metricRight = S;
},
{
glyphname = R_X;
kernLeft = H;
kernRight = X;
layers = (
{
layerId = "7B26D558-51A9-4DA4-9A20-DDCE4917C78D";
shapes = (
{
pos = (453,0);
ref = X;
},
{
closed = 0;
nodes = (
(179,449,l),
(160,298,o),
(135,147,o),
(102,-4,c)
);
},
{
closed = 0;
nodes = (
(102,-4,l),
(124,215,o),
(134,403,o),
(130,566,c),
(162,570,o),
(190,572,o),
(211,572,cs),
(322,572,o),
(434,519,o),
(434,451,cs),
(434,358,o),
(228,263,o),
(80,216,c),
(180,140,o),
(276,75,o),
(412,-5,c)
);
}
);
width = 848;
}
);
metricLeft = "=H+15";
metricRight = X;
},
{
glyphname = R_Z;
kernLeft = H;
kernRight = Z;
layers = (
{
layerId = "7B26D558-51A9-4DA4-9A20-DDCE4917C78D";
shapes = (
{
closed = 0;
nodes = (
(179,449,l),
(160,298,o),
(135,147,o),
(102,-4,c)
);
},
{
pos = (458,0);
ref = Z;
},
{
closed = 0;
nodes = (
(102,-4,l),
(124,215,o),
(134,403,o),
(130,566,c),
(162,570,o),
(190,572,o),
(211,572,cs),
(322,572,o),
(434,519,o),
(434,451,cs),
(434,358,o),
(228,263,o),
(80,216,c),
(180,140,o),
(276,75,o),
(412,-5,c)
);
}
);
width = 826;
}
);
metricLeft = "=H+15";
metricRight = Z;
},
{
glyphname = S_i;
kernLeft = S;
kernRight = i;
layers = (
{
anchors = (
{
name = bottom;
pos = (117,-17);
},
{
name = ogonek;
pos = (497,40);
},
{
name = top;
pos = (268,580);
}
);
layerId = "7B26D558-51A9-4DA4-9A20-DDCE4917C78D";
shapes = (
{
closed = 0;
nodes = (
(195,492,l),
(241,521,o),
(307,574,o),
(307,599,cs),
(307,605,o),
(303,608,o),
(295,608,cs),
(289,608,o),
(283,607,o),
(274,604,cs),
(175,572,o),
(73,481,o),
(73,402,cs),
(73,349,o),
(109,310,o),
(151,270,cs),
(203,221,o),
(254,183,o),
(254,142,cs),
(254,72,o),
(103,-37,o),
(49,-37,cs),
(40,-37,o),
(35,-34,o),
(35,-28,cs),
(35,-1,o),
(204,113,o),
(395,231,c)
);
},
{
closed = 0;
nodes = (
(435,362,l),
(453,403,o),
(474,459,o),
(486,503,c)
);
},
{
closed = 0;
nodes = (
(395,231,l),
(397,231,l)
);
},
{
closed = 0;
nodes = (
(397,231,l),
(403,173,o),
(416,40,o),
(474,40,cs),
(497,40,o),
(525,61,o),
(552,88,cs),
(575,111,l)
);
}
);
width = 575;
},
{
associatedMasterId = "7B26D558-51A9-4DA4-9A20-DDCE4917C78D";
background = {
shapes = (
{
closed = 0;
nodes = (
(161,452,l),
(202,483,o),
(249,513,o),
(271,549,cs),
(283,569,o),
(285,585,o),
(249,574,cs),
(156,544,o),
(60,451,o),
(60,398,cs),
(60,261,o),
(230,194,o),
(230,128,cs),
(230,63,o),
(96,-19,o),
(65,-30,c)
);
},
{
closed = 0;
nodes = (
(161,452,l),
(202,483,o),
(249,513,o),
(271,549,cs),
(283,569,o),
(285,585,o),
(249,574,cs),
(156,544,o),
(60,451,o),
(60,398,cs),
(60,261,o),
(230,194,o),
(230,128,cs),
(230,63,o),
(96,-19,o),
(65,-30,cs),
(53,-34,o),
(17,-46,o),
(20,-14,cs),
(24,36,o),
(280,87,o),
(315,106,cs),
(337,118,o),
(361,158,o),
(382,192,c),
(384,192,l),
(387,143,o),
(397,31,o),
(445,31,cs),
(466,31,o),
(490,49,o),
(513,72,c),
(532,91,l)
);
},
{
closed = 0;
nodes = (
(417,318,l),
(473,421,l)
);
}
);
};
layerId = "D1A6E45A-3A84-4991-9D6C-C31294CD666D";
name = "24 nov. 22 à 09:54";
shapes = (
{
closed = 0;
nodes = (
(161,452,l),
(202,483,o),
(249,513,o),
(271,549,cs),
(283,569,o),
(285,585,o),
(249,574,cs),
(156,544,o),
(60,451,o),
(60,398,cs),
(60,261,o),
(230,194,o),
(230,128,cs),
(230,63,o),
(96,-19,o),
(65,-30,c)
);
},
{
closed = 0;
nodes = (
(161,452,l),
(202,483,o),
(249,513,o),
(271,549,cs),
(283,569,o),
(285,585,o),
(249,574,cs),
(156,544,o),
(60,451,o),
(60,398,cs),
(60,261,o),
(230,194,o),
(230,128,cs),
(230,63,o),
(96,-19,o),
(65,-30,cs),
(53,-34,o),
(17,-46,o),
(20,-14,cs),
(24,36,o),
(280,87,o),
(315,106,cs),
(337,118,o),
(361,158,o),
(382,192,c),
(384,192,l),
(387,143,o),
(397,31,o),
(445,31,cs),
(466,31,o),
(490,49,o),
(513,72,c),
(532,91,l)
);
},
{
closed = 0;
nodes = (
(417,318,l),
(473,421,l)
);
}
);
width = 532;
},
{
associatedMasterId = "7B26D558-51A9-4DA4-9A20-DDCE4917C78D";
background = {
shapes = (
{
closed = 0;
nodes = (
(155,452,l),
(196,483,o),
(243,513,o),
(265,549,cs),
(277,569,o),
(279,585,o),
(243,574,cs),
(150,544,o),
(54,451,o),
(54,398,cs),
(54,261,o),
(224,194,o),
(224,128,cs),
(224,63,o),
(90,-19,o),
(59,-30,c)
);
},
{
closed = 0;
nodes = (
(155,452,l),
(196,483,o),
(243,513,o),
(265,549,cs),
(277,569,o),
(279,585,o),
(243,574,cs),
(150,544,o),
(54,451,o),
(54,398,cs),
(54,261,o),
(224,194,o),
(224,128,cs),
(224,63,o),
(90,-19,o),
(59,-30,cs),
(47,-34,o),
(11,-46,o),
(14,-14,cs),
(18,36,o),
(274,87,o),
(309,106,cs),
(331,118,o),
(355,158,o),
(376,192,c),
(378,192,l),
(381,143,o),
(391,31,o),
(439,31,cs),
(460,31,o),
(484,49,o),
(507,72,c),
(526,91,l)
);
},
{
closed = 0;
nodes = (
(411,318,l),
(467,421,l)
);
}
);
};
layerId = "5278B5C5-A270-4D1C-BD24-E613F6771F9A";
name = "1 déc. 22 à 11:26";
shapes = (
{
closed = 0;
nodes = (
(411,318,l),
(467,421,l)
);
},
{
closed = 0;
nodes = (
(164,407,l),
(201,435,o),
(243,462,o),
(263,494,cs),
(274,512,o),
(276,527,o),
(243,517,cs),
(159,490,o),
(73,406,o),
(73,358,cs),
(73,235,o),
(226,175,o),
(226,115,cs),
(226,76,o),
(140,9,o),
(84,-20,cs),
(57,-34,o),
(42,-35,o),
(37,-27,cs),
(28,-13,o),
(101,36,o),
(237,113,cs),
(376,192,l),
(378,192,l),
(381,143,o),
(391,31,o),
(439,31,cs),
(460,31,o),
(484,49,o),
(507,72,c),
(526,91,l)
);
}
);
width = 526;
}
);
metricLeft = S;
},
{
glyphname = a;
kernLeft = a;
kernRight = a;
layers = (
{
anchors = (
{
name = bottom;
pos = (202,0);
},
{
name = ogonek;
pos = (325,69);
},
{
name = top;
pos = (313,300);
}
);
layerId = "7B26D558-51A9-4DA4-9A20-DDCE4917C78D";
shapes = (
{
attr = {
lineCapEnd = 1;
lineCapStart = 1;
};
closed = 0;
nodes = (
(0,111,l),
(17,128,ls),
(97,208,o),
(191,283,o),
(297,352,c)
);
},
{
attr = {
lineCapEnd = 1;
lineCapStart = 1;
};
closed = 0;
nodes = (
(297,352,l),
(299,350,l)
);
},
{
attr = {
lineCapEnd = 1;
lineCapStart = 1;
};
closed = 0;
nodes = (
(299,350,l),
(190,269,o),
(41,124,o),
(41,55,cs),
(41,40,o),
(48,31,o),
(62,31,cs),
(95,31,o),
(166,81,o),
(297,222,c)
);
},
{
attr = {
lineCapEnd = 1;
lineCapStart = 1;
};
closed = 0;
nodes = (
(297,222,l),
(288,194,o),
(282,161,o),
(282,138,cs),
(282,95,o),
(303,69,o),
(335,69,cs),
(355,69,o),
(379,79,o),
(405,105,cs),
(411,111,l)
);
}
);
width = 411;
},
{
anchors = (
{
name = bottom;
pos = (70,41);
},
{
name = ogonek;
pos = (70,41);
},
{
name = top;
pos = (248,300);
}
);
associatedMasterId = "7B26D558-51A9-4DA4-9A20-DDCE4917C78D";
background = {
shapes = (
{
attr = {
lineCapEnd = 1;
lineCapStart = 1;
};
closed = 0;
nodes = (
(299,350,l),
(297,352,l)
);
},
{
closed = 1;
nodes = (
(411,159,l),
(406,159,o),
(405,147,o),
(390,139,c),
(383,139,o),
(380,127,o),
(361,127,cs),
(338,127,o),
(325,150,o),
(325,171,cs),
(325,190,o),
(329,195,o),
(329,207,c),
(319,218,o),
(328,250,o),
(310,250,cs),
(303,250,o),
(290,249,o),
(277,246,c),
(263,232,o),
(235,219,o),
(220,194,c),
(192,181,o),
(167,153,o),
(163,144,c),
(139,133,o),
(128,112,o),
(108,112,c),
(108,124,o),
(117,127,o),
(119,137,c),
(135,162,o),
(167,183,o),
(177,204,c),
(189,209,o),
(204,225,o),
(213,240,c),
(229,251,o),
(241,261,o),
(247,273,c),
(267,295,o),
(288,301,o),
(301,328,c),
(323,335,o),
(340,355,o),
(343,378,c),
(333,387,o),
(331,400,o),
(311,400,cs),
(277,400,o),
(251,371,o),
(217,350,c),
(207,338,o),
(196,327,o),
(184,324,c),
(160,295,o),
(121,280,o),
(110,258,c),
(90,246,o),
(84,239,o),
(68,215,c),
(57,212,o),
(39,184,o),
(20,172,cs),
(0,160,o),
(0,147,o),
(0,94,c),
(3,94,o),
(12,92,o),
(12,88,cs),
(12,83,o),
(2,69,o),
(2,49,cs),
(2,43,o),
(2,36,o),
(9,17,c),
(15,12,o),
(36,0,o),
(45,0,cs),
(54,0,o),
(61,7,o),
(75,8,c),
(91,23,o),
(119,29,o),
(139,56,c),
(170,71,o),
(181,105,o),
(198,106,c),
(205,118,o),
(231,142,o),
(238,142,cs),
(252,142,o),
(241,89,o),
(259,77,c),
(266,59,o),
(290,44,o),
(304,44,cs),
(309,44,o),
(316,47,o),
(319,47,cs),
(322,47,o),
(328,44,o),
(332,44,cs),
(345,44,o),
(360,52,o),
(389,72,c),
(400,85,o),
(415,89,o),
(415,99,cs),
(415,105,o),
(413,109,o),
(413,113,cs),
(413,119,o),
(416,124,o),
(416,127,cs),
(416,131,o),
(414,143,o),
(414,156,c)
);
},
{
attr = {
lineCapEnd = 1;
lineCapStart = 1;
};
closed = 0;
nodes = (
(297,352,l),
(299,350,l)
);
},
{
attr = {
lineCapEnd = "1";
lineCapStart = "1";
};
closed = 0;
nodes = (
(0,111,l),
(17,128,ls),
(97,208,o),
(191,284,o),
(297,352,c),
(299,350,l),
(190,269,o),
(35,113,o),
(35,47,cs),
(35,33,o),
(42,24,o),
(56,24,cs),
(90,24,o),
(166,82,o),
(299,228,c),
(288,194,o),
(282,161,o),
(282,138,cs),
(282,95,o),
(302,69,o),
(335,69,cs),
(355,69,o),
(379,79,o),
(405,105,cs),
(411,111,l)
);
}
);
};
layerId = "0CDF3C1C-AEA6-476B-A402-B1BA2156D7B8";
name = "31 déc. 24 à 08:26";
shapes = (
{
attr = {
lineCapEnd = 1;
lineCapStart = 1;
};
closed = 0;
nodes = (
(0,111,l),
(17,128,ls),
(97,208,o),
(191,282,o),
(297,352,c)
);
},
{
attr = {
lineCapEnd = 1;
lineCapStart = 1;
};
closed = 0;
nodes = (
(297,352,l),
(299,350,l)
);
},
{
attr = {
lineCapEnd = 1;
lineCapStart = 1;
};
closed = 0;
nodes = (
(299,350,l),
(190,269,o),
(48,136,o),
(48,65,cs),
(48,50,o),
(55,41,o),
(70,41,cs),
(103,41,o),
(166,82,o),
(297,222,c),
(288,194,o),
(282,161,o),
(282,138,cs),
(282,95,o),
(302,69,o),
(335,69,cs),
(355,69,o),
(379,79,o),
(405,105,cs),
(411,111,l)
);
}
);
width = 411;
}
);
unicode = 97;
},
{
glyphname = ae;
kernLeft = a;
kernRight = e;
layers = (
{
layerId = "7B26D558-51A9-4DA4-9A20-DDCE4917C78D";
name = Regular;
shapes = (
{
closed = 0;
nodes = (
(0,111,l),
(23,134,ls),
(85,196,o),
(171,264,o),
(259,321,c)
);
},
{
closed = 0;
nodes = (
(272,200,l),
(265,177,o),
(260,153,o),
(260,129,cs),
(260,89,o),
(274,63,o),
(310,63,cs),
(384,63,o),
(512,171,o),
(512,252,cs),
(512,271,o),
(505,284,o),
(491,284,cs),
(452,284,o),
(360,185,o),
(360,87,cs),
(360,28,o),
(392,3,o),
(430,3,cs),
(482,3,o),
(543,50,o),
(593,100,cs),
(604,111,l)
);
},
{
closed = 0;
nodes = (
(259,321,l),
(114,206,o),
(32,87,o),
(32,33,cs),
(32,15,o),
(41,6,o),
(54,6,cs),
(95,6,o),
(190,94,o),
(272,200,c)
);
}
);
width = 604;
}
);
unicode = 230;
},
{
glyphname = b;
kernLeft = h;
kernRight = o;
layers = (
{
associatedMasterId = "7B26D558-51A9-4DA4-9A20-DDCE4917C78D";
background = {
shapes = (
{
closed = 1;
nodes = (
(311,687,ls),
(311,709,o),
(298,716,o),
(291,716,cs),
(288,716,o),
(285,714,o),
(279,714,cs),
(276,714,o),
(275,718,o),
(272,718,cs),
(255,718,o),
(237,702,o),
(198,685,c),
(195,672,o),
(189,666,o),
(182,662,c),
(169,644,o),
(155,629,o),
(134,568,c),
(133,558,o),
(117,538,o),
(115,528,c),
(106,489,o),
(90,474,o),
(89,456,cs),
(87,423,o),
(62,385,o),
(44,268,c),
(35,248,o),
(34,236,o),
(30,190,cs),
(28,163,o),
(-3,163,o),
(-3,146,cs),
(-3,129,o),
(-5,113,o),
(-5,92,cs),
(-5,88,o),
(-5,86,o),
(-1,86,cs),
(2,86,o),
(14,107,o),
(22,109,c),
(27,32,o),
(39,-5,o),
(48,-28,c),
(59,-31,o),
(66,-54,o),
(98,-54,cs),
(153,-54,o),
(155,-23,o),
(186,-12,c),
(204,3,o),
(208,22,o),
(234,43,c),
(251,83,o),
(265,92,o),
(269,111,c),
(276,121,o),
(282,135,o),
(287,154,c),
(295,159,o),
(310,206,o),
(310,217,cs),
(310,231,o),
(308,238,o),
(292,238,cs),
(285,238,o),
(277,236,o),
(273,236,cs),
(263,236,o),
(255,238,o),
(249,238,cs),
(243,238,o),
(230,226,o),
(216,216,c),
(212,202,o),
(193,189,o),
(187,171,c),
(163,146,o),
(159,118,o),
(159,98,cs),
(159,87,o),
(188,87,o),
(188,78,cs),
(188,61,o),
(161,41,o),
(130,36,c),
(111,36,o),
(97,90,o),
(97,138,cs),
(97,162,o),
(102,170,o),
(107,195,c),
(124,233,o),
(155,263,o),
(173,315,c),
(185,327,o),
(193,342,o),
(202,360,c),
(208,389,o),
(240,422,o),
(247,452,c),
(255,464,o),
(260,478,o),
(263,489,c),
(271,495,o),
(279,525,o),
(280,536,c),
(289,551,o),
(304,625,o),
(311,634,c)
);
},
{
closed = 1;
nodes = (
(225,567,o),
(228,566,o),
(228,563,c),
(203,501,o),
(196,464,o),
(176,414,c),
(160,397,o),
(152,353,o),
(140,341,c),
(131,331,o),
(131,314,o),
(122,314,c),
(133,355,o),
(131,377,o),
(145,403,c),
(163,463,o),
(182,471,o),
(187,499,c),
(211,548,o),
(215,567,o),
(223,567,c)
);
},
{
closed = 1;
nodes = (
(249,30,o),
(252,28,o),
(260,28,cs),
(270,28,o),
(283,45,o),
(305,55,c),
(348,92,o),
(373,88,o),
(373,124,c),
(368,124,o),
(368,162,o),
(358,162,cs),
(352,162,o),
(350,147,o),
(323,129,c),
(311,103,o),
(298,104,o),
(276,75,c),
(266,67,o),
(249,46,o),
(249,37,cs)
);
},
{
attr = {
lineCapEnd = "1";
lineCapStart = "1";
};
closed = 0;
nodes = (
(332,111,l),
(316,95,ls),
(300,79,o),
(276,59,o),
(257,45,c)
);
},
{
attr = {
lineCapEnd = "1";
lineCapStart = "1";
};
closed = 0;
nodes = (
(0,111,l),
(5,116,ls),
(107,218,o),
(243,474,o),
(250,603,cs),
(251,627,o),
(247,640,o),
(237,640,cs),
(218,640,o),
(192,586,o),
(153,491,cs),
(97,355,o),
(54,174,o),
(54,95,cs),
(54,30,o),
(72,-25,o),
(114,-25,cs),
(185,-25,o),
(264,131,o),
(264,184,cs),
(264,194,o),
(261,199,o),
(254,199,cs),
(231,199,o),
(196,157,o),
(177,91,c)
);
}
);
};
layerId = "B7DE254E-686A-44C9-A868-B78B9FB6A247";
name = "30 déc. 24 à 00:11";
shapes = (
{
attr = {
lineCapEnd = "1";
lineCapStart = "1";
};
closed = 0;
nodes = (
(332,111,l),
(316,95,ls),
(300,79,o),
(269,53,o),
(248,39,c)
);
},
{
attr = {
lineCapEnd = "1";
lineCapStart = "1";
};
closed = 0;
nodes = (
(0,111,l),
(5,116,ls),
(127,238,o),
(286,451,o),
(286,586,cs),
(286,604,o),
(283,616,o),
(271,616,cs),
(202,616,o),
(64,240,o),
(64,80,cs),
(64,40,o),
(72,-25,o),
(118,-25,cs),
(185,-25,o),
(274,109,o),
(274,160,cs),
(274,171,o),
(270,177,o),
(261,177,cs),
(241,177,o),
(194,149,o),
(175,69,c)
);
}
);
width = 332;
},
{
layerId = "7B26D558-51A9-4DA4-9A20-DDCE4917C78D";
name = Regular;
shapes = (
{
attr = {
lineCapEnd = "1";
lineCapStart = "1";
};
closed = 0;
nodes = (
(0,111,l),
(5,116,ls),
(107,218,o),
(240,474,o),
(247,583,cs),
(249,607,o),
(244,620,o),
(235,620,cs),
(216,620,o),
(189,566,o),
(150,471,cs),
(98,344,o),
(55,174,o),
(55,87,cs),
(55,30,o),
(72,-25,o),
(114,-25,cs),
(185,-25,o),
(264,131,o),
(264,184,cs),
(264,194,o),
(261,199,o),
(254,199,cs),
(233,199,o),
(196,157,o),
(177,91,c)
);
},
{
attr = {
lineCapEnd = "1";
lineCapStart = "1";
};
closed = 0;
nodes = (
(332,111,l),
(316,95,ls),
(300,79,o),
(269,53,o),
(248,39,c)
);
}
);
width = 332;
}
);
unicode = 98;
},
{
glyphname = c;
kernLeft = o;
kernRight = o;
layers = (
{
anchors = (
{
name = bottom;
pos = (161,63);
},
{
name = top;
pos = (269,270);
}
);
layerId = "7B26D558-51A9-4DA4-9A20-DDCE4917C78D";
shapes = (
{
attr = {
lineCapEnd = "1";
lineCapStart = "1";
};
closed = 0;
nodes = (
(0,111,l),
(10,121,ls),
(98,209,o),
(190,257,o),
(271,291,c)
);
},
{
attr = {
lineCapEnd = "1";
lineCapStart = "1";
};
closed = 0;
nodes = (
(268,295,l),
(178,268,o),
(63,176,o),
(63,70,cs),
(63,27,o),
(82,-3,o),
(130,-3,cs),
(178,-3,o),
(229,27,o),
(282,80,cs),
(313,111,l)
);
},
{
attr = {
lineCapEnd = "1";
lineCapStart = "1";
};
closed = 0;
nodes = (
(271,291,l),
(268,295,l)
);
}
);
width = 313;
},
{
anchors = (
{
name = bottom;
pos = (161,63);
},
{
name = top;
pos = (269,270);
}
);
associatedMasterId = "7B26D558-51A9-4DA4-9A20-DDCE4917C78D";
background = {
shapes = (
{
closed = 1;
nodes = (
(316,320,o),
(313,329,o),
(311,337,c),
(311,355,o),
(307,358,o),
(301,358,cs),
(266,358,o),
(233,341,o),
(207,316,c),
(195,313,o),
(124,262,o),
(114,251,c),
(80,228,o),
(69,214,o),
(63,202,c),
(54,197,o),
(-4,158,o),
(-4,149,cs),
(-4,97,o),
(-5,94,o),
(-5,91,cs),
(-5,88,o),
(-3,86,o),
(-1,86,c),
(2,86,o),
(13,106,o),
(21,106,cs),
(27,106,o),
(25,75,o),
(30,69,c),
(30,18,o),
(67,15,o),
(74,2,c),
(96,-11,o),
(115,-12,o),
(151,-12,c),
(175,-1,o),
(195,-11,o),
(259,32,cs),
(290,52,o),
(353,92,o),
(353,112,cs),
(353,117,o),
(352,121,o),
(349,125,c),
(349,133,o),
(349,140,o),
(352,148,c),
(346,148,o),
(346,163,o),
(338,163,cs),
(331,163,o),
(330,144,o),
(315,132,c),
(257,89,o),
(224,70,o),
(213,70,cs),
(208,70,o),
(203,62,o),
(191,62,cs),
(180,62,o),
(170,63,o),
(162,63,c),
(130,68,o),
(126,72,o),
(118,102,c),
(120,110,o),
(119,139,o),
(127,151,cs),
(155,195,o),
(221,218,o),
(233,243,c),
(281,263,o),
(316,298,o),
(316,311,cs)
);
},
{
attr = {
lineCapEnd = "1";
lineCapStart = "1";
};
closed = 0;
nodes = (
(0,111,l),
(10,121,ls),
(98,209,o),
(190,257,o),
(271,291,c)
);
},
{
attr = {
lineCapEnd = "1";
lineCapStart = "1";
};
closed = 0;
nodes = (
(268,295,l),
(178,268,o),
(63,176,o),
(63,68,cs),
(63,24,o),
(82,-6,o),
(129,-6,cs),
(178,-6,o),
(229,27,o),
(282,80,cs),
(313,111,l)
);
},
{
attr = {
lineCapEnd = "1";
lineCapStart = "1";
};
closed = 0;
nodes = (
(271,291,l),
(268,295,l)
);
}
);
};
layerId = "8AEBF4AA-6AAB-4D9A-B546-C6AA44B34EED";
name = "13 févr. 25 à 13:46";
shapes = (
{
attr = {
lineCapEnd = "1";
lineCapStart = "1";
};
closed = 0;
nodes = (
(0,111,l),
(10,121,ls),
(98,209,o),
(211,277,o),
(292,311,c)
);
},
{
attr = {
lineCapEnd = "1";
lineCapStart = "1";
};
closed = 0;
nodes = (
(289,315,l),
(199,288,o),
(63,176,o),
(63,64,cs),
(63,24,o),
(82,-6,o),
(125,-6,cs),
(178,-6,o),
(229,27,o),
(282,80,cs),
(313,111,l)
);
},
{
attr = {
lineCapEnd = "1";
lineCapStart = "1";
};
closed = 0;
nodes = (
(292,311,l),
(289,315,l)
);
}
);
width = 313;
},
{
anchors = (
{
name = bottom;
pos = (161,63);
},
{
name = top;
pos = (269,270);
}
);
associatedMasterId = "7B26D558-51A9-4DA4-9A20-DDCE4917C78D";
background = {
shapes = (
{
closed = 1;
nodes = (
(316,320,o),
(313,329,o),
(311,337,c),
(311,355,o),
(307,358,o),
(301,358,cs),
(266,358,o),
(233,341,o),
(207,316,c),
(195,313,o),
(124,262,o),
(114,251,c),
(80,228,o),
(69,214,o),
(63,202,c),
(54,197,o),
(-4,158,o),
(-4,149,cs),
(-4,97,o),
(-5,94,o),
(-5,91,cs),
(-5,88,o),
(-3,86,o),
(-1,86,c),
(2,86,o),
(13,106,o),
(21,106,cs),
(27,106,o),
(25,75,o),
(30,69,c),
(30,18,o),
(67,15,o),
(74,2,c),
(96,-11,o),
(115,-12,o),
(151,-12,c),
(175,-1,o),
(195,-11,o),
(259,32,cs),
(290,52,o),
(353,92,o),
(353,112,cs),
(353,117,o),
(352,121,o),
(349,125,c),
(349,133,o),
(349,140,o),
(352,148,c),
(346,148,o),
(346,163,o),
(338,163,cs),
(331,163,o),
(330,144,o),
(315,132,c),
(257,89,o),
(224,70,o),
(213,70,cs),
(208,70,o),
(203,62,o),
(191,62,cs),
(180,62,o),
(170,63,o),
(162,63,c),
(130,68,o),
(126,72,o),
(118,102,c),
(120,110,o),
(119,139,o),
(127,151,cs),
(155,195,o),
(221,218,o),
(233,243,c),
(281,263,o),
(316,298,o),
(316,311,cs)
);
},
{
attr = {
lineCapEnd = "1";
lineCapStart = "1";
};
closed = 0;
nodes = (
(0,111,l),
(10,121,ls),
(98,209,o),
(190,257,o),
(271,291,c)
);
},
{
attr = {
lineCapEnd = "1";
lineCapStart = "1";
};
closed = 0;
nodes = (
(268,295,l),
(178,268,o),
(63,176,o),
(63,68,cs),
(63,24,o),
(82,-6,o),
(129,-6,cs),
(178,-6,o),
(229,27,o),
(282,80,cs),
(313,111,l)
);
},
{
attr = {
lineCapEnd = "1";
lineCapStart = "1";
};
closed = 0;
nodes = (
(271,291,l),
(268,295,l)
);
}
);
};
layerId = "FAE1BC6B-B14A-46FF-886C-BB971126AFC3";
name = "14 févr. 25 à 10:07";
shapes = (
{
closed = 0;
nodes = (
(0,111,l),
(16,127,ls),
(96,207,o),
(180,268,o),
(287,314,c)
);
},
{
closed = 0;
nodes = (
(287,314,l),
(143,243,o),
(61,152,o),
(61,67,cs),
(61,25,o),
(80,-2,o),
(121,-2,cs),
(168,-2,o),
(214,31,o),
(264,81,cs),
(294,111,l)
);
}
);
width = 294;
}
);
unicode = 99;
},
{
glyphname = d;
kernLeft = a;
kernRight = d;
layers = (
{
anchors = (
{
name = bottom;
pos = (234,0);
},
{
name = center;
pos = (350,520);
},
{
name = top;
pos = (411,580);
},
{
name = topright;
pos = (531,640);
}
);
layerId = "7B26D558-51A9-4DA4-9A20-DDCE4917C78D";
shapes = (
{
attr = {
lineCapEnd = "1";
lineCapStart = "1";
};
closed = 0;
nodes = (
(0,111,l),
(17,128,ls),
(57,168,o),
(177,291,o),
(288,358,c)
);
},
{
attr = {
lineCapEnd = "1";
lineCapStart = "1";
};
closed = 0;
nodes = (
(288,358,l),
(109,251,o),
(34,90,o),
(34,35,cs),
(34,15,o),
(44,4,o),
(60,4,cs),
(105,4,o),
(195,95,o),
(271,228,cs),
(326,324,o),
(376,437,o),
(411,528,cs),
(431,583,o),
(451,640,o),
(441,640,cs),
(431,640,o),
(395,574,o),
(367,500,cs),
(336,417,o),
(307,298,o),
(307,207,cs),
(307,126,o),
(334,63,o),
(384,63,cs),
(408,63,o),
(434,78,o),
(460,104,cs),
(467,111,l)
);
}
);
width = 467;
},
{
associatedMasterId = "7B26D558-51A9-4DA4-9A20-DDCE4917C78D";
background = {
shapes = (
{
closed = 1;
nodes = (
(366,138,o),
(366,173,o),
(355,184,c),
(342,214,o),
(347,250,o),
(342,262,c),
(342,296,o),
(347,307,o),
(349,324,c),
(362,362,o),
(377,363,o),
(377,396,c),
(401,424,o),
(389,431,o),
(402,446,c),
(423,487,o),
(423,496,o),
(423,508,c),
(431,539,o),
(445,542,o),
(451,596,c),
(460,598,o),
(460,649,o),
(467,653,c),
(467,702,o),
(457,706,o),
(445,706,cs),
(424,706,o),
(383,653,o),
(383,637,c),
(350,589,o),
(345,555,o),
(326,527,c),
(326,513,o),
(311,485,o),
(304,455,c),
(293,441,o),
(291,396,o),
(277,396,cs),
(262,396,o),
(255,390,o),
(239,374,c),
(196,343,o),
(175,323,o),
(163,306,c),
(157,302,o),
(152,298,o),
(150,292,c),
(124,273,o),
(100,250,o),
(83,230,c),
(82,218,o),
(59,208,o),
(48,190,c),
(34,185,o),
(30,174,o),
(7,160,cs),
(-1,155,o),
(-3,147,o),
(-3,139,cs),
(-3,130,o),
(1,125,o),
(1,120,cs),
(1,115,o),
(-5,107,o),
(-5,99,cs),
(-5,92,o),
(-3,89,o),
(0,89,cs),
(7,89,o),
(10,107,o),
(24,107,cs),
(28,107,o),
(30,106,o),
(30,104,c),
(30,99,o),
(10,67,o),
(10,28,cs),
(10,16,o),
(14,-3,o),
(25,-5,cs),
(37,-7,o),
(46,-12,o),
(58,-12,cs),
(103,-12,o),
(155,62,o),
(172,74,c),
(192,109,o),
(210,105,o),
(221,138,c),
(224,148,o),
(251,184,o),
(261,184,cs),
(274,184,o),
(266,152,o),
(280,139,c),
(281,122,o),
(290,106,o),
(300,97,c),
(317,65,o),
(342,66,o),
(367,58,c),
(415,58,o),
(469,82,o),
(481,107,c),
(481,113,o),
(478,119,o),
(478,143,c),
(480,148,o),
(481,153,o),
(481,159,c),
(481,161,o),
(479,163,o),
(474,163,cs),
(463,163,o),
(449,138,o),
(410,138,cs)
);
},
{
closed = 1;
nodes = (
(265,282,l),
(243,240,o),
(231,230,o),
(217,204,c),
(201,189,o),
(193,173,o),
(184,163,c),
(161,141,o),
(130,96,o),
(112,96,c),
(112,135,o),
(157,183,o),
(174,217,c),
(196,236,o),
(204,259,o),
(215,262,c),
(215,271,o),
(256,316,o),
(265,316,c)
);
}
);
};
layerId = "0F00BB29-595C-4026-96F5-E0BB688A7CDA";
name = "16 oct. 23 à 22:01";
shapes = (
{
attr = {
lineCapEnd = "1";
lineCapStart = "1";
};
closed = 0;
nodes = (
(0,111,l),
(17,128,ls),
(57,168,o),
(177,291,o),
(288,358,c)
);
},
{
attr = {
lineCapEnd = "1";
lineCapStart = "1";
};
closed = 0;
nodes = (
(288,358,l),
(109,251,o),
(32,90,o),
(32,34,cs),
(32,13,o),
(41,4,o),
(55,4,cs),
(99,4,o),
(195,95,o),
(271,228,cs),
(326,324,o),
(376,437,o),
(411,528,cs),
(431,583,o),
(459,662,o),
(448,662,cs),
(439,662,o),
(395,574,o),
(373,515,cs),
(336,417,o),
(307,298,o),
(307,207,cs),
(307,126,o),
(334,63,o),
(384,63,cs),
(408,63,o),
(434,78,o),
(460,104,cs),
(467,111,l)
);
}
);
width = 467;
}
);
unicode = 100;
},
{
glyphname = dcroat;
kernLeft = a;
kernRight = d;
layers = (
{
layerId = "7B26D558-51A9-4DA4-9A20-DDCE4917C78D";
shapes = (
{
closed = 0;
nodes = (
(472,484,l),
(403,485,o),
(325,480,o),
(247,469,c)
);
},
{
ref = d;
}
);
width = 467;
}
);
unicode = 273;
},
{
glyphname = eth;
kernLeft = o;
kernRight = d;
layers = (
{
layerId = "7B26D558-51A9-4DA4-9A20-DDCE4917C78D";
shapes = (
{
closed = 0;
nodes = (
(225,592,l),
(318,584,o),
(371,512,o),
(371,390,cs),
(371,302,o),
(344,208,o),
(282,110,cs)
);
},
{
closed = 0;
nodes = (
(231,437,l),
(310,459,o),
(416,514,o),
(463,550,cs)
);
},
{
ref = o;
}
);
width = 388;
}
);
unicode = 240;
},
{
glyphname = e;
kernLeft = e;
kernRight = e;
layers = (
{
anchors = (
{
name = bottom;
pos = (108,11);
},
{
name = ogonek;
pos = (134,12);
},
{
name = top;
pos = (187,300);
}
);
layerId = "7B26D558-51A9-4DA4-9A20-DDCE4917C78D";
shapes = (
{
attr = {
lineCapEnd = 1;
lineCapStart = 1;
};
closed = 0;
nodes = (
(0,111,l),
(31,142,l),
(148,199,o),
(203,272,o),
(203,307,cs),
(203,321,o),
(194,330,o),
(180,330,cs),
(131,330,o),
(28,220,o),
(28,109,cs),
(28,55,o),
(54,11,o),
(108,11,cs),
(150,11,o),
(207,37,o),
(270,100,cs),
(281,111,l)
);
}
);
width = 281;
}
);
unicode = 101;
},
{
glyphname = schwa;
kernLeft = o;
kernRight = o;
layers = (
{
anchors = (
{
name = bottom;
pos = (94,21);
},
{
name = ogonekabove;
pos = (147,309);
},
{
name = top;
pos = (173,310);
}
);
layerId = "7B26D558-51A9-4DA4-9A20-DDCE4917C78D";
shapes = (
{
attr = {
identifier = ID0x123499950;
lineCapEnd = 1;
lineCapStart = 1;
};
closed = 0;
nodes = (
(281,111,l),
(263,93,ls),
(255,85,o),
(244,76,o),
(235,71,cs)
);
},
{
attr = {
identifier = ID0x123499950;
lineCapEnd = 1;
lineCapStart = 1;
};
closed = 0;
nodes = (
(250,179,l),
(133,122,o),
(78,49,o),
(78,14,cs),
(78,0,o),
(87,-9,o),
(101,-9,cs),
(150,-9,o),
(253,101,o),
(253,212,cs),
(253,266,o),
(227,310,o),
(173,310,cs),
(131,310,o),
(65,284,o),
(20,199,cs)
);
}
);
width = 281;
}
);
unicode = 601;
},
{
glyphname = f;
kernLeft = f;
kernRight = f;
layers = (
{
layerId = "7B26D558-51A9-4DA4-9A20-DDCE4917C78D";
shapes = (
{
closed = 0;
nodes = (
(0,111,l),
(7,118,ls),
(169,280,o),
(219,401,o),
(219,553,cs),
(219,597,o),
(214,609,o),
(207,609,cs),
(191,609,o),
(167,550,o),
(148,496,cs),
(80,302,o),
(32,29,o),
(32,-173,cs),
(32,-263,o),
(43,-299,o),
(59,-299,cs),
(89,-299,o),
(155,-173,o),
(173,-64,c)
);
},
{
closed = 0;
nodes = (
(236,111,l),
(219,94,ls),
(187,62,o),
(145,23,o),
(106,-4,c)
);
}
);
width = 236;
},
{
associatedMasterId = "7B26D558-51A9-4DA4-9A20-DDCE4917C78D";
background = {
shapes = (
{
closed = 1;
nodes = (
(271,668,o),
(270,688,o),
(265,699,c),
(265,722,o),
(260,736,o),
(230,736,cs),
(220,736,o),
(210,724,o),
(200,718,c),
(186,699,o),
(173,688,o),
(167,662,c),
(141,611,o),
(139,573,o),
(122,543,c),
(121,532,o),
(101,460,o),
(97,451,c),
(94,408,o),
(86,402,o),
(86,278,c),
(77,251,o),
(67,247,o),
(56,221,cs),
(44,192,o),
(-8,150,o),
(-8,145,cs),
(-8,133,o),
(-7,119,o),
(-7,108,cs),
(-7,98,o),
(-11,93,o),
(-11,90,cs),
(-11,87,o),
(-8,86,o),
(-6,86,c),
(1,86,o),
(49,131,o),
(55,131,c),
(57,131,o),
(58,127,o),
(58,61,cs),
(58,12,o),
(54,8,o),
(54,3,cs),
(54,-5,o),
(59,-24,o),
(59,-80,cs),
(59,-117,o),
(66,-173,o),
(72,-203,c),
(73,-225,o),
(79,-233,o),
(86,-250,c),
(88,-271,o),
(100,-283,o),
(126,-288,c),
(172,-286,o),
(173,-247,o),
(197,-219,c),
(211,-178,o),
(238,-111,o),
(238,-85,c),
(250,-56,o),
(249,-40,o),
(256,-25,c),
(258,1,o),
(270,14,o),
(270,39,cs),
(270,47,o),
(263,56,o),
(263,60,cs),
(263,66,o),
(266,74,o),
(266,78,cs),
(266,109,o),
(266,113,o),
(257,115,c),
(243,110,o),
(234,105,o),
(234,88,c),
(225,85,o),
(220,28,o),
(214,15,c),
(203,-7,o),
(191,-53,o),
(190,-71,c),
(180,-78,o),
(159,-156,o),
(147,-156,cs),
(140,-156,o),
(133,-102,o),
(133,-95,cs),
(133,-83,o),
(134,-54,o),
(139,-36,c),
(138,-22,o),
(137,-8,o),
(137,6,cs),
(137,74,o),
(144,78,o),
(145,114,cs),
(151,317,o),
(211,314,o),
(228,389,cs),
(235,423,o),
(245,451,o),
(252,478,c),
(252,496,o),
(260,514,o),
(260,533,cs),
(260,561,o),
(271,578,o),
(271,617,cs)
);
},
{
closed = 1;
nodes = (
(153,385,o),
(154,407,o),
(156,413,c),
(159,420,o),
(161,434,o),
(161,457,c),
(173,477,o),
(162,489,o),
(187,529,c),
(203,561,o),
(213,601,o),
(218,601,c),
(220,601,o),
(221,600,o),
(221,596,cs),
(221,533,o),
(212,520,o),
(212,502,c),
(195,395,o),
(167,387,o),
(167,377,cs),
(167,373,o),
(163,361,o),
(158,361,cs),
(155,361,o),
(153,366,o),
(153,378,cs)
);
},
{
closed = 0;
nodes = (
(0,111,l),
(7,118,ls),
(155,266,o),
(223,382,o),
(223,534,cs),
(223,566,o),
(219,582,o),
(211,582,cs),
(197,582,o),
(172,513,o),
(152,459,cs),
(87,281,o),
(35,11,o),
(35,-179,cs),
(35,-267,o),
(44,-304,o),
(61,-304,cs),
(94,-304,o),
(155,-164,o),
(168,-53,c)
);
},
{
closed = 0;
nodes = (
(236,111,l),
(219,94,ls),
(187,62,o),
(145,23,o),
(106,-4,c)
);
}
);
};
layerId = "335E4D0B-147B-4269-ACE0-4E5026B80BB9";
name = "16 oct. 23 à 22:23";
shapes = (
{
closed = 0;
nodes = (
(0,111,l),
(7,118,ls),
(169,280,o),
(233,420,o),
(233,594,cs),
(233,626,o),
(229,642,o),
(221,642,cs),
(207,642,o),
(182,573,o),
(162,519,cs),
(92,326,o),
(45,29,o),
(45,-179,cs),
(45,-267,o),
(54,-304,o),
(71,-304,cs),
(104,-304,o),
(165,-164,o),
(178,-53,c)
);
},
{
closed = 0;
nodes = (
(236,111,l),
(219,94,ls),
(187,62,o),
(145,23,o),
(106,-4,c)
);
}
);
width = 236;
}
);
unicode = 102;
},
{
glyphname = g;
kernLeft = a;
kernRight = a;
layers = (
{
anchors = (
{
name = bottom;
pos = (82,-315);
},
{
name = top;
pos = (286,325);
}
);
layerId = "7B26D558-51A9-4DA4-9A20-DDCE4917C78D";
shapes = (
{
closed = 0;
nodes = (
(0,111,l),
(5,116,ls),
(137,248,o),
(195,295,o),
(276,355,c)
);
},
{
closed = 0;
nodes = (
(273,359,l),
(208,333,o),
(86,253,o),
(86,150,cs),
(86,22,o),
(247,-41,o),
(247,-128,cs),
(247,-202,o),
(114,-315,o),
(42,-315,cs),
(17,-315,o),
(3,-301,o),
(3,-278,cs),
(3,-195,o),
(184,-19,o),
(307,104,cs),
(314,111,l)
);
},
{
closed = 0;
nodes = (
(276,355,l),
(273,359,l)
);
}
);
width = 314;
},
{
anchors = (
{
name = bottom;
pos = (157,-350);
},
{
name = top;
pos = (223,359);
}
);
associatedMasterId = "7B26D558-51A9-4DA4-9A20-DDCE4917C78D";
background = {
shapes = (
{
closed = 1;
nodes = (
(150,148,o),
(152,153,o),
(152,171,cs),
(152,188,o),
(157,195,o),
(162,203,c),
(184,216,o),
(209,238,o),
(221,251,cs),
(238,269,o),
(259,280,o),
(272,293,c),
(282,310,o),
(301,313,o),
(320,345,c),
(341,353,o),
(339,383,o),
(343,391,c),
(339,419,o),
(335,423,o),
(321,430,c),
(302,430,o),
(276,423,o),
(260,406,c),
(236,396,o),
(219,381,o),
(218,376,c),
(208,371,o),
(166,335,o),
(163,328,c),
(124,295,o),
(116,283,o),
(113,268,c),
(99,253,o),
(92,239,o),
(76,221,cs),
(41,182,o),
(5,164,o),
(-8,146,c),
(-8,135,o),
(-4,121,o),
(-4,112,cs),
(-4,104,o),
(-7,102,o),
(-7,87,c),
(3,87,o),
(13,111,o),
(58,131,c),
(63,90,o),
(65,54,o),
(95,22,c),
(103,2,o),
(123,-3,o),
(123,-31,c),
(105,-49,o),
(86,-67,o),
(65,-85,c),
(57,-103,o),
(27,-117,o),
(9,-155,cs),
(-7,-189,o),
(-22,-196,o),
(-22,-268,cs),
(-22,-305,o),
(1,-296,o),
(1,-307,c),
(22,-324,o),
(46,-319,o),
(57,-324,c),
(93,-324,o),
(122,-305,o),
(151,-292,c),
(170,-287,o),
(231,-237,o),
(249,-205,c),
(254,-175,o),
(272,-168,o),
(272,-131,cs),
(272,-83,o),
(253,-45,o),
(234,-14,c),
(234,2,o),
(245,-1,o),
(283,37,c),
(364,92,o),
(366,100,o),
(366,108,cs),
(366,155,o),
(366,165,o),
(359,165,cs),
(353,165,o),
(349,149,o),
(328,137,c),
(305,114,o),
(263,97,o),
(200,42,c),
(167,79,o),
(167,93,o),
(160,110,c),
(154,119,o),
(150,129,o),
(150,136,cs)
);
},
{
closed = 1;
nodes = (
(189,-195,o),
(129,-228,o),
(117,-242,c),
(78,-262,o),
(66,-260,o),
(57,-264,c),
(42,-264,o),
(34,-258,o),
(28,-243,c),
(28,-237,o),
(29,-232,o),
(37,-223,c),
(42,-193,o),
(99,-141,o),
(106,-125,c),
(132,-114,o),
(147,-74,o),
(160,-74,cs),
(169,-74,o),
(189,-116,o),
(189,-141,cs)
);
}
);
};
layerId = "72D6EBAE-348E-4815-8C4B-BB37FFEA201C";
name = "3 janv. 25 à 08:11";
shapes = (
{
closed = 0;
nodes = (
(0,111,l),
(5,116,ls),
(137,248,o),
(195,295,o),
(276,355,c),
(273,359,l),
(208,333,o),
(86,253,o),
(86,150,cs),
(86,22,o),
(257,-41,o),
(257,-128,cs),
(257,-202,o),
(117,-315,o),
(45,-315,cs),
(19,-315,o),
(6,-301,o),
(6,-279,cs),
(6,-204,o),
(185,-18,o),
(307,104,cs),
(314,111,l)
);
}
);
width = 314;
}
);
unicode = 103;
},
{
glyphname = h;
kernLeft = h;
kernRight = n;
layers = (
{
anchors = (
{
name = bottom;
pos = (194,0);
},
{
name = center;
pos = (150,366);
},
{
name = top;
pos = (339,650);
}
);
layerId = "7B26D558-51A9-4DA4-9A20-DDCE4917C78D";
shapes = (
{
closed = 0;
nodes = (
(0,111,l),
(32,143,ls),
(201,312,o),
(332,539,o),
(332,623,cs),
(332,635,o),
(329,641,o),
(319,641,cs),
(237,641,o),
(49,229,o),
(49,21,cs),
(49,-5,o),
(52,-26,o),
(63,-26,cs),
(93,-26,o),
(188,187,o),
(217,187,cs),
(240,187,o),
(259,56,o),
(300,56,cs),
(316,56,o),
(342,76,o),
(362,96,cs),
(377,111,l)
);
}
);
width = 377;
}
);
unicode = 104;
},
{
glyphname = hbar;
kernLeft = h;
kernRight = h;
layers = (
{
layerId = "7B26D558-51A9-4DA4-9A20-DDCE4917C78D";
shapes = (
{
ref = h;
},
{
closed = 0;
nodes = (
(358,442,l),
(272,445,o),
(164,437,o),
(86,426,c)
);
}
);
width = 377;
}
);
unicode = 295;
},
{
glyphname = i;
kernLeft = i;
kernRight = i;
layers = (
{
background = {
shapes = (
{
closed = 0;
nodes = (
(151,362,l),
(169,403,o),
(190,459,o),
(202,503,c)
);
}
);
};
layerId = "7B26D558-51A9-4DA4-9A20-DDCE4917C78D";
shapes = (
{
closed = 0;
nodes = (
(146,362,l),
(164,403,o),
(185,459,o),
(197,503,c)
);
},
{
ref = idotless;
}
);
width = 286;
}
);
unicode = 105;
},
{
glyphname = idotless;
kernLeft = i;
kernRight = i;
layers = (
{
anchors = (
{
name = bottom;
pos = (127,0);
},
{
name = ogonek;
pos = (188,40);
},
{
name = top;
pos = (149,255);
}
);
layerId = "7B26D558-51A9-4DA4-9A20-DDCE4917C78D";
shapes = (
{
closed = 0;
nodes = (
(0,111,l),
(8,119,ls),
(37,147,o),
(74,191,o),
(106,231,c)
);
},
{
closed = 0;
nodes = (
(106,231,l),
(108,231,l)
);
},
{
closed = 0;
nodes = (
(108,231,l),
(114,173,o),
(127,40,o),
(185,40,cs),
(208,40,o),
(236,61,o),
(263,88,cs),
(286,111,l)
);
}
);
width = 286;
}
);
unicode = 305;
},
{
glyphname = ij;
kernLeft = i;
kernRight = j;
layers = (
{
layerId = "7B26D558-51A9-4DA4-9A20-DDCE4917C78D";
shapes = (
{
closed = 0;
nodes = (
(146,362,l),
(164,403,o),
(185,459,o),
(197,503,c)
);
},
{
closed = 0;
nodes = (
(0,111,l),
(8,119,ls),
(37,147,o),
(74,191,o),
(106,231,c),
(108,231,l),
(114,173,o),
(127,40,o),
(185,40,cs),
(205,40,o),
(250,76,o),
(305,133,cs),
(355,184,o),
(413,253,o),
(468,327,c),
(471,326,l),
(443,100,o),
(375,-337,o),
(286,-337,cs),
(268,-337,o),
(266,-319,o),
(266,-305,cs),
(266,-224,o),
(338,-125,o),
(488,25,cs),
(574,111,l)
);
},
{
closed = 0;
nodes = (
(498,474,l),
(512,518,o),
(525,572,o),
(534,617,c)
);
}
);
width = 574;
}
);
unicode = 307;
},
{
glyphname = j;
kernLeft = j;
kernRight = j;
layers = (
{
layerId = "7B26D558-51A9-4DA4-9A20-DDCE4917C78D";
shapes = (
{
closed = 0;
nodes = (
(0,111,l),
(35,146,ls),
(94,205,o),
(149,265,o),
(202,327,c),
(205,326,l),
(177,100,o),
(109,-337,o),
(20,-337,cs),
(2,-337,o),
(0,-319,o),
(0,-305,cs),
(0,-224,o),
(72,-125,o),
(222,25,cs),
(308,111,l)
);
},
{
closed = 0;
nodes = (
(230,474,l),
(244,518,o),
(257,572,o),
(266,617,c)
);
}
);
width = 308;
}
);
unicode = 106;
},
{
glyphname = jdotless;
kernLeft = j;
kernRight = j;
layers = (
{
anchors = (
{
name = bottom;
pos = (154,-350);
},
{
name = top;
pos = (231,327);
}
);
layerId = "7B26D558-51A9-4DA4-9A20-DDCE4917C78D";
shapes = (
{
closed = 0;
nodes = (
(0,111,l),
(35,146,ls),
(94,205,o),
(149,265,o),
(202,327,c),
(205,326,l),
(177,100,o),
(109,-337,o),
(20,-337,cs),
(2,-337,o),
(0,-319,o),
(0,-305,cs),
(0,-224,o),
(72,-125,o),
(222,25,cs),
(308,111,l)
);
}
);
width = 308;
}
);
unicode = 567;
},
{
glyphname = k;
kernLeft = h;
kernRight = k;
layers = (
{
anchors = (
{
name = bottom;
pos = (206,20);
},
{
name = top;
pos = (282,580);
}
);
layerId = "7B26D558-51A9-4DA4-9A20-DDCE4917C78D";
name = Regular;
shapes = (
{
attr = {
lineCapEnd = "1";
lineCapStart = "1";
};
closed = 0;
nodes = (
(216,171,l),
(243,115,o),
(286,56,o),
(324,56,cs),
(342,56,o),
(361,69,o),
(386,94,cs),
(403,111,l)
);
},
{
attr = {
lineCapEnd = "1";
lineCapStart = "1";
};
closed = 0;
nodes = (
(0,111,l),
(14,125,ls),
(164,275,o),
(235,496,o),
(250,567,cs),
(253,581,o),
(253,590,o),
(250,590,cs),
(248,590,o),
(245,585,o),
(238,567,cs),
(206,492,o),
(138,265,o),
(98,109,cs),
(85,57,o),
(78,13,o),
(78,-11,cs),
(78,-27,o),
(81,-34,o),
(87,-34,cs),
(123,-34,o),
(278,218,o),
(344,357,c)
);
}
);
width = 403;
}
);
unicode = 107;
},
{
glyphname = l;
kernLeft = h;
kernRight = l;
layers = (
{
anchors = (
{
name = bottom;
pos = (147,0);
},
{
name = center;
pos = (147,325);
},
{
name = top;
pos = (147,650);
},
{
name = topright;
pos = (273,650);
}
);
associatedMasterId = "7B26D558-51A9-4DA4-9A20-DDCE4917C78D";
background = {
shapes = (
{
closed = 1;
nodes = (
(330,705,o),
(325,730,o),
(284,730,c),
(262,722,l),
(243,699,o),
(224,693,o),
(190,629,c),
(187,617,o),
(157,582,o),
(145,534,c),
(134,519,o),
(111,466,o),
(106,446,c),
(96,431,o),
(87,379,o),
(79,360,c),
(78,334,o),
(63,308,o),
(63,246,c),
(61,244,o),
(59,242,o),
(59,216,c),
(40,196,o),
(8,161,o),
(0,155,c),
(0,119,ls),
(0,100,o),
(-5,95,o),
(-5,92,c),
(-5,90,o),
(-4,88,o),
(-1,88,cs),
(6,88,o),
(11,109,o),
(63,141,c),
(72,85,o),
(89,74,o),
(90,66,c),
(104,56,o),
(122,29,o),
(153,29,cs),
(164,29,l),
(168,27,o),
(176,24,o),
(184,24,cs),
(216,24,o),
(279,56,o),
(304,74,c),
(324,82,o),
(331,86,o),
(335,89,c),
(338,91,o),
(338,152,o),
(338,160,c),
(275,135,o),
(263,104,o),
(216,104,cs),
(172,104,o),
(148,137,o),
(145,154,c),
(139,159,o),
(132,193,o),
(132,214,c),
(139,228,o),
(149,229,o),
(156,243,cs),
(173,277,o),
(244,372,o),
(247,398,cs),
(249,413,o),
(284,449,o),
(291,503,c),
(299,511,o),
(304,545,o),
(311,552,c),
(311,590,o),
(330,609,o),
(330,669,cs)
);
},
{
closed = 1;
nodes = (
(190,486,o),
(216,512,o),
(219,527,c),
(230,535,o),
(250,561,o),
(255,561,c),
(255,553,o),
(247,545,o),
(247,514,c),
(235,495,o),
(223,428,o),
(202,405,c),
(167,348,o),
(156,313,o),
(140,313,c),
(140,346,o),
(161,370,o),
(161,397,c),
(170,399,o),
(190,453,o),
(190,462,cs)
);
}
);
};
layerId = "79800554-1CC8-45A9-A8AE-4598740BCAD7";
name = "30 déc. 24 à 01:08";
shapes = (
{
closed = 0;
nodes = (
(0,111,l),
(12,123,ls),
(194,305,o),
(272,504,o),
(272,586,cs),
(272,604,o),
(268,620,o),
(254,620,cs),
(197,620,o),
(88,330,o),
(88,176,cs),
(88,98,o),
(113,33,o),
(168,33,cs),
(199,33,o),
(236,54,o),
(276,94,cs),
(293,111,l)
);
}
);
width = 293;
},
{
anchors = (
{
name = bottom;
pos = (125,28);
},
{
name = center;
pos = (142,150);
},
{
name = top;
pos = (299,633);
},
{
name = topright;
pos = (353,610);
}
);
layerId = "7B26D558-51A9-4DA4-9A20-DDCE4917C78D";
name = Regular;
shapes = (
{
closed = 0;
nodes = (
(0,111,l),
(12,123,ls),
(194,305,o),
(273,504,o),
(273,587,cs),
(273,606,o),
(269,620,o),
(258,620,cs),
(203,620,o),
(94,277,o),
(94,127,cs),
(94,81,o),
(104,28,o),
(151,28,cs),
(184,28,o),
(226,54,o),
(266,94,cs),
(283,111,l)
);
}
);
width = 283;
}
);
unicode = 108;
},
{
glyphname = lslash;
kernLeft = h;
kernRight = l;
layers = (
{
layerId = "7B26D558-51A9-4DA4-9A20-DDCE4917C78D";
shapes = (
{
ref = l;
},
{
closed = 0;
nodes = (
(27,242,l),
(115,289,o),
(210,346,o),
(288,399,c)
);
}
);
width = 283;
}
);
unicode = 322;
},
{
glyphname = m;
kernLeft = n;
kernRight = n;
layers = (
{
layerId = "7B26D558-51A9-4DA4-9A20-DDCE4917C78D";
shapes = (
{
attr = {
lineCapEnd = 1;
lineCapStart = 1;
};
closed = 0;
nodes = (
(0,111,l),
(17,128,ls),
(84,195,o),
(142,254,o),
(160,254,cs),
(164,254,o),
(166,251,o),
(166,247,cs),
(166,228,o),
(145,177,o),
(125,126,cs),
(103,75,o),
(82,25,o),
(82,9,cs),
(82,6,o),
(83,4,o),
(85,4,cs),
(98,4,o),
(153,75,o),
(214,146,cs),
(273,214,o),
(335,282,o),
(359,282,cs),
(366,282,o),
(369,276,o),
(369,265,cs),
(369,238,o),
(351,181,o),
(333,128,cs),
(311,69,o),
(290,12,o),
(290,-3,cs),
(290,-6,o),
(291,-7,o),
(292,-7,cs),
(300,-7,o),
(345,54,o),
(394,107,cs),
(436,152,o),
(479,191,o),
(503,191,cs),
(525,191,o),
(541,157,o),
(555,122,cs),
(568,89,o),
(581,56,o),
(605,56,cs),
(624,56,o),
(644,76,o),
(663,95,cs),
(679,111,l)
);
}
);
width = 679;
},
{
associatedMasterId = "7B26D558-51A9-4DA4-9A20-DDCE4917C78D";
background = {
shapes = (
{
closed = 1;
nodes = (
(409,332,o),
(402,340,o),
(387,340,cs),
(360,340,o),
(344,326,o),
(301,281,c),
(276,264,o),
(228,203,o),
(218,202,c),
(215,194,o),
(202,187,o),
(199,187,cs),
(195,187,o),
(194,190,o),
(194,196,cs),
(194,207,o),
(202,215,o),
(202,237,c),
(210,252,o),
(211,272,o),
(211,293,cs),
(211,315,o),
(206,322,o),
(184,322,cs),
(168,322,o),
(150,312,o),
(146,305,c),
(132,300,o),
(93,253,o),
(86,251,c),
(78,231,o),
(-2,167,o),
(-2,149,cs),
(-2,135,o),
(-1,117,o),
(-1,93,c),
(24,93,o),
(62,176,o),
(92,176,cs),
(95,176,o),
(99,171,o),
(99,166,cs),
(99,147,o),
(60,49,o),
(60,16,cs),
(60,11,o),
(69,0,o),
(87,0,cs),
(109,0,o),
(128,44,o),
(139,44,c),
(173,92,o),
(198,103,o),
(238,156,c),
(269,172,o),
(276,200,o),
(302,200,cs),
(309,200,o),
(312,198,o),
(312,186,c),
(304,162,o),
(299,106,o),
(292,99,c),
(290,86,o),
(268,20,o),
(268,5,cs),
(268,1,o),
(277,-5,o),
(282,-12,c),
(313,-12,o),
(322,0,o),
(352,36,cs),
(369,57,o),
(382,59,o),
(387,75,c),
(398,81,o),
(402,107,o),
(463,142,c),
(507,142,o),
(526,87,o),
(547,73,c),
(554,64,o),
(582,49,o),
(597,49,cs),
(630,49,o),
(650,68,o),
(656,70,c),
(667,88,o),
(679,90,o),
(679,104,cs),
(679,115,o),
(677,124,o),
(677,130,cs),
(677,142,o),
(678,157,o),
(678,163,c),
(659,162,o),
(651,129,o),
(626,129,cs),
(596,129,o),
(592,169,o),
(576,185,c),
(567,214,o),
(554,234,o),
(532,244,c),
(479,244,o),
(474,224,o),
(417,180,c),
(413,171,o),
(402,158,o),
(392,154,c),
(392,176,o),
(396,180,o),
(398,192,c),
(400,200,o),
(400,213,o),
(404,218,c),
(404,252,o),
(413,292,o),
(413,299,c)
);
}
);
};
layerId = "DA313880-4FB8-405E-A70A-1AED166DF4F3";
name = "19 oct. 23 à 19:32";
shapes = (
{
attr = {
lineCapEnd = 1;
lineCapStart = 1;
};
closed = 0;
nodes = (
(0,111,l),
(17,128,ls),
(84,195,o),
(140,254,o),
(160,254,cs),
(164,254,o),
(166,251,o),
(166,247,cs),
(166,228,o),
(145,177,o),
(125,126,cs),
(99,65,o),
(74,4,o),
(85,4,cs),
(92,4,o),
(152,72,o),
(216,141,cs),
(280,210,o),
(347,282,o),
(372,282,cs),
(379,282,o),
(382,276,o),
(382,265,cs),
(382,238,o),
(363,181,o),
(345,128,cs),
(319,59,o),
(293,-7,o),
(302,-7,cs),
(314,-7,o),
(465,191,o),
(517,191,cs),
(538,191,o),
(552,157,o),
(565,122,cs),
(578,89,o),
(590,56,o),
(615,56,cs),
(634,56,o),
(654,76,o),
(673,95,cs),
(689,111,l)
);
}
);
width = 689;
}
);
unicode = 109;
},
{
glyphname = n;
kernLeft = n;
kernRight = n;
layers = (
{
anchors = (
{
name = bottom;
pos = (255,24);
},
{
name = top;
pos = (353,248);
}
);
layerId = "7B26D558-51A9-4DA4-9A20-DDCE4917C78D";
name = Regular;
shapes = (
{
attr = {
lineCapEnd = 1;
lineCapStart = 1;
};
closed = 0;
nodes = (
(0,111,l),
(12,123,ls),
(64,175,o),
(150,269,o),
(176,269,cs),
(182,269,o),
(186,264,o),
(186,253,cs),
(185,212,o),
(132,95,o),
(108,30,cs),
(100,9,o),
(95,-7,o),
(95,-15,cs),
(95,-19,o),
(96,-21,o),
(99,-21,cs),
(114,-21,o),
(168,46,o),
(224,106,cs),
(272,158,o),
(319,202,o),
(343,202,cs),
(389,202,o),
(384,57,o),
(428,57,cs),
(445,57,o),
(468,79,o),
(492,103,cs),
(500,111,l)
);
}
);
width = 500;
},
{
anchors = (
{
name = bottom;
pos = (250,4);
},
{
name = top;
pos = (333,311);
}
);
associatedMasterId = "7B26D558-51A9-4DA4-9A20-DDCE4917C78D";
background = {
shapes = (
{
closed = 1;
nodes = (
(219,308,o),
(205,334,o),
(181,334,cs),
(168,334,o),
(157,323,o),
(137,319,c),
(124,316,o),
(113,285,o),
(56,233,c),
(52,222,o),
(2,170,o),
(-4,150,c),
(0,140,o),
(0,133,o),
(0,111,c),
(-4,105,o),
(-3,95,o),
(-5,92,c),
(-4,90,o),
(-3,88,o),
(-1,88,c),
(3,88,o),
(9,97,o),
(13,102,c),
(16,104,o),
(55,143,o),
(68,162,c),
(72,169,o),
(81,180,o),
(98,180,cs),
(101,180,o),
(104,178,o),
(104,175,cs),
(104,168,o),
(96,149,o),
(96,143,cs),
(96,110,o),
(76,86,o),
(76,69,cs),
(76,56,o),
(71,48,o),
(70,44,c),
(70,40,o),
(61,17,o),
(61,7,cs),
(61,2,o),
(62,-2,o),
(62,-6,cs),
(62,-11,o),
(61,-13,o),
(61,-17,cs),
(61,-33,o),
(66,-36,o),
(86,-36,cs),
(94,-36,o),
(120,-36,o),
(127,-20,c),
(132,-7,o),
(190,34,o),
(215,82,c),
(246,102,o),
(282,148,o),
(300,148,cs),
(306,148,o),
(317,138,o),
(320,125,c),
(351,108,o),
(358,38,o),
(405,38,cs),
(432,38,o),
(462,60,o),
(495,103,c),
(492,120,o),
(491,137,o),
(491,162,c),
(471,152,o),
(469,128,o),
(446,128,cs),
(415,128,o),
(414,182,o),
(399,201,c),
(397,216,o),
(383,224,o),
(375,243,c),
(363,248,o),
(351,250,o),
(338,250,cs),
(307,250,o),
(289,224,o),
(276,217,c),
(242,177,o),
(225,173,o),
(185,120,c),
(181,111,o),
(175,109,o),
(173,109,c),
(171,109,o),
(171,111,o),
(171,113,c),
(171,132,o),
(200,188,o),
(200,208,c),
(209,220,o),
(219,269,o),
(219,286,cs)
);
},
{
attr = {
lineCapEnd = 1;
lineCapStart = 1;
};
closed = 0;
nodes = (
(0,111,l),
(12,123,ls),
(64,175,o),
(142,259,o),
(166,259,cs),
(172,259,o),
(176,254,o),
(176,243,cs),
(175,202,o),
(129,95,o),
(106,30,cs),
(99,9,o),
(94,-7,o),
(94,-15,cs),
(94,-19,o),
(96,-21,o),
(98,-21,cs),
(120,-21,o),
(275,200,o),
(335,200,cs),
(384,200,o),
(385,57,o),
(428,57,cs),
(445,57,o),
(468,79,o),
(492,103,cs),
(500,111,l)
);
}
);
};
layerId = "7D106FFB-B943-4DAA-BAEB-B87AB75C178A";
name = "15 oct. 23 à 14:46";
shapes = (
{
attr = {
lineCapEnd = 1;
lineCapStart = 1;
};
closed = 0;
nodes = (
(0,111,l),
(12,123,ls),
(64,175,o),
(152,269,o),
(176,269,cs),
(182,269,o),
(186,264,o),
(186,253,cs),
(185,212,o),
(129,95,o),
(106,30,cs),
(99,9,o),
(94,-7,o),
(94,-15,cs),
(94,-19,o),
(96,-21,o),
(98,-21,cs),
(110,-21,o),
(158,43,o),
(210,104,cs),
(257,158,o),
(307,210,o),
(335,210,cs),
(360,210,o),
(372,171,o),
(384,133,cs),
(396,95,o),
(407,57,o),
(428,57,cs),
(445,57,o),
(468,79,o),
(492,103,cs),
(500,111,l)
);
}
);
width = 500;
}
);
unicode = 110;
},
{
glyphname = o;
kernLeft = o;
kernRight = o;
layers = (
{
anchors = (
{
name = bottom;
pos = (198,5);
},
{
name = center;
pos = (198,182);
},
{
name = top;
pos = (278,270);
}
);
layerId = "7B26D558-51A9-4DA4-9A20-DDCE4917C78D";
name = Regular;
shapes = (
{
closed = 0;
nodes = (
(162,186,l),
(183,236,o),
(223,270,o),
(262,270,cs),
(297,270,o),
(313,243,o),
(312,204,cs),
(310,106,o),
(204,0,o),
(131,0,cs),
(98,0,o),
(75,22,o),
(75,68,cs),
(75,130,o),
(118,211,o),
(185,285,c),
(103,215,o),
(57,168,o),
(19,130,cs),
(0,111,l)
);
},
{
attr = {
lineCapEnd = "1";
lineCapStart = "1";
};
closed = 0;
nodes = (
(285,24,l),
(316,45,o),
(344,68,o),
(376,100,cs),
(387,111,l)
);
}
);
width = 387;
},
{
anchors = (
{
name = bottom;
pos = (198,5);
},
{
name = center;
pos = (198,182);
},
{
name = top;
pos = (244,288);
}
);
associatedMasterId = "7B26D558-51A9-4DA4-9A20-DDCE4917C78D";
background = {
shapes = (
{
closed = 1;
nodes = (
(-5,132,l),
(-3,130,o),
(-2,127,o),
(-2,123,cs),
(-2,119,o),
(-3,112,o),
(-5,107,c),
(-5,89,l),
(11,92,o),
(36,134,o),
(61,137,c),
(61,121,o),
(54,120,o),
(54,92,cs),
(54,80,o),
(52,77,o),
(52,65,cs),
(52,46,o),
(63,21,o),
(87,12,c),
(93,2,o),
(97,-1,o),
(141,-6,c),
(150,-2,o),
(185,-2,o),
(197,8,cs),
(204,14,o),
(246,29,o),
(261,58,c),
(298,82,o),
(265,68,o),
(314,111,c),
(325,145,o),
(363,155,o),
(363,259,cs),
(363,268,o),
(355,276,o),
(351,291,c),
(337,300,o),
(338,322,o),
(282,322,cs),
(263,322,o),
(248,308,o),
(233,307,c),
(233,321,o),
(245,330,o),
(245,334,cs),
(245,340,o),
(236,346,o),
(205,346,cs),
(196,346,o),
(157,302,o),
(130,279,c),
(116,276,o),
(108,254,o),
(102,251,c),
(5,168,o),
(5,158,o),
(-5,150,c)
);
},
{
closed = 1;
nodes = (
(142,131,o),
(170,177,o),
(175,177,cs),
(209,177,o),
(205,232,o),
(257,232,cs),
(282,232,o),
(289,214,o),
(289,192,cs),
(289,165,o),
(275,160,o),
(275,146,cs),
(275,136,o),
(264,123,o),
(254,118,c),
(244,99,o),
(186,60,o),
(169,60,cs),
(151,60,o),
(142,71,o),
(142,89,cs)
);
},
{
closed = 1;
nodes = (
(304,30,o),
(307,28,o),
(315,28,cs),
(325,28,o),
(338,45,o),
(360,55,c),
(403,92,o),
(428,88,o),
(428,124,c),
(423,124,o),
(423,162,o),
(413,162,cs),
(407,162,o),
(405,147,o),
(378,129,c),
(366,103,o),
(353,104,o),
(331,75,c),
(321,67,o),
(304,46,o),
(304,37,cs)
);
},
{
closed = 0;
nodes = (
(163,197,l),
(182,247,o),
(226,280,o),
(266,280,cs),
(301,280,o),
(317,254,o),
(316,214,cs),
(314,111,o),
(204,0,o),
(127,0,cs),
(95,0,o),
(71,20,o),
(71,70,cs),
(71,141,o),
(117,211,o),
(183,286,c)
);
},
{
closed = 0;
nodes = (
(306,38,l),
(333,59,o),
(357,81,o),
(376,100,cs),
(387,111,l)
);
},
{
closed = 0;
nodes = (
(183,286,l),
(103,214,o),
(57,168,o),
(19,130,cs),
(0,111,l)
);
}
);
};
layerId = "D171BEFC-DC31-4BFC-8AFB-F25AD2508F47";
name = "27 déc. 24 à 19:16";
shapes = (
{
closed = 0;
nodes = (
(168,197,l),
(187,247,o),
(230,280,o),
(270,280,cs),
(305,280,o),
(321,254,o),
(320,216,cs),
(318,117,o),
(205,0,o),
(132,0,cs),
(98,0,o),
(75,22,o),
(75,68,cs),
(75,131,o),
(118,211,o),
(185,287,c),
(103,215,o),
(57,168,o),
(19,130,cs),
(0,111,l)
);
},
{
attr = {
lineCapEnd = "1";
lineCapStart = "1";
};
closed = 0;
nodes = (
(275,20,l),
(312,43,o),
(342,66,o),
(376,100,cs),
(387,111,l)
);
}
);
width = 387;
},
{
anchors = (
{
name = bottom;
pos = (198,5);
},
{
name = center;
pos = (198,182);
},
{
name = top;
pos = (244,288);
}
);
associatedMasterId = "7B26D558-51A9-4DA4-9A20-DDCE4917C78D";
background = {
shapes = (
{
attr = {
lineCapEnd = "1";
lineCapStart = "1";
};
closed = 0;
nodes = (
(130,157,l),
(158,207,o),
(196,226,o),
(232,226,cs),
(277,226,o),
(303,197,o),
(303,157,cs),
(303,78,o),
(201,-27,o),
(123,-27,cs),
(87,-27,o),
(59,-4,o),
(59,50,cs),
(59,115,o),
(99,189,o),
(171,263,c),
(98,205,o),
(57,168,o),
(19,130,cs),
(0,111,l)
);
},
{
attr = {
lineCapEnd = "1";
lineCapStart = "1";
};
closed = 0;
nodes = (
(275,20,l),
(312,43,o),
(342,66,o),
(376,100,cs),
(387,111,l)
);
},
{
closed = 1;
nodes = (
(-5,132,l),
(-3,130,o),
(-2,127,o),
(-2,123,cs),
(-2,119,o),
(-3,112,o),
(-5,107,c),
(-5,89,l),
(11,92,o),
(36,134,o),
(61,137,c),
(61,121,o),
(54,120,o),
(54,92,cs),
(54,80,o),
(52,77,o),
(52,65,cs),
(52,46,o),
(63,21,o),
(87,12,c),
(93,2,o),
(97,-1,o),
(141,-6,c),
(150,-2,o),
(185,-2,o),
(197,8,cs),
(204,14,o),
(246,29,o),
(261,58,c),
(298,82,o),
(265,68,o),
(314,111,c),
(325,145,o),
(363,155,o),
(363,259,cs),
(363,268,o),
(355,276,o),
(351,291,c),
(337,300,o),
(338,322,o),
(282,322,cs),
(263,322,o),
(248,308,o),
(233,307,c),
(233,321,o),
(245,330,o),
(245,334,cs),
(245,340,o),
(236,346,o),
(205,346,cs),
(196,346,o),
(157,302,o),
(130,279,c),
(116,276,o),
(108,254,o),
(102,251,c),
(5,168,o),
(5,158,o),
(-5,150,c)
);
},
{
closed = 1;
nodes = (
(142,131,o),
(170,177,o),
(175,177,cs),
(209,177,o),
(205,232,o),
(257,232,cs),
(282,232,o),
(289,214,o),
(289,192,cs),
(289,165,o),
(275,160,o),
(275,146,cs),
(275,136,o),
(264,123,o),
(254,118,c),
(244,99,o),
(186,60,o),
(169,60,cs),
(151,60,o),
(142,71,o),
(142,89,cs)
);
},
{
closed = 1;
nodes = (
(304,30,o),
(307,28,o),
(315,28,cs),
(325,28,o),
(338,45,o),
(360,55,c),
(403,92,o),
(428,88,o),
(428,124,c),
(423,124,o),
(423,162,o),
(413,162,cs),
(407,162,o),
(405,147,o),
(378,129,c),
(366,103,o),
(353,104,o),
(331,75,c),
(321,67,o),
(304,46,o),
(304,37,cs)
);
}
);
};
layerId = "8AB32E34-BED3-4C7F-A308-B2CDBE84A8D8";
name = "27 déc. 24 à 19:16";
shapes = (
{
attr = {
lineCapEnd = 1;
lineCapStart = 1;
};
closed = 0;
nodes = (
(130,157,l),
(158,211,o),
(196,231,o),
(231,231,cs),
(275,231,o),
(300,200,o),
(300,159,cs),
(300,78,o),
(200,-27,o),
(123,-27,cs),
(87,-27,o),
(59,-4,o),
(59,50,cs),
(59,115,o),
(99,189,o),
(171,263,c)
);
},
{
attr = {
lineCapEnd = 1;
lineCapStart = 1;
};
closed = 0;
nodes = (
(275,20,l),
(312,43,o),
(342,66,o),
(376,100,cs),
(387,111,l)
);
},
{
attr = {
lineCapEnd = 1;
lineCapStart = 1;
};
closed = 0;
nodes = (
(171,263,l),
(98,205,o),
(57,168,o),
(19,130,cs),
(0,111,l)
);
}
);
width = 387;
}
);
unicode = 111;
},
{
glyphname = oslash;
kernLeft = o;
kernRight = o;
layers = (
{
layerId = "7B26D558-51A9-4DA4-9A20-DDCE4917C78D";
shapes = (
{
ref = o;
},
{
closed = 0;
nodes = (
(48,-40,l),
(143,75,o),
(262,208,o),
(354,300,c)
);
}
);
width = 387;
}
);
unicode = 248;
},
{
glyphname = oe;
kernLeft = o;
kernRight = e;
layers = (
{
associatedMasterId = "7B26D558-51A9-4DA4-9A20-DDCE4917C78D";
background = {
shapes = (
{
closed = 1;
nodes = (
(478,220,o),
(456,219,o),
(449,211,c),
(423,209,o),
(405,190,o),
(388,190,c),
(386,190,o),
(384,191,o),
(384,195,c),
(413,231,o),
(428,236,o),
(438,244,c),
(466,242,o),
(478,238,o),
(478,233,cs)
);
},
{
closed = 1;
nodes = (
(571,114,ls),
(571,122,o),
(567,129,o),
(567,133,cs),
(567,136,o),
(571,141,o),
(571,144,c),
(571,146,o),
(569,147,o),
(566,147,cs),
(553,147,o),
(528,111,o),
(504,100,c),
(479,80,o),
(462,77,o),
(457,72,c),
(442,69,o),
(424,69,o),
(412,69,cs),
(391,69,o),
(367,77,o),
(367,102,cs),
(367,115,o),
(367,120,o),
(365,130,c),
(386,150,o),
(422,151,o),
(460,165,c),
(486,178,o),
(509,201,o),
(530,209,c),
(541,225,o),
(558,236,o),
(558,240,cs),
(558,253,o),
(562,257,o),
(562,271,cs),
(562,311,o),
(536,329,o),
(496,329,cs),
(474,329,o),
(463,321,o),
(439,310,c),
(393,298,o),
(380,264,o),
(366,263,cs),
(354,262,o),
(352,252,o),
(342,252,cs),
(334,252,o),
(305,273,o),
(270,287,c),
(250,290,o),
(234,299,o),
(217,299,cs),
(200,299,o),
(175,297,o),
(175,268,c),
(117,266,o),
(115,226,o),
(72,207,c),
(31,162,o),
(-5,140,o),
(-5,130,cs),
(-5,106,o),
(-2,98,o),
(-2,85,c),
(-3,82,o),
(-4,78,o),
(-4,75,cs),
(-4,72,o),
(-3,71,o),
(0,71,cs),
(5,71,o),
(55,127,o),
(70,127,cs),
(73,127,o),
(74,125,o),
(74,122,cs),
(74,118,o),
(65,115,o),
(65,68,cs),
(65,55,o),
(65,43,o),
(67,31,c),
(70,18,o),
(74,5,o),
(85,-5,c),
(89,-18,o),
(119,-32,o),
(144,-35,c),
(177,-35,o),
(211,-16,o),
(223,2,c),
(267,15,o),
(269,48,o),
(282,48,cs),
(296,48,o),
(301,13,o),
(356,-10,c),
(367,-11,o),
(379,-11,o),
(387,-11,cs),
(403,-11,o),
(412,-11,o),
(426,-6,c),
(459,-6,o),
(508,38,o),
(535,54,c),
(546,61,o),
(562,73,o),
(571,88,c)
);
},
{
closed = 1;
nodes = (
(140,31,o),
(148,67,o),
(141,76,c),
(141,84,o),
(141,89,o),
(144,91,c),
(144,136,o),
(185,219,o),
(196,219,cs),
(206,219,o),
(232,183,o),
(253,183,cs),
(273,183,o),
(274,166,o),
(285,159,c),
(285,115,o),
(240,85,o),
(237,71,c),
(233,55,o),
(230,54,o),
(219,52,cs),
(214,51,o),
(190,31,o),
(171,31,cs)
);
}
);
};
layerId = "AC48F385-2481-4F92-995D-81295B1E6715";
name = "3 janv. 25 à 08:22";
shapes = (
{
attr = {
lineCapEnd = 1;
lineCapStart = 1;
};
closed = 0;
nodes = (
(0,111,l),
(9,120,ls),
(42,153,o),
(83,187,o),
(142,230,c)
);
},
{
attr = {
lineCapEnd = 1;
lineCapStart = 1;
};
closed = 0;
nodes = (
(142,230,l),
(102,171,o),
(66,100,o),
(66,42,cs),
(66,-5,o),
(91,-27,o),
(125,-27,cs),
(200,-27,o),
(291,85,o),
(291,158,cs),
(291,220,o),
(225,259,o),
(193,259,cs),
(182,259,o),
(176,254,o),
(176,246,cs),
(176,217,o),
(242,158,o),
(330,158,cs),
(414,158,o),
(484,211,o),
(484,253,cs),
(484,269,o),
(474,281,o),
(449,281,cs),
(384,281,o),
(299,202,o),
(299,108,cs),
(299,45,o),
(338,9,o),
(389,9,cs),
(429,9,o),
(475,30,o),
(551,106,cs),
(556,111,l)
);
}
);
width = 556;
},
{
layerId = "7B26D558-51A9-4DA4-9A20-DDCE4917C78D";
name = Regular;
shapes = (
{
attr = {
lineCapEnd = 1;
lineCapStart = 1;
};
closed = 0;
nodes = (
(0,111,l),
(9,120,ls),
(42,153,o),
(97,206,o),
(151,252,c)
);
},
{
attr = {
lineCapEnd = 1;
lineCapStart = 1;
};
closed = 0;
nodes = (
(151,252,l),
(113,191,o),
(90,129,o),
(90,76,cs),
(90,25,o),
(112,-6,o),
(148,-6,cs),
(210,-6,o),
(298,88,o),
(298,168,cs),
(298,240,o),
(226,270,o),
(193,270,cs),
(181,270,o),
(177,265,o),
(177,259,cs),
(177,229,o),
(276,179,o),
(368,179,cs),
(448,179,o),
(518,215,o),
(518,252,cs),
(518,269,o),
(503,282,o),
(478,282,cs),
(414,282,o),
(299,202,o),
(299,99,cs),
(299,45,o),
(331,9,o),
(383,9,cs),
(421,9,o),
(469,28,o),
(526,87,cs),
(549,111,l)
);
}
);
width = 549;
}
);
unicode = 339;
},
{
glyphname = p;
kernLeft = p;
kernRight = n;
layers = (
{
layerId = "7B26D558-51A9-4DA4-9A20-DDCE4917C78D";
name = Regular;
shapes = (
{
closed = 0;
nodes = (
(0,111,l),
(5,116,ls),
(67,178,o),
(138,276,o),
(185,387,c)
);
},
{
closed = 0;
nodes = (
(185,387,l),
(105,178,o),
(62,-55,o),
(34,-268,c),
(39,-270,l),
(93,-70,o),
(179,207,o),
(233,207,cs),
(270,207,o),
(303,79,o),
(348,79,cs),
(360,79,o),
(375,88,o),
(392,105,cs),
(398,111,l)
);
}
);
width = 398;
},
{
associatedMasterId = "7B26D558-51A9-4DA4-9A20-DDCE4917C78D";
background = {
shapes = (
{
closed = 1;
nodes = (
(213,238,o),
(210,228,o),
(198,221,c),
(189,198,o),
(169,179,o),
(139,94,c),
(126,68,o),
(126,44,o),
(110,10,c),
(96,-38,o),
(85,-43,o),
(85,-77,c),
(71,-96,o),
(78,-122,o),
(63,-125,c),
(68,-109,o),
(72,-59,o),
(80,-47,c),
(80,-36,o),
(85,-13,o),
(99,36,c),
(102,63,o),
(140,169,o),
(140,184,c),
(165,234,o),
(166,259,o),
(174,276,c),
(177,299,o),
(187,305,o),
(196,338,c),
(196,352,o),
(217,381,o),
(217,408,cs),
(217,429,o),
(210,454,o),
(198,454,cs),
(187,454,o),
(176,431,o),
(169,427,c),
(160,403,o),
(146,375,o),
(138,366,c),
(134,346,o),
(86,277,o),
(78,262,c),
(75,251,o),
(45,220,o),
(43,201,cs),
(41,181,o),
(-2,158,o),
(-2,150,cs),
(-2,130,o),
(-2,124,o),
(-5,122,c),
(-5,119,o),
(-2,113,o),
(-2,110,cs),
(-2,106,o),
(-5,101,o),
(-5,95,cs),
(-5,92,o),
(-4,90,o),
(0,90,cs),
(10,90,o),
(15,115,o),
(43,126,c),
(43,86,o),
(36,81,o),
(36,63,cs),
(36,55,o),
(29,40,o),
(26,13,c),
(20,-3,o),
(19,-27,o),
(16,-36,c),
(16,-86,o),
(3,-121,o),
(3,-137,c),
(-1,-138,o),
(-1,-206,o),
(-3,-220,c),
(-3,-235,o),
(-2,-261,o),
(-1,-280,c),
(5,-292,o),
(18,-300,o),
(34,-300,cs),
(48,-300,o),
(51,-288,o),
(56,-275,cs),
(61,-261,o),
(75,-253,o),
(78,-214,c),
(88,-197,o),
(109,-139,o),
(110,-118,c),
(120,-99,o),
(147,-28,o),
(147,-8,c),
(162,8,o),
(195,123,o),
(216,123,cs),
(230,123,o),
(271,56,o),
(315,56,cs),
(337,56,o),
(398,86,o),
(398,99,cs),
(398,131,o),
(399,138,o),
(399,145,cs),
(399,151,o),
(397,154,o),
(393,154,cs),
(382,154,o),
(373,130,o),
(344,130,cs),
(328,130,o),
(319,148,o),
(309,154,c),
(296,189,o),
(281,191,o),
(264,225,c),
(250,238,o),
(246,238,o),
(233,238,cs)
);
}
);
};
layerId = "1E9A366A-1775-4151-B9BD-6F4C8F2D4924";
name = "11 févr. 25 à 12:25";
shapes = (
{
closed = 0;
nodes = (
(0,111,l),
(5,116,ls),
(88,199,o),
(138,276,o),
(185,387,c)
);
},
{
closed = 0;
nodes = (
(185,387,l),
(105,178,o),
(62,-55,o),
(34,-268,c),
(39,-270,l),
(93,-70,o),
(179,207,o),
(233,207,cs),
(270,207,o),
(303,79,o),
(348,79,cs),
(360,79,o),
(375,88,o),
(392,105,cs),
(398,111,l)
);
}
);
width = 398;
}
);
unicode = 112;
},
{
glyphname = thorn;
kernLeft = p;
kernRight = o;
layers = (
{
layerId = "7B26D558-51A9-4DA4-9A20-DDCE4917C78D";
shapes = (
{
attr = {
lineCapEnd = 1;
lineCapStart = 1;
};
closed = 0;
nodes = (
(0,111,l),
(5,116,ls),
(33,144,o),
(141,285,o),
(228,574,c)
);
},
{
attr = {
lineCapEnd = 1;
lineCapStart = 1;
};
closed = 0;
nodes = (
(233,572,l),
(121,257,o),
(62,18,o),
(-56,-307,c)
);
},
{
attr = {
lineCapEnd = 1;
lineCapStart = 1;
};
closed = 0;
nodes = (
(290,34,l),
(317,55,o),
(347,81,o),
(366,100,cs),
(377,111,l)
);
},
{
attr = {
lineCapEnd = 1;
lineCapStart = 1;
};
closed = 0;
nodes = (
(228,574,l),
(233,572,l)
);
},
{
attr = {
lineCapEnd = 1;
lineCapStart = 1;
};
closed = 0;
nodes = (
(-53,-307,l),
(83,103,o),
(257,348,o),
(327,348,cs),
(346,348,o),
(351,331,o),
(351,316,cs),
(351,245,o),
(241,7,o),
(111,7,cs),
(99,7,o),
(88,9,o),
(78,12,c)
);
},
{
attr = {
lineCapEnd = 1;
lineCapStart = 1;
};
closed = 0;
nodes = (
(-56,-307,l),
(-53,-307,l)
);
}
);
width = 377;
},
{
associatedMasterId = "7B26D558-51A9-4DA4-9A20-DDCE4917C78D";
background = {
shapes = (
{
closed = 1;
nodes = (
(103,74,o),
(165,133,o),
(191,153,c),
(203,182,o),
(280,270,o),
(311,270,c),
(311,238,o),
(279,208,o),
(248,154,c),
(207,110,o),
(202,85,o),
(153,57,c),
(131,54,o),
(118,42,o),
(110,42,cs),
(107,42,o),
(103,43,o),
(103,50,cs)
);
},
{
closed = 1;
nodes = (
(281,635,o),
(263,676,o),
(240,676,cs),
(221,676,o),
(200,623,o),
(189,578,c),
(160,521,o),
(150,461,o),
(126,405,c),
(112,345,o),
(101,342,o),
(98,330,c),
(82,254,o),
(61,247,o),
(48,201,c),
(44,185,o),
(-6,156,o),
(-6,146,cs),
(-6,131,o),
(-3,122,o),
(-3,110,cs),
(-3,104,o),
(-7,99,o),
(-7,89,c),
(-3,89,l),
(9,94,o),
(13,103,o),
(21,114,c),
(23,112,l),
(17,95,o),
(14,55,o),
(8,40,c),
(0,-14,o),
(-21,-57,o),
(-33,-111,cs),
(-44,-160,o),
(-63,-201,o),
(-67,-223,cs),
(-69,-235,o),
(-100,-315,o),
(-100,-329,cs),
(-100,-334,o),
(-97,-342,o),
(-85,-342,cs),
(-69,-342,o),
(-52,-325,o),
(-49,-324,c),
(-41,-306,o),
(-21,-277,o),
(-21,-258,c),
(-1,-234,o),
(10,-171,o),
(24,-143,cs),
(43,-104,o),
(59,-31,o),
(70,-19,c),
(81,-22,o),
(90,-24,o),
(100,-24,c),
(122,-15,o),
(142,-20,o),
(167,-1,c),
(184,16,o),
(250,65,o),
(261,86,c),
(302,121,o),
(320,139,o),
(323,152,c),
(328,158,o),
(341,178,o),
(343,189,c),
(359,204,o),
(390,283,o),
(390,306,c),
(399,312,o),
(401,340,o),
(401,350,cs),
(401,379,o),
(386,388,o),
(353,388,cs),
(314,388,o),
(251,319,o),
(239,314,c),
(219,279,o),
(201,283,o),
(186,243,c),
(148,209,o),
(136,171,o),
(119,148,c),
(117,150,l),
(136,251,o),
(173,245,o),
(178,301,c),
(189,341,o),
(202,358,o),
(217,405,c),
(258,490,o),
(263,537,o),
(276,564,c),
(278,575,o),
(281,605,o),
(281,611,cs)
);
},
{
closed = 1;
nodes = (
(286,30,o),
(289,28,o),
(297,28,cs),
(307,28,o),
(320,45,o),
(342,55,c),
(385,92,o),
(410,88,o),
(410,124,c),
(405,124,o),
(405,162,o),
(395,162,cs),
(389,162,o),
(387,147,o),
(360,129,c),
(348,103,o),
(335,104,o),
(313,75,c),
(303,67,o),
(286,46,o),
(286,37,cs)
);
}
);
};
layerId = "C98F98AA-34E0-47D9-9F9B-88E11D3A376B";
name = "23 déc. 24 à 00:00";
shapes = (
{
closed = 0;
nodes = (
(0,111,l),
(5,116,ls),
(33,144,o),
(139,285,o),
(226,574,c)
);
},
{
closed = 0;
nodes = (
(231,572,l),
(119,187,o),
(84,92,o),
(-46,-287,c)
);
},
{
closed = 0;
nodes = (
(296,38,l),
(323,59,o),
(347,81,o),
(366,100,cs),
(377,111,l)
);
},
{
closed = 0;
nodes = (
(226,574,l),
(231,572,l)
);
},
{
closed = 0;
nodes = (
(-43,-287,l),
(93,123,o),
(247,348,o),
(325,348,cs),
(346,348,o),
(351,331,o),
(351,317,cs),
(351,248,o),
(236,7,o),
(107,7,cs),
(97,7,o),
(87,8,o),
(77,11,c)
);
},
{
closed = 0;
nodes = (
(-46,-287,l),
(-43,-287,l)
);
}
);
width = 377;
}
);
unicode = 254;
},
{
glyphname = q;
kernLeft = a;
kernRight = q;
layers = (
{
layerId = "7B26D558-51A9-4DA4-9A20-DDCE4917C78D";
name = Regular;
shapes = (
{
attr = {
lineCapEnd = 1;
lineCapStart = 1;
};
closed = 0;
nodes = (
(0,111,l),
(16,127,ls),
(76,187,o),
(161,261,o),
(280,309,c)
);
},
{
attr = {
lineCapEnd = 1;
lineCapStart = 1;
};
closed = 0;
nodes = (
(280,309,l),
(281,307,l)
);
},
{
attr = {
lineCapEnd = 1;
lineCapStart = 1;
};
closed = 0;
nodes = (
(281,307,l),
(135,235,o),
(18,114,o),
(18,38,cs),
(18,13,o),
(31,2,o),
(51,2,cs),
(107,2,o),
(203,88,o),
(281,185,c)
);
},
{
attr = {
lineCapEnd = 1;
lineCapStart = 1;
};
closed = 0;
nodes = (
(281,185,l),
(283,184,l)
);
},
{
attr = {
lineCapEnd = 1;
lineCapStart = 1;
};
closed = 0;
nodes = (
(283,184,l),
(267,16,o),
(233,-140,o),
(180,-314,c)
);
}
);
width = 318;
}
);
unicode = 113;
},
{
glyphname = r;
kernLeft = n;
kernRight = n;
layers = (
{
anchors = (
{
name = bottom;
pos = (47,50);
},
{
name = top;
pos = (217,300);
}
);
layerId = "7B26D558-51A9-4DA4-9A20-DDCE4917C78D";
name = Regular;
shapes = (
{
attr = {
lineCapEnd = 1;
lineCapStart = 1;
};
closed = 0;
nodes = (
(0,111,l),
(29,140,ls),
(50,161,o),
(108,227,o),
(151,295,c)
);
},
{
attr = {
lineCapEnd = 1;
lineCapStart = 1;
};
closed = 0;
nodes = (
(151,295,l),
(107,294,l)
);
},
{
attr = {
lineCapEnd = 1;
lineCapStart = 1;
};
closed = 0;
nodes = (
(107,294,l),
(189,255,o),
(208,225,o),
(208,192,cs),
(208,140,o),
(167,27,o),
(167,-2,cs),
(167,-9,o),
(170,-12,o),
(176,-12,cs),
(200,-12,o),
(263,36,o),
(326,99,cs),
(338,111,l)
);
}
);
width = 338;
}
);
unicode = 114;
},
{
glyphname = s;
kernLeft = s;
kernRight = s;
layers = (
{
anchors = (
{
name = bottom;
pos = (65,-41);
},
{
name = top;
pos = (209,300);
}
);
layerId = "7B26D558-51A9-4DA4-9A20-DDCE4917C78D";
shapes = (
{
closed = 0;
nodes = (
(125,-41,l),
(151,-41,o),
(240,38,o),
(296,94,cs),
(313,111,l)
);
},
{
attr = {
lineCapEnd = "1";
lineCapStart = "1";
};
closed = 0;
nodes = (
(0,111,l),
(17,128,ls),
(70,181,o),
(123,239,o),
(177,307,c)
);
},
{
attr = {
lineCapEnd = "1";
lineCapStart = "1";
};
closed = 0;
nodes = (
(177,307,l),
(182,305,l)
);
},
{
attr = {
lineCapEnd = "1";
lineCapStart = "1";
};
closed = 0;
nodes = (
(182,305,l),
(187,278,o),
(190,242,o),
(190,203,cs),
(191,99,o),
(163,-41,o),
(125,-41,cs),
(97,-41,o),
(87,38,o),
(87,57,c)
);
}
);
width = 313;
},
{
anchors = (
{
name = bottom;
pos = (163,7);
},
{
name = top;
pos = (198,361);
}
);
associatedMasterId = "7B26D558-51A9-4DA4-9A20-DDCE4917C78D";
background = {
shapes = (
{
closed = 1;
nodes = (
(181,356,o),
(116,257,o),
(99,255,c),
(90,243,o),
(78,227,o),
(56,208,c),
(44,189,o),
(8,163,o),
(-2,153,c),
(-4,148,o),
(-5,144,o),
(-5,140,cs),
(-5,132,o),
(1,109,o),
(1,102,cs),
(1,98,o),
(-2,94,o),
(-2,90,c),
(10,90,o),
(13,112,o),
(104,189,c),
(134,204,o),
(139,225,o),
(156,225,c),
(159,220,o),
(165,222,o),
(165,212,cs),
(165,182,o),
(159,86,o),
(148,86,cs),
(142,86,o),
(144,104,o),
(131,104,cs),
(117,104,o),
(92,86,o),
(92,68,cs),
(92,58,o),
(96,55,o),
(96,43,cs),
(96,10,o),
(104,-29,o),
(113,-39,c),
(113,-53,o),
(115,-60,o),
(130,-60,cs),
(135,-60,o),
(141,-52,o),
(169,-42,c),
(179,-18,o),
(201,-25,o),
(229,15,c),
(258,32,o),
(285,46,o),
(303,73,c),
(307,74,o),
(328,97,o),
(328,107,cs),
(328,119,o),
(323,137,o),
(323,142,cs),
(323,148,o),
(326,155,o),
(326,158,c),
(326,160,o),
(325,162,o),
(323,162,c),
(319,162,o),
(316,160,o),
(283,120,c),
(277,118,o),
(237,71,o),
(221,71,c),
(219,71,o),
(218,73,o),
(218,77,cs),
(218,103,o),
(242,139,o),
(242,156,cs),
(242,164,o),
(262,208,o),
(262,271,c),
(266,278,o),
(266,291,o),
(266,302,cs),
(266,311,o),
(266,320,o),
(264,332,c),
(252,353,o),
(225,356,o),
(212,356,cs)
);
}
);
};
layerId = "1CB908B6-703B-4411-9DD7-80CBD5793C08";
name = "1 janv. 25 à 09:33";
shapes = (
{
closed = 0;
nodes = (
(125,-41,l),
(151,-41,o),
(240,38,o),
(296,94,cs),
(313,111,l)
);
},
{
attr = {
lineCapEnd = "1";
lineCapStart = "1";
};
closed = 0;
nodes = (
(0,111,l),
(17,128,ls),
(70,181,o),
(123,239,o),
(176,307,c)
);
},
{
attr = {
lineCapEnd = "1";
lineCapStart = "1";
};
closed = 0;
nodes = (
(176,307,l),
(181,305,l)
);
},
{
attr = {
lineCapEnd = "1";
lineCapStart = "1";
};
closed = 0;
nodes = (
(181,305,l),
(186,278,o),
(190,242,o),
(190,203,cs),
(191,99,o),
(163,-41,o),
(125,-41,cs),
(97,-41,o),
(87,38,o),
(87,57,c)
);
}
);
width = 313;
}
);
unicode = 115;
},
{
glyphname = scedilla;
kernLeft = s;
kernRight = s;
layers = (
{
layerId = "7B26D558-51A9-4DA4-9A20-DDCE4917C78D";
shapes = (
{
ref = s;
},
{
closed = 0;
nodes = (
(133,20,l),
(119,-30,o),
(92,-106,o),
(69,-161,c)
);
}
);
width = 313;
}
);
unicode = 351;
},
{
glyphname = germandbls;
layers = (
{
layerId = "7B26D558-51A9-4DA4-9A20-DDCE4917C78D";
shapes = (
{
closed = 0;
nodes = (
(296,38,l),
(323,59,o),
(347,81,o),
(366,100,cs),
(377,111,l)
);
},
{
closed = 0;
nodes = (
(10,-250,l),
(52,184,o),
(85,575,o),
(287,575,cs),
(331,575,o),
(353,556,o),
(353,525,cs),
(353,475,o),
(296,411,o),
(212,338,c),
(268,301,o),
(309,255,o),
(309,198,cs),
(309,133,o),
(257,52,o),
(118,-12,c)
);
}
);
width = 377;
},
{
associatedMasterId = "7B26D558-51A9-4DA4-9A20-DDCE4917C78D";
background = {
shapes = (
{
closed = 1;
nodes = (
(348,302,o),
(323,319,o),
(311,338,c),
(294,354,o),
(265,367,o),
(265,396,cs),
(265,409,o),
(273,408,o),
(276,420,c),
(396,505,o),
(389,534,o),
(404,556,c),
(407,567,o),
(409,584,o),
(409,596,cs),
(409,634,o),
(404,645,o),
(387,661,c),
(358,700,o),
(331,695,o),
(315,703,c),
(302,703,o),
(295,706,o),
(279,706,cs),
(265,706,o),
(249,706,o),
(242,700,c),
(205,694,o),
(188,670,o),
(160,649,cs),
(99,602,o),
(101,561,o),
(77,500,c),
(77,474,o),
(61,436,o),
(61,430,cs),
(61,393,o),
(49,363,o),
(46,313,c),
(45,303,o),
(34,295,o),
(34,245,c),
(23,228,o),
(17,104,o),
(12,102,c),
(12,78,o),
(3,-1,o),
(-3,-20,c),
(-8,-93,o),
(-19,-166,o),
(-19,-240,c),
(-15,-255,o),
(-9,-276,o),
(10,-276,cs),
(27,-276,o),
(39,-268,o),
(45,-223,c),
(49,-184,o),
(61,-122,o),
(61,-96,cs),
(61,-65,o),
(72,-33,o),
(74,-4,cs),
(78,58,o),
(93,118,o),
(102,180,cs),
(107,215,o),
(113,224,o),
(116,266,c),
(130,293,o),
(134,361,o),
(141,371,c),
(156,470,o),
(167,526,o),
(194,561,c),
(206,591,o),
(249,632,o),
(285,632,cs),
(307,632,o),
(313,621,o),
(313,590,cs),
(313,543,o),
(283,537,o),
(249,478,c),
(211,431,o),
(179,424,o),
(179,387,cs),
(179,365,o),
(188,353,o),
(221,324,c),
(236,279,o),
(244,306,o),
(244,254,cs),
(244,158,o),
(194,120,o),
(175,97,cs),
(154,71,o),
(101,53,o),
(101,40,cs),
(101,30,o),
(121,28,o),
(122,16,c),
(130,14,o),
(139,9,o),
(147,9,cs),
(179,9,o),
(250,65,o),
(258,78,c),
(270,78,o),
(330,150,o),
(343,210,c),
(343,228,o),
(348,238,o),
(348,259,cs)
);
},
{
closed = 0;
nodes = (
(10,-230,l),
(52,204,o),
(85,630,o),
(285,630,cs),
(331,630,o),
(353,601,o),
(353,565,cs),
(353,510,o),
(296,446,o),
(212,373,c),
(268,330,o),
(309,280,o),
(309,230,cs),
(309,158,o),
(257,77,o),
(118,13,c)
);
}
);
};
layerId = "2A4A93BF-74A3-4B64-8D22-7DF93DE60BE9";
name = "22 déc. 24 à 08:56";
shapes = (
{
closed = 0;
nodes = (
(296,38,l),
(323,59,o),
(347,81,o),
(366,100,cs),
(377,111,l)
);
},
{
closed = 0;
nodes = (
(10,-230,l),
(52,204,o),
(85,630,o),
(285,630,cs),
(331,630,o),
(353,601,o),
(353,565,cs),
(353,510,o),
(296,446,o),
(212,373,c),
(268,330,o),
(309,280,o),
(309,230,cs),
(309,158,o),
(257,77,o),
(118,13,c)
);
}
);
width = 377;
}
);
unicode = 223;
},
{
glyphname = t;
kernLeft = t;
kernRight = t;
layers = (
{
anchors = (
{
name = bottom;
pos = (129,-10);
},
{
name = center;
pos = (152,150);
},
{
name = top;
pos = (294,469);
},
{
name = topright;
pos = (284,650);
}
);
layerId = "7B26D558-51A9-4DA4-9A20-DDCE4917C78D";
shapes = (
{
closed = 0;
nodes = (
(0,111,l),
(12,123,ls),
(52,163,o),
(188,343,o),
(261,500,c)
);
},
{
closed = 0;
nodes = (
(25,419,l),
(104,413,o),
(204,413,o),
(304,417,c)
);
},
{
closed = 0;
nodes = (
(261,500,l),
(196,343,o),
(127,146,o),
(127,39,cs),
(127,1,o),
(136,-10,o),
(149,-10,cs),
(182,-10,o),
(254,61,o),
(287,94,cs),
(304,111,l)
);
}
);
width = 304;
}
);
unicode = 116;
},
{
glyphname = tcedilla;
kernLeft = t;
kernRight = t;
layers = (
{
layerId = "7B26D558-51A9-4DA4-9A20-DDCE4917C78D";
shapes = (
{
ref = t;
},
{
closed = 0;
nodes = (
(188,65,l),
(174,15,o),
(147,-61,o),
(124,-116,c)
);
}
);
width = 304;
}
);
unicode = 355;
},
{
glyphname = u;
kernLeft = n;
kernRight = n;
layers = (
{
anchors = (
{
name = bottom;
pos = (236,0);
},
{
name = ogonek;
pos = (365,64);
},
{
name = top;
pos = (274,280);
}
);
layerId = "7B26D558-51A9-4DA4-9A20-DDCE4917C78D";
name = Regular;
shapes = (
{
attr = {
lineCapEnd = 1;
lineCapStart = 1;
};
closed = 0;
nodes = (
(0,111,l),
(21,132,ls),
(63,174,o),
(110,234,o),
(152,299,c)
);
},
{
attr = {
lineCapEnd = 1;
lineCapStart = 1;
};
closed = 0;
nodes = (
(152,299,l),
(110,208,o),
(92,134,o),
(92,81,cs),
(92,32,o),
(106,6,o),
(131,6,cs),
(184,6,o),
(268,124,o),
(321,215,c)
);
},
{
attr = {
lineCapEnd = 1;
lineCapStart = 1;
};
closed = 0;
nodes = (
(321,215,l),
(315,187,o),
(313,164,o),
(313,148,cs),
(313,98,o),
(332,64,o),
(365,64,cs),
(386,64,o),
(414,78,o),
(438,102,cs),
(447,111,l)
);
}
);
width = 447;
},
{
anchors = (
{
name = bottom;
pos = (209,0);
},
{
name = ogonek;
pos = (385,11);
},
{
name = top;
pos = (264,296);
}
);
associatedMasterId = "7B26D558-51A9-4DA4-9A20-DDCE4917C78D";
background = {
shapes = (
{
closed = 1;
nodes = (
(154,155,o),
(157,164,o),
(157,170,cs),
(157,184,o),
(165,186,o),
(170,226,c),
(186,288,o),
(198,295,o),
(198,318,cs),
(198,331,o),
(195,340,o),
(179,340,cs),
(164,340,o),
(147,328,o),
(135,320,c),
(130,317,o),
(108,273,o),
(88,253,c),
(78,235,o),
(33,173,o),
(9,158,cs),
(4,155,o),
(-6,140,o),
(-6,128,cs),
(-6,88,o),
(-5,85,o),
(-3,85,c),
(1,85,o),
(7,87,o),
(18,102,c),
(22,107,o),
(56,135,o),
(61,135,cs),
(64,135,o),
(64,132,o),
(64,121,cs),
(64,88,o),
(70,70,o),
(72,42,c),
(78,18,o),
(87,16,o),
(93,4,c),
(106,1,o),
(112,-6,o),
(129,-6,cs),
(147,-6,o),
(158,2,o),
(164,2,c),
(205,30,o),
(220,55,o),
(228,59,c),
(235,63,o),
(277,127,o),
(283,127,cs),
(299,127,o),
(289,50,o),
(360,50,cs),
(400,50,o),
(421,75,o),
(443,84,cs),
(459,91,o),
(463,105,o),
(463,112,cs),
(463,133,o),
(462,164,o),
(456,164,cs),
(448,164,o),
(425,130,o),
(406,130,cs),
(370,130,o),
(375,166,o),
(371,176,c),
(371,243,o),
(363,250,o),
(335,250,cs),
(314,250,o),
(311,244,o),
(285,208,c),
(234,127,o),
(202,109,o),
(197,94,c),
(185,90,o),
(172,74,o),
(165,74,cs),
(157,74,o),
(154,94,o),
(154,109,cs)
);
}
);
};
layerId = "683B1162-A2D2-431A-8E60-F8E6FE958D66";
name = "20 janv. 25 à 11:33";
shapes = (
{
closed = 0;
nodes = (
(0,111,l),
(21,132,ls),
(63,174,o),
(109,234,o),
(150,299,c)
);
},
{
closed = 0;
nodes = (
(150,299,l),
(108,225,o),
(82,134,o),
(82,76,cs),
(82,32,o),
(97,6,o),
(123,6,cs),
(179,6,o),
(268,124,o),
(321,215,c)
);
},
{
closed = 0;
nodes = (
(321,215,l),
(315,187,o),
(313,164,o),
(313,149,cs),
(313,98,o),
(332,64,o),
(365,64,cs),
(386,64,o),
(414,78,o),
(438,102,cs),
(447,111,l)
);
}
);
width = 447;
},
{
anchors = (
{
name = bottom;
pos = (209,0);
},
{
name = ogonek;
pos = (385,11);
},
{
name = top;
pos = (264,296);
}
);
associatedMasterId = "7B26D558-51A9-4DA4-9A20-DDCE4917C78D";
background = {
shapes = (
{
closed = 1;
nodes = (
(154,155,o),
(157,164,o),
(157,170,cs),
(157,184,o),
(165,186,o),
(170,226,c),
(186,288,o),
(198,295,o),
(198,318,cs),
(198,331,o),
(195,340,o),
(179,340,cs),
(164,340,o),
(147,328,o),
(135,320,c),
(130,317,o),
(108,273,o),
(88,253,c),
(78,235,o),
(33,173,o),
(9,158,cs),
(4,155,o),
(-6,140,o),
(-6,128,cs),
(-6,88,o),
(-5,85,o),
(-3,85,c),
(1,85,o),
(7,87,o),
(18,102,c),
(22,107,o),
(56,135,o),
(61,135,cs),
(64,135,o),
(64,132,o),
(64,121,cs),
(64,88,o),
(70,70,o),
(72,42,c),
(78,18,o),
(87,16,o),
(93,4,c),
(106,1,o),
(112,-6,o),
(129,-6,cs),
(147,-6,o),
(158,2,o),
(164,2,c),
(205,30,o),
(220,55,o),
(228,59,c),
(235,63,o),
(277,127,o),
(283,127,cs),
(299,127,o),
(289,50,o),
(360,50,cs),
(400,50,o),
(421,75,o),
(443,84,cs),
(459,91,o),
(463,105,o),
(463,112,cs),
(463,133,o),
(462,164,o),
(456,164,cs),
(448,164,o),
(425,130,o),
(406,130,cs),
(370,130,o),
(375,166,o),
(371,176,c),
(371,243,o),
(363,250,o),
(335,250,cs),
(314,250,o),
(311,244,o),
(285,208,c),
(234,127,o),
(202,109,o),
(197,94,c),
(185,90,o),
(172,74,o),
(165,74,cs),
(157,74,o),
(154,94,o),
(154,109,cs)
);
}
);
};
layerId = "CE390A83-723C-491C-AD7A-2FCFF3CFA4C0";
name = "1 janv. 25 à 09:52";
shapes = (
{
closed = 0;
nodes = (
(0,111,l),
(21,132,ls),
(63,174,o),
(109,234,o),
(150,299,c)
);
},
{
closed = 0;
nodes = (
(150,299,l),
(108,225,o),
(82,134,o),
(82,76,cs),
(82,32,o),
(97,6,o),
(123,6,cs),
(179,6,o),
(268,124,o),
(321,215,c)
);
},
{
closed = 0;
nodes = (
(321,215,l),
(315,187,o),
(313,164,o),
(313,149,cs),
(313,98,o),
(335,64,o),
(372,64,cs),
(396,64,o),
(424,78,o),
(448,102,cs),
(457,111,l)
);
}
);
width = 457;
}
);
unicode = 117;
},
{
glyphname = v;
kernLeft = v;
kernRight = v;
layers = (
{
layerId = "7B26D558-51A9-4DA4-9A20-DDCE4917C78D";
shapes = (
{
attr = {
lineCapEnd = "1";
lineCapStart = "1";
};
closed = 0;
nodes = (
(0,111,l),
(12,123,ls),
(33,144,o),
(77,200,o),
(108,255,c)
);
},
{
attr = {
lineCapEnd = "1";
lineCapStart = "1";
};
closed = 0;
nodes = (
(277,38,l),
(303,58,o),
(336,87,o),
(352,103,cs),
(360,111,l)
);
},
{
attr = {
lineCapEnd = "1";
lineCapStart = "1";
};
closed = 0;
nodes = (
(108,255,l),
(100,209,o),
(96,165,o),
(96,112,cs),
(96,34,o),
(105,-34,o),
(129,-34,cs),
(160,-34,o),
(298,158,o),
(321,309,c)
);
}
);
width = 360;
}
);
unicode = 118;
},
{
glyphname = w;
kernLeft = v;
kernRight = v;
layers = (
{
anchors = (
{
name = bottom;
pos = (220,0);
},
{
name = top;
pos = (323,300);
}
);
layerId = "7B26D558-51A9-4DA4-9A20-DDCE4917C78D";
name = Regular;
shapes = (
{
attr = {
lineCapEnd = "1";
lineCapStart = "1";
};
closed = 0;
nodes = (
(480,353,l),
(457,169,o),
(332,-12,o),
(292,-12,cs),
(273,-12,o),
(268,28,o),
(268,74,cs),
(268,143,o),
(279,216,o),
(295,292,c),
(249,174,o),
(151,-39,o),
(128,-39,cs),
(116,-39,o),
(112,21,o),
(112,91,cs),
(112,152,o),
(116,217,o),
(121,259,c)
);
},
{
attr = {
lineCapEnd = "1";
lineCapStart = "1";
};
closed = 0;
nodes = (
(121,259,l),
(90,212,o),
(50,161,o),
(26,137,cs),
(0,111,l)
);
},
{
closed = 0;
nodes = (
(425,45,l),
(446,61,o),
(476,87,o),
(487,98,cs),
(500,111,l)
);
}
);
width = 500;
}
);
unicode = 119;
},
{
glyphname = x;
kernLeft = x;
kernRight = x;
layers = (
{
associatedMasterId = "7B26D558-51A9-4DA4-9A20-DDCE4917C78D";
background = {
shapes = (
{
closed = 1;
nodes = (
(360,355,o),
(348,394,o),
(313,394,cs),
(285,394,o),
(216,314,o),
(204,312,cs),
(198,311,o),
(161,267,o),
(147,267,cs),
(129,267,o),
(137,346,o),
(104,346,cs),
(82,346,o),
(55,308,o),
(55,285,cs),
(55,245,o),
(71,243,o),
(71,218,cs),
(71,188,o),
(5,168,o),
(-6,148,c),
(-8,145,o),
(-11,97,o),
(-11,92,c),
(-11,90,o),
(-9,86,o),
(-5,86,cs),
(5,86,o),
(10,102,o),
(19,106,c),
(44,119,o),
(80,170,o),
(91,170,cs),
(97,170,o),
(122,111,o),
(122,105,cs),
(122,87,o),
(24,17,o),
(24,-3,cs),
(24,-9,o),
(37,-12,o),
(45,-12,cs),
(53,-12,o),
(61,-1,o),
(77,4,cs),
(87,7,o),
(97,29,o),
(117,40,cs),
(124,44,o),
(134,63,o),
(143,63,cs),
(152,63,o),
(183,0,o),
(234,0,c),
(271,1,o),
(298,26,o),
(330,42,c),
(364,57,o),
(401,97,o),
(401,102,cs),
(401,120,o),
(402,139,o),
(402,156,cs),
(402,161,o),
(400,162,o),
(397,162,cs),
(390,162,o),
(385,145,o),
(375,143,c),
(361,123,o),
(347,108,o),
(328,98,c),
(312,98,o),
(306,80,o),
(263,80,cs),
(229,80,o),
(210,111,o),
(210,120,cs),
(210,139,o),
(258,168,o),
(273,191,cs),
(287,212,o),
(312,225,o),
(340,271,c),
(354,278,o),
(360,315,o),
(360,326,cs)
);
},
{
closed = 1;
nodes = (
(272,270,o),
(246,252,o),
(236,233,cs),
(227,215,o),
(190,176,o),
(181,176,cs),
(173,176,o),
(159,214,o),
(159,227,cs),
(159,243,o),
(183,244,o),
(212,280,c),
(244,292,o),
(247,310,o),
(257,310,cs),
(269,310,o),
(272,309,o),
(272,301,cs)
);
}
);
};
layerId = "387620B7-E3BB-44C9-8B03-9F16C0E43335";
name = "1 janv. 25 à 10:54";
shapes = (
{
closed = 0;
nodes = (
(0,111,l),
(21,132,ls),
(85,196,o),
(235,327,o),
(280,327,cs),
(293,327,o),
(297,317,o),
(297,307,cs),
(297,244,o),
(139,73,o),
(38,-4,cs)
);
},
{
closed = 0;
nodes = (
(74,306,l),
(89,223,o),
(162,23,o),
(252,23,cs),
(282,23,o),
(311,45,o),
(358,92,cs),
(377,111,l)
);
}
);
width = 377;
},
{
layerId = "7B26D558-51A9-4DA4-9A20-DDCE4917C78D";
name = Regular;
shapes = (
{
closed = 0;
nodes = (
(0,111,l),
(21,132,ls),
(85,196,o),
(235,327,o),
(280,327,cs),
(293,327,o),
(297,317,o),
(297,307,cs),
(297,244,o),
(139,73,o),
(38,-4,cs)
);
},
{
closed = 0;
nodes = (
(74,306,l),
(89,223,o),
(152,23,o),
(242,23,cs),
(272,23,o),
(301,45,o),
(348,92,cs),
(367,111,l)
);
}
);
width = 367;
}
);
unicode = 120;
},
{
glyphname = y;
kernLeft = y;
kernRight = y;
layers = (
{
anchors = (
{
name = bottom;
pos = (210,49);
},
{
name = top;
pos = (280,280);
}
);
layerId = "7B26D558-51A9-4DA4-9A20-DDCE4917C78D";
shapes = (
{
closed = 0;
nodes = (
(0,111,l),
(17,128,ls),
(41,152,o),
(87,198,o),
(119,235,c)
);
},
{
closed = 0;
nodes = (
(119,235,l),
(93,165,o),
(81,107,o),
(81,67,cs),
(81,39,o),
(87,25,o),
(102,25,cs),
(145,25,o),
(262,139,o),
(360,264,c)
);
},
{
closed = 0;
nodes = (
(360,264,l),
(317,143,o),
(160,-304,o),
(72,-304,cs),
(61,-304,o),
(57,-297,o),
(57,-289,cs),
(57,-223,o),
(325,16,o),
(402,93,cs),
(420,111,l)
);
}
);
width = 420;
}
);
unicode = 121;
},
{
glyphname = z;
kernLeft = z;
kernRight = z;
layers = (
{
anchors = (
{
name = bottom;
pos = (171,53);
},
{
name = center;
pos = (171,230);
},
{
name = top;
pos = (188,300);
}
);
associatedMasterId = "7B26D558-51A9-4DA4-9A20-DDCE4917C78D";
background = {
shapes = (
{
closed = 1;
nodes = (
(49,-246,o),
(65,-228,o),
(66,-213,c),
(75,-207,o),
(89,-176,o),
(98,-172,c),
(100,-161,o),
(144,-99,o),
(160,-99,cs),
(170,-99,o),
(173,-156,o),
(173,-159,cs),
(173,-163,o),
(171,-169,o),
(171,-182,c),
(155,-213,o),
(148,-216,o),
(138,-230,cs),
(129,-242,o),
(92,-276,o),
(64,-276,cs),
(55,-276,o),
(49,-270,o),
(49,-263,cs)
);
},
{
closed = 1;
nodes = (
(-8,90,l),
(-5,90,ls),
(4,90,o),
(15,100,o),
(29,126,c),
(34,127,o),
(61,153,o),
(64,161,c),
(76,164,o),
(114,226,o),
(137,226,cs),
(148,226,o),
(158,213,o),
(166,198,c),
(166,188,o),
(178,173,o),
(178,165,cs),
(178,131,o),
(149,110,o),
(145,86,c),
(128,72,o),
(120,44,o),
(120,14,cs),
(120,-15,o),
(135,-41,o),
(135,-49,c),
(96,-89,o),
(92,-114,o),
(72,-124,c),
(61,-145,o),
(19,-196,o),
(14,-212,c),
(9,-231,o),
(-5,-230,o),
(-5,-282,cs),
(-5,-299,o),
(-3,-303,o),
(-3,-311,c),
(18,-334,o),
(25,-332,o),
(40,-336,c),
(45,-336,o),
(63,-336,o),
(84,-333,c),
(119,-311,o),
(142,-309,o),
(182,-269,c),
(212,-248,o),
(217,-226,o),
(231,-211,c),
(240,-188,o),
(254,-170,o),
(254,-127,cs),
(254,-101,o),
(248,-90,o),
(245,-67,c),
(230,-53,o),
(230,-38,o),
(223,-30,c),
(223,-7,o),
(250,3,o),
(276,38,c),
(340,92,o),
(344,95,o),
(344,105,cs),
(344,160,o),
(343,165,o),
(338,165,cs),
(334,165,o),
(326,150,o),
(291,110,c),
(260,83,o),
(253,69,o),
(245,65,c),
(241,53,o),
(209,24,o),
(201,24,cs),
(196,24,o),
(189,32,o),
(189,55,cs),
(189,87,o),
(222,110,o),
(228,126,c),
(231,137,o),
(253,157,o),
(253,199,cs),
(253,270,o),
(232,271,o),
(222,301,c),
(205,323,o),
(192,328,o),
(160,328,cs),
(146,328,o),
(131,323,o),
(112,289,c),
(98,281,o),
(27,181,o),
(0,155,cs),
(-8,147,o),
(-9,138,o),
(-9,133,cs),
(-9,128,o),
(-7,120,o),
(-7,117,cs),
(-7,110,o),
(-9,103,o),
(-11,96,c)
);
}
);
};
layerId = "7FF9F01E-AC6F-4EC4-948D-BAA24C16EC28";
name = "1 janv. 25 à 11:04";
shapes = (
{
closed = 0;
nodes = (
(0,111,l),
(13,124,ls),
(65,176,o),
(93,217,o),
(155,272,c),
(160,272,l),
(195,252,o),
(219,214,o),
(219,185,cs),
(219,130,o),
(133,80,o),
(133,22,cs),
(133,-42,o),
(236,-84,o),
(236,-148,cs),
(236,-216,o),
(125,-313,o),
(74,-313,cs),
(54,-313,o),
(45,-298,o),
(45,-278,cs),
(45,-267,o),
(48,-254,o),
(53,-241,cs),
(62,-216,o),
(97,-144,o),
(287,46,cs),
(352,111,l)
);
}
);
width = 352;
},
{
anchors = (
{
name = bottom;
pos = (171,53);
},
{
name = center;
pos = (171,230);
},
{
name = top;
pos = (193,290);
}
);
layerId = "7B26D558-51A9-4DA4-9A20-DDCE4917C78D";
name = Regular;
shapes = (
{
closed = 0;
nodes = (
(0,111,l),
(13,124,ls),
(48,159,o),
(92,220,o),
(133,284,c),
(138,284,l),
(193,255,o),
(214,217,o),
(214,185,cs),
(214,123,o),
(134,74,o),
(134,25,cs),
(134,-28,o),
(225,-84,o),
(225,-149,cs),
(225,-224,o),
(99,-315,o),
(51,-315,cs),
(33,-315,o),
(24,-302,o),
(24,-283,cs),
(24,-189,o),
(244,25,o),
(265,46,cs),
(330,111,l)
);
}
);
width = 330;
}
);
unicode = 122;
},
{
glyphname = saltillo;
layers = (
{
layerId = "7B26D558-51A9-4DA4-9A20-DDCE4917C78D";
shapes = (
{
closed = 0;
nodes = (
(74,580,l),
(78,524,o),
(75,455,o),
(60,375,c)
);
}
);
width = 126;
}
);
unicode = 42892;
},
{
glyphname = a.fina;
kernLeft = a;
kernRight = a.fina;
layers = (
{
anchors = (
{
name = bottom;
pos = (209,23);
},
{
name = ogonek;
pos = (430,12);
},
{
name = top;
pos = (313,300);
}
);
layerId = "7B26D558-51A9-4DA4-9A20-DDCE4917C78D";
shapes = (
{
attr = {
lineCapEnd = 1;
lineCapStart = 1;
};
closed = 0;
nodes = (
(0,111,l),
(17,128,ls),
(97,208,o),
(191,283,o),
(297,352,c)
);
},
{
attr = {
lineCapEnd = 1;
lineCapStart = 1;
};
closed = 0;
nodes = (
(297,352,l),
(299,350,l)
);
},
{
attr = {
lineCapEnd = 1;
lineCapStart = 1;
};
closed = 0;
nodes = (
(299,350,l),
(190,269,o),
(41,124,o),
(41,55,cs),
(41,40,o),
(48,31,o),
(62,31,cs),
(92,31,o),
(159,71,o),
(275,197,c)
);
},
{
attr = {
lineCapEnd = 1;
lineCapStart = 1;
};
closed = 0;
nodes = (
(275,197,l),
(318,93,o),
(380,28,o),
(498,-20,cs)
);
}
);
width = 468;
},
{
anchors = (
{
name = bottom;
pos = (70,41);
},
{
name = ogonek;
pos = (70,41);
},
{
name = top;
pos = (248,300);
}
);
associatedMasterId = "7B26D558-51A9-4DA4-9A20-DDCE4917C78D";
background = {
shapes = (
{
attr = {
lineCapEnd = 1;
lineCapStart = 1;
};
closed = 0;
nodes = (
(299,350,l),
(297,352,l)
);
},
{
closed = 1;
nodes = (
(411,159,l),
(406,159,o),
(405,147,o),
(390,139,c),
(383,139,o),
(380,127,o),
(361,127,cs),
(338,127,o),
(325,150,o),
(325,171,cs),
(325,190,o),
(329,195,o),
(329,207,c),
(319,218,o),
(328,250,o),
(310,250,cs),
(303,250,o),
(290,249,o),
(277,246,c),
(263,232,o),
(235,219,o),
(220,194,c),
(192,181,o),
(167,153,o),
(163,144,c),
(139,133,o),
(128,112,o),
(108,112,c),
(108,124,o),
(117,127,o),
(119,137,c),
(135,162,o),
(167,183,o),
(177,204,c),
(189,209,o),
(204,225,o),
(213,240,c),
(229,251,o),
(241,261,o),
(247,273,c),
(267,295,o),
(288,301,o),
(301,328,c),
(323,335,o),
(340,355,o),
(343,378,c),
(333,387,o),
(331,400,o),
(311,400,cs),
(277,400,o),
(251,371,o),
(217,350,c),
(207,338,o),
(196,327,o),
(184,324,c),
(160,295,o),
(121,280,o),
(110,258,c),
(90,246,o),
(84,239,o),
(68,215,c),
(57,212,o),
(39,184,o),
(20,172,cs),
(0,160,o),
(0,147,o),
(0,94,c),
(3,94,o),
(12,92,o),
(12,88,cs),
(12,83,o),
(2,69,o),
(2,49,cs),
(2,43,o),
(2,36,o),
(9,17,c),
(15,12,o),
(36,0,o),
(45,0,cs),
(54,0,o),
(61,7,o),
(75,8,c),
(91,23,o),
(119,29,o),
(139,56,c),
(170,71,o),
(181,105,o),
(198,106,c),
(205,118,o),
(231,142,o),
(238,142,cs),
(252,142,o),
(241,89,o),
(259,77,c),
(266,59,o),
(290,44,o),
(304,44,cs),
(309,44,o),
(316,47,o),
(319,47,cs),
(322,47,o),
(328,44,o),
(332,44,cs),
(345,44,o),
(360,52,o),
(389,72,c),
(400,85,o),
(415,89,o),
(415,99,cs),
(415,105,o),
(413,109,o),
(413,113,cs),
(413,119,o),
(416,124,o),
(416,127,cs),
(416,131,o),
(414,143,o),
(414,156,c)
);
},
{
attr = {
lineCapEnd = 1;
lineCapStart = 1;
};
closed = 0;
nodes = (
(297,352,l),
(299,350,l)
);
},
{
attr = {
lineCapEnd = "1";
lineCapStart = "1";
};
closed = 0;
nodes = (
(0,111,l),
(17,128,ls),
(97,208,o),
(191,284,o),
(297,352,c),
(299,350,l),
(190,269,o),
(35,113,o),
(35,47,cs),
(35,33,o),
(42,24,o),
(56,24,cs),
(90,24,o),
(166,82,o),
(299,228,c),
(288,194,o),
(282,161,o),
(282,138,cs),
(282,95,o),
(302,69,o),
(335,69,cs),
(355,69,o),
(379,79,o),
(405,105,cs),
(411,111,l)
);
}
);
};
layerId = "0CDF3C1C-AEA6-476B-A402-B1BA2156D7B8";
name = "31 déc. 24 à 08:26";
shapes = (
{
attr = {
lineCapEnd = 1;
lineCapStart = 1;
};
closed = 0;
nodes = (
(0,111,l),
(17,128,ls),
(97,208,o),
(191,282,o),
(297,352,c)
);
},
{
attr = {
lineCapEnd = 1;
lineCapStart = 1;
};
closed = 0;
nodes = (
(297,352,l),
(299,350,l)
);
},
{
attr = {
lineCapEnd = 1;
lineCapStart = 1;
};
closed = 0;
nodes = (
(299,350,l),
(190,269,o),
(48,136,o),
(48,65,cs),
(48,50,o),
(55,41,o),
(70,41,cs),
(103,41,o),
(166,82,o),
(297,222,c),
(288,194,o),
(282,161,o),
(282,138,cs),
(282,95,o),
(302,69,o),
(335,69,cs),
(355,69,o),
(379,79,o),
(405,105,cs),
(411,111,l)
);
}
);
width = 411;
}
);
},
{
glyphname = e.fina;
kernLeft = e;
kernRight = e.fina;
layers = (
{
anchors = (
{
name = bottom;
pos = (257,-18);
},
{
name = ogonek;
pos = (338,-10);
},
{
name = top;
pos = (201,300);
}
);
layerId = "7B26D558-51A9-4DA4-9A20-DDCE4917C78D";
shapes = (
{
closed = 0;
nodes = (
(0,111,l),
(31,142,l),
(146,199,o),
(199,273,o),
(199,306,cs),
(199,319,o),
(191,325,o),
(179,325,cs),
(130,325,o),
(32,230,o),
(32,132,cs),
(32,34,o),
(137,-18,o),
(257,-18,cs),
(304,-18,o),
(347,-10,o),
(385,7,c)
);
}
);
width = 345;
},
{
anchors = (
{
name = bottom;
pos = (191,3);
},
{
name = ogonek;
pos = (257,-18);
},
{
name = top;
pos = (215,357);
}
);
associatedMasterId = "7B26D558-51A9-4DA4-9A20-DDCE4917C78D";
background = {
shapes = (
{
ref = e;
}
);
};
layerId = "1F030579-57DE-4B10-892C-B1C2A6BC3D56";
name = "16 oct. 23 à 22:18";
shapes = (
{
closed = 0;
nodes = (
(0,111,l),
(31,141,l)
);
},
{
closed = 0;
nodes = (
(33,142,l),
(138,204,o),
(204,268,o),
(204,308,cs),
(204,321,o),
(197,331,o),
(179,331,cs),
(120,331,o),
(28,212,o),
(32,122,cs),
(35,27,o),
(145,-18,o),
(257,-18,cs),
(301,-18,o),
(345,-11,o),
(382,3,c)
);
}
);
width = 382;
}
);
},
{
glyphname = o.fina;
kernLeft = o;
kernRight = o.fina;
layers = (
{
anchors = (
{
name = bottom;
pos = (198,5);
},
{
name = center;
pos = (198,182);
},
{
name = top;
pos = (278,270);
}
);
layerId = "7B26D558-51A9-4DA4-9A20-DDCE4917C78D";
shapes = (
{
closed = 0;
nodes = (
(162,186,l),
(183,236,o),
(223,270,o),
(262,270,cs),
(297,270,o),
(313,243,o),
(312,204,cs),
(310,106,o),
(204,0,o),
(131,0,cs),
(98,0,o),
(75,22,o),
(75,68,cs),
(75,130,o),
(118,211,o),
(185,285,c),
(103,215,o),
(57,168,o),
(19,130,cs),
(0,111,l)
);
}
);
width = 342;
}
);
},
{
glyphname = oslash.fina;
kernLeft = o;
kernRight = o.fina;
layers = (
{
layerId = "7B26D558-51A9-4DA4-9A20-DDCE4917C78D";
shapes = (
{
ref = o;
},
{
closed = 0;
nodes = (
(48,-40,l),
(143,75,o),
(262,208,o),
(354,300,c)
);
}
);
width = 387;
}
);
},
{
glyphname = s.fina;
kernLeft = s;
kernRight = s.fina;
layers = (
{
anchors = (
{
name = bottom;
pos = (65,-41);
},
{
name = top;
pos = (209,300);
}
);
layerId = "7B26D558-51A9-4DA4-9A20-DDCE4917C78D";
shapes = (
{
attr = {
lineCapEnd = "1";
lineCapStart = "1";
};
closed = 0;
nodes = (
(0,111,l),
(17,128,ls),
(70,181,o),
(123,239,o),
(177,307,c)
);
},
{
attr = {
lineCapEnd = "1";
lineCapStart = "1";
};
closed = 0;
nodes = (
(177,307,l),
(182,305,l)
);
},
{
attr = {
lineCapEnd = "1";
lineCapStart = "1";
};
closed = 0;
nodes = (
(182,305,l),
(187,278,o),
(190,242,o),
(190,203,cs),
(191,99,o),
(163,-41,o),
(125,-41,cs),
(97,-41,o),
(87,38,o),
(87,57,c)
);
}
);
width = 240;
},
{
associatedMasterId = "7B26D558-51A9-4DA4-9A20-DDCE4917C78D";
background = {
shapes = (
{
ref = s;
}
);
};
layerId = "488FCA44-A981-4E89-B9DB-7CDC66524F3A";
name = "15 oct. 23 à 10:34";
shapes = (
{
attr = {
lineCapEnd = "1";
lineCapStart = "1";
};
closed = 0;
nodes = (
(0,114,l),
(17,131,ls),
(78,192,o),
(130,248,o),
(172,297,c)
);
},
{
attr = {
lineCapEnd = "1";
lineCapStart = "1";
};
closed = 0;
nodes = (
(172,297,l),
(183,294,l)
);
},
{
attr = {
lineCapEnd = "1";
lineCapStart = "1";
};
closed = 0;
nodes = (
(183,294,l),
(186,271,o),
(189,245,o),
(189,213,cs),
(190,102,o),
(163,-38,o),
(125,-38,cs),
(97,-38,o),
(87,41,o),
(87,60,c)
);
}
);
width = 189;
}
);
},
{
glyphname = u.fina;
kernLeft = n;
kernRight = u.fina;
layers = (
{
anchors = (
{
name = bottom;
pos = (123,6);
},
{
name = ogonek;
pos = (402,-43);
},
{
name = top;
pos = (269,300);
}
);
layerId = "7B26D558-51A9-4DA4-9A20-DDCE4917C78D";
shapes = (
{
closed = 0;
nodes = (
(0,111,l),
(21,132,ls),
(63,174,o),
(109,234,o),
(150,299,c)
);
},
{
closed = 0;
nodes = (
(150,299,l),
(108,225,o),
(82,134,o),
(82,76,cs),
(82,32,o),
(97,6,o),
(123,6,cs),
(179,6,o),
(268,124,o),
(321,215,c)
);
},
{
closed = 0;
nodes = (
(321,215,l),
(321,91,o),
(358,-4,o),
(437,-75,c)
);
}
);
width = 407;
},
{
anchors = (
{
name = bottom;
pos = (187,0);
},
{
name = ogonek;
pos = (336,10);
},
{
name = top;
pos = (227,271);
},
{
name = topright;
pos = (353,300);
}
);
associatedMasterId = "7B26D558-51A9-4DA4-9A20-DDCE4917C78D";
layerId = "D8209243-AB07-48CD-B761-18B2BD7FEC16";
name = "Nov 20 19, 16:42";
shapes = (
{
closed = 0;
nodes = (
(0,91,l),
(18,109,l),
(64,155,o),
(103,212,o),
(141,266,c),
(102,201,o),
(48,108,o),
(48,34,cs),
(48,1,o),
(60,-16,o),
(83,-16,cs),
(135,-16,o),
(231,109,o),
(280,192,c),
(273,131,o),
(285,55,o),
(317,55,cs),
(337,55,o),
(355,73,o),
(355,73,c),
(373,91,l)
);
}
);
width = 373;
},
{
anchors = (
{
name = bottom;
pos = (177,0);
},
{
name = ogonek;
pos = (326,10);
},
{
name = top;
pos = (217,271);
},
{
name = topright;
pos = (343,300);
}
);
associatedMasterId = "7B26D558-51A9-4DA4-9A20-DDCE4917C78D";
layerId = "807AF13E-F2FC-4223-9014-B04C3DD39799";
name = "13 déc. 22 à 13:27";
shapes = (
{
closed = 0;
nodes = (
(0,91,l),
(18,109,ls),
(64,155,o),
(98,189,o),
(141,243,c),
(95,178,o),
(67,104,o),
(68,60,cs),
(69,29,o),
(85,10,o),
(105,10,cs),
(146,10,o),
(200,97,o),
(253,171,c),
(246,110,o),
(243,45,o),
(275,45,cs),
(301,45,o),
(328,73,o),
(328,73,c),
(346,91,l)
);
}
);
width = 346;
}
);
},
{
glyphname = v.fina;
kernLeft = v;
kernRight = v.fina;
layers = (
{
layerId = "7B26D558-51A9-4DA4-9A20-DDCE4917C78D";
shapes = (
{
attr = {
lineCapEnd = "1";
lineCapStart = "1";
};
closed = 0;
nodes = (
(0,111,l),
(12,123,ls),
(33,144,o),
(76,200,o),
(103,255,c)
);
},
{
attr = {
lineCapEnd = "1";
lineCapStart = "1";
};
closed = 0;
nodes = (
(103,255,l),
(97,228,o),
(91,165,o),
(91,105,cs),
(91,34,o),
(100,-34,o),
(124,-34,cs),
(155,-34,o),
(293,158,o),
(316,309,c)
);
}
);
width = 336;
},
{
associatedMasterId = "7B26D558-51A9-4DA4-9A20-DDCE4917C78D";
background = {
shapes = (
{
ref = v;
}
);
};
layerId = "1E5F1AEB-1065-43DF-84E7-87B3F14A248D";
name = "19 déc. 23 à 00:06";
shapes = (
{
attr = {
lineCapEnd = "1";
lineCapStart = "1";
};
closed = 0;
nodes = (
(0,111,l),
(12,123,ls),
(33,144,o),
(78,212,o),
(94,255,c)
);
},
{
attr = {
lineCapEnd = "1";
lineCapStart = "1";
};
closed = 0;
nodes = (
(308,309,ls),
(299,199,o),
(152,-37,o),
(114,-37,cs),
(90,-37,o),
(83,55,o),
(83,126,cs),
(83,177,o),
(88,210,o),
(94,255,c)
);
}
);
width = 308;
}
);
},
{
glyphname = w.fina;
kernLeft = v;
kernRight = v.fina;
layers = (
{
anchors = (
{
name = bottom;
pos = (220,0);
},
{
name = top;
pos = (323,300);
}
);
layerId = "7B26D558-51A9-4DA4-9A20-DDCE4917C78D";
shapes = (
{
attr = {
lineCapEnd = "1";
lineCapStart = "1";
};
closed = 0;
nodes = (
(480,353,l),
(457,169,o),
(332,-12,o),
(292,-12,cs),
(273,-12,o),
(268,28,o),
(268,74,cs),
(268,143,o),
(279,216,o),
(295,292,c),
(249,174,o),
(151,-39,o),
(128,-39,cs),
(116,-39,o),
(112,21,o),
(112,91,cs),
(112,152,o),
(116,220,o),
(121,262,c)
);
},
{
attr = {
lineCapEnd = "1";
lineCapStart = "1";
};
closed = 0;
nodes = (
(121,262,l),
(93,214,o),
(50,161,o),
(26,137,cs),
(0,111,l)
);
}
);
width = 500;
},
{
associatedMasterId = "7B26D558-51A9-4DA4-9A20-DDCE4917C78D";
background = {
shapes = (
{
ref = w;
}
);
};
layerId = "BA584DA1-7A0A-4AEC-B340-FC948BD8C4B4";
name = "19 déc. 23 à 00:06";
shapes = (
{
attr = {
lineCapEnd = "1";
lineCapStart = "1";
};
closed = 0;
nodes = (
(482,355,l),
(460,171,o),
(335,-12,o),
(295,-12,cs),
(276,-12,o),
(268,28,o),
(269,84,cs),
(269,146,o),
(282,216,o),
(299,292,c)
);
},
{
attr = {
lineCapEnd = "1";
lineCapStart = "1";
};
closed = 0;
nodes = (
(130,272,l),
(99,222,o),
(50,161,o),
(26,137,cs),
(0,111,l)
);
},
{
attr = {
lineCapEnd = "1";
lineCapStart = "1";
};
closed = 0;
nodes = (
(299,292,l),
(253,174,o),
(164,-27,o),
(140,-27,cs),
(117,-27,o),
(117,185,o),
(130,272,c)
);
}
);
width = 487;
}
);
},
{
glyphname = e.ss03;
kernLeft = e;
kernRight = e;
layers = (
{
anchors = (
{
name = bottom;
pos = (108,10);
},
{
name = ogonek;
pos = (139,10);
},
{
name = top;
pos = (160,300);
}
);
layerId = "7B26D558-51A9-4DA4-9A20-DDCE4917C78D";
shapes = (
{
attr = {
lineCapEnd = 1;
lineCapStart = 1;
};
closed = 0;
nodes = (
(0,111,l),
(32,143,l),
(129,228,o),
(169,279,o),
(169,310,cs),
(169,323,o),
(162,330,o),
(150,330,cs),
(98,330,o),
(31,213,o),
(31,115,cs),
(31,54,o),
(57,10,o),
(108,10,cs),
(148,10,o),
(196,37,o),
(259,100,cs),
(270,111,l)
);
}
);
width = 270;
}
);
},
{
glyphname = e.ss04;
kernLeft = e;
kernRight = e;
layers = (
{
anchors = (
{
name = bottom;
pos = (111,10);
},
{
name = ogonek;
pos = (137,10);
},
{
name = top;
pos = (203,300);
}
);
layerId = "7B26D558-51A9-4DA4-9A20-DDCE4917C78D";
name = Regular;
shapes = (
{
attr = {
lineCapEnd = 1;
lineCapStart = 1;
};
closed = 0;
nodes = (
(0,111,l),
(35,146,l),
(125,228,ls),
(171,270,o),
(195,301,o),
(195,320,cs),
(195,329,o),
(190,335,o),
(180,335,cs),
(163,335,o),
(129,317,o),
(93,271,cs),
(53,218,o),
(31,156,o),
(31,107,cs),
(31,54,o),
(57,10,o),
(111,10,cs),
(153,10,o),
(207,37,o),
(270,100,cs),
(281,111,l)
);
}
);
width = 281;
}
);
},
{
glyphname = ae.ss05;
kernLeft = a;
kernRight = e;
layers = (
{
layerId = "7B26D558-51A9-4DA4-9A20-DDCE4917C78D";
name = Regular;
shapes = (
{
attr = {
lineCapEnd = 1;
lineCapStart = 1;
};
closed = 0;
nodes = (
(0,111,l),
(17,128,ls),
(97,208,o),
(191,284,o),
(297,352,c)
);
},
{
attr = {
lineCapEnd = 1;
lineCapStart = 1;
};
closed = 0;
nodes = (
(297,258,l),
(283,204,o),
(278,162,o),
(273,109,c)
);
},
{
attr = {
lineCapEnd = 1;
lineCapStart = 1;
};
closed = 0;
nodes = (
(273,109,l),
(387,174,o),
(455,285,o),
(455,324,cs),
(455,334,o),
(451,342,o),
(437,342,cs),
(379,342,o),
(282,213,o),
(282,109,cs),
(282,54,o),
(308,10,o),
(357,10,cs),
(397,10,o),
(453,41,o),
(512,100,cs),
(523,111,l)
);
},
{
attr = {
lineCapEnd = 1;
lineCapStart = 1;
};
closed = 0;
nodes = (
(297,352,l),
(299,350,l)
);
},
{
attr = {
lineCapEnd = 1;
lineCapStart = 1;
};
closed = 0;
nodes = (
(299,350,l),
(190,269,o),
(35,113,o),
(35,47,cs),
(35,33,o),
(42,24,o),
(56,24,cs),
(92,24,o),
(179,83,o),
(297,258,c)
);
}
);
width = 523;
}
);
},
{
glyphname = a.ss07;
kernLeft = a;
kernRight = a;
layers = (
{
anchors = (
{
name = bottom;
pos = (202,0);
},
{
name = ogonek;
pos = (325,69);
},
{
name = top;
pos = (313,300);
}
);
layerId = "7B26D558-51A9-4DA4-9A20-DDCE4917C78D";
shapes = (
{
attr = {
lineCapEnd = "1";
lineCapStart = "1";
};
closed = 0;
nodes = (
(0,111,l),
(12,123,ls),
(57,168,o),
(112,216,o),
(175,264,c)
);
},
{
attr = {
lineCapEnd = "1";
lineCapStart = "1";
};
closed = 0;
nodes = (
(299,350,l),
(190,269,o),
(41,124,o),
(41,55,cs),
(41,40,o),
(48,31,o),
(62,31,cs),
(95,31,o),
(166,81,o),
(297,222,c)
);
},
{
attr = {
lineCapEnd = "1";
lineCapStart = "1";
};
closed = 0;
nodes = (
(297,222,l),
(288,194,o),
(282,161,o),
(282,138,cs),
(282,95,o),
(303,69,o),
(335,69,cs),
(355,69,o),
(379,79,o),
(405,105,cs),
(411,111,l)
);
}
);
width = 411;
},
{
anchors = (
{
name = bottom;
pos = (174,0);
},
{
name = ogonek;
pos = (313,10);
},
{
name = top;
pos = (230,290);
}
);
associatedMasterId = "7B26D558-51A9-4DA4-9A20-DDCE4917C78D";
background = {
shapes = (
{
closed = 0;
nodes = (
(272,316,l),
(166,231,o),
(-41,29,o),
(45,29,cs),
(99,29,o),
(252,182,o),
(252,182,c),
(243,155,o),
(210,55,o),
(272,55,cs),
(290,55,o),
(315,57,o),
(334,77,cs),
(340,83,o),
(344,87,o),
(348,91,c)
);
}
);
};
guides = (
{
angle = 45;
pos = (398,91);
},
{
angle = 45;
pos = (398,91);
}
);
layerId = "2D2A5F78-4FB5-4465-B5BB-14F0B4A4F548";
name = "10 oct. 22 à 14:32";
shapes = (
{
attr = {
lineCapEnd = 1;
lineCapStart = 1;
};
closed = 0;
nodes = (
(0,91,l),
(14,105,ls),
(99,190,o),
(173,251,o),
(274,308,c),
(181,245,o),
(23,91,o),
(23,36,cs),
(23,25,o),
(29,17,o),
(40,17,cs),
(69,17,o),
(141,66,o),
(256,190,c),
(245,161,o),
(240,134,o),
(240,114,cs),
(240,78,o),
(256,55,o),
(283,55,cs),
(301,55,o),
(321,64,o),
(343,86,cs),
(348,91,l)
);
}
);
width = 348;
},
{
anchors = (
{
name = bottom;
pos = (174,0);
},
{
name = ogonek;
pos = (313,10);
},
{
name = top;
pos = (230,290);
}
);
associatedMasterId = "7B26D558-51A9-4DA4-9A20-DDCE4917C78D";
background = {
shapes = (
{
attr = {
lineCapEnd = 1;
lineCapStart = 1;
strokeWidth = 40;
};
closed = 0;
nodes = (
(0,91,l),
(14,105,ls),
(99,190,o),
(173,251,o),
(274,308,c),
(181,245,o),
(23,91,o),
(23,36,cs),
(23,25,o),
(29,17,o),
(40,17,cs),
(69,17,o),
(141,66,o),
(256,190,c),
(245,161,o),
(240,134,o),
(240,114,cs),
(240,78,o),
(256,55,o),
(283,55,cs),
(301,55,o),
(321,64,o),
(343,86,cs),
(348,91,l)
);
}
);
};
guides = (
{
angle = 45;
pos = (398,91);
},
{
angle = 45;
pos = (398,91);
}
);
layerId = "A860502D-8485-4020-9F78-F225E051DE74";
name = "16 nov. 22 à 11:56";
shapes = (
{
attr = {
lineCapEnd = 1;
lineCapStart = 1;
};
closed = 0;
nodes = (
(0,91,l),
(14,105,ls),
(99,190,o),
(173,251,o),
(274,308,c)
);
},
{
attr = {
lineCapEnd = 1;
lineCapStart = 1;
};
closed = 0;
nodes = (
(274,308,l),
(181,245,o),
(23,91,o),
(23,36,cs),
(23,25,o),
(29,17,o),
(40,17,cs),
(69,17,o),
(141,66,o),
(256,190,c)
);
},
{
attr = {
lineCapEnd = 1;
lineCapStart = 1;
};
closed = 0;
nodes = (
(256,190,l),
(245,161,o),
(240,134,o),
(240,114,cs),
(240,78,o),
(256,55,o),
(283,55,cs),
(301,55,o),
(321,64,o),
(343,86,cs),
(348,91,l)
);
}
);
width = 348;
},
{
anchors = (
{
name = bottom;
pos = (174,0);
},
{
name = ogonek;
pos = (313,10);
},
{
name = top;
pos = (230,290);
}
);
associatedMasterId = "7B26D558-51A9-4DA4-9A20-DDCE4917C78D";
background = {
shapes = (
{
attr = {
lineCapEnd = 1;
lineCapStart = 1;
};
closed = 0;
nodes = (
(0,91,l),
(14,105,ls),
(99,190,o),
(173,251,o),
(274,308,c)
);
},
{
attr = {
lineCapEnd = 1;
lineCapStart = 1;
};
closed = 0;
nodes = (
(274,308,l),
(181,245,o),
(23,91,o),
(23,36,cs),
(23,25,o),
(29,17,o),
(40,17,cs),
(69,17,o),
(141,66,o),
(256,190,c)
);
},
{
attr = {
lineCapEnd = 1;
lineCapStart = 1;
};
closed = 0;
nodes = (
(256,190,l),
(245,161,o),
(240,134,o),
(240,114,cs),
(240,78,o),
(256,55,o),
(283,55,cs),
(301,55,o),
(321,64,o),
(343,86,cs),
(348,91,l)
);
}
);
};
guides = (
{
angle = 45;
pos = (398,91);
},
{
angle = 45;
pos = (398,91);
}
);
layerId = "724FDBE9-8ABD-4898-9F60-DC75CA557CC8";
name = "24 nov. 22 à 10:33";
shapes = (
{
attr = {
lineCapEnd = 1;
lineCapStart = 1;
};
closed = 0;
nodes = (
(0,91,l),
(14,105,ls),
(99,190,o),
(173,251,o),
(274,308,c)
);
},
{
attr = {
lineCapEnd = 1;
lineCapStart = 1;
};
closed = 0;
nodes = (
(274,308,l),
(181,245,o),
(23,91,o),
(23,36,cs),
(23,25,o),
(29,17,o),
(40,17,cs),
(69,17,o),
(141,66,o),
(256,190,c)
);
},
{
attr = {
lineCapEnd = 1;
lineCapStart = 1;
};
closed = 0;
nodes = (
(256,190,l),
(245,161,o),
(240,134,o),
(240,114,cs),
(240,78,o),
(256,55,o),
(283,55,cs),
(301,55,o),
(321,64,o),
(343,86,cs),
(348,91,l)
);
}
);
width = 348;
}
);
},
{
glyphname = q.ss07;
kernLeft = a;
kernRight = q;
layers = (
{
layerId = "7B26D558-51A9-4DA4-9A20-DDCE4917C78D";
shapes = (
{
attr = {
lineCapEnd = "1";
lineCapStart = "1";
};
closed = 0;
nodes = (
(0,111,l),
(12,123,ls),
(57,168,o),
(110,216,o),
(172,261,c)
);
},
{
attr = {
lineCapEnd = "1";
lineCapStart = "1";
};
closed = 0;
nodes = (
(281,307,l),
(135,235,o),
(18,114,o),
(18,38,cs),
(18,13,o),
(31,2,o),
(51,2,cs),
(107,2,o),
(203,88,o),
(281,185,c)
);
},
{
attr = {
lineCapEnd = "1";
lineCapStart = "1";
};
closed = 0;
nodes = (
(281,185,l),
(283,184,l)
);
},
{
attr = {
lineCapEnd = "1";
lineCapStart = "1";
};
closed = 0;
nodes = (
(283,184,l),
(267,16,o),
(233,-140,o),
(180,-314,c)
);
}
);
width = 318;
}
);
},
{
glyphname = k.ss08;
kernLeft = h;
kernRight = k;
layers = (
{
anchors = (
{
name = bottom;
pos = (206,20);
},
{
name = top;
pos = (282,580);
}
);
layerId = "7B26D558-51A9-4DA4-9A20-DDCE4917C78D";
shapes = (
{
attr = {
lineCapEnd = 1;
lineCapStart = 1;
};
closed = 0;
nodes = (
(0,111,l),
(14,125,ls),
(164,275,o),
(235,496,o),
(250,567,cs),
(253,581,o),
(253,590,o),
(250,590,cs),
(248,590,o),
(245,585,o),
(238,567,cs),
(206,492,o),
(138,265,o),
(98,109,cs),
(85,57,o),
(78,13,o),
(78,-11,cs),
(78,-27,o),
(81,-34,o),
(87,-34,cs),
(123,-34,o),
(278,218,o),
(344,357,c)
);
},
{
attr = {
lineCapEnd = 1;
lineCapStart = 1;
};
closed = 0;
nodes = (
(344,357,l),
(306,281,o),
(226,183,o),
(215,160,cs),
(213,156,o),
(212,151,o),
(212,146,cs),
(212,130,o),
(229,107,o),
(252,87,cs),
(274,67,o),
(295,53,o),
(316,53,cs),
(339,53,o),
(362,70,o),
(386,94,cs),
(403,111,l)
);
}
);
width = 403;
}
);
},
{
export = 0;
glyphname = b.ss02;
kernLeft = h;
kernRight = o;
layers = (
{
associatedMasterId = "7B26D558-51A9-4DA4-9A20-DDCE4917C78D";
background = {
shapes = (
{
ref = b;
}
);
};
layerId = "0D3FE71D-FE7D-4A16-8803-5F177549E098";
name = "11 févr. 25 à 14:23";
shapes = (
{
attr = {
lineCapEnd = "1";
lineCapStart = "1";
};
closed = 0;
nodes = (
(0,111,l),
(5,116,ls),
(107,218,o),
(240,474,o),
(247,583,cs),
(249,607,o),
(244,620,o),
(235,620,cs),
(216,620,o),
(189,566,o),
(150,471,cs),
(98,344,o),
(55,174,o),
(55,87,cs),
(55,30,o),
(72,-25,o),
(114,-25,cs),
(185,-25,o),
(264,131,o),
(264,184,cs),
(264,194,o),
(261,199,o),
(253,199,cs),
(241,199,o),
(218,184,o),
(203,133,c)
);
},
{
closed = 0;
nodes = (
(286,127,l),
(307,127,o),
(347,131,o),
(368,135,c)
);
}
);
width = 348;
},
{
layerId = "7B26D558-51A9-4DA4-9A20-DDCE4917C78D";
name = Regular;
shapes = (
{
attr = {
lineCapEnd = "1";
lineCapStart = "1";
};
closed = 0;
nodes = (
(0,111,l),
(5,116,ls),
(107,218,o),
(240,474,o),
(247,583,cs),
(249,607,o),
(244,620,o),
(235,620,cs),
(216,620,o),
(189,566,o),
(150,471,cs),
(98,344,o),
(55,174,o),
(55,87,cs),
(55,30,o),
(72,-25,o),
(114,-25,cs),
(185,-25,o),
(264,131,o),
(264,184,cs),
(264,194,o),
(261,199,o),
(254,199,cs),
(233,199,o),
(196,157,o),
(177,91,c)
);
}
);
width = 294;
}
);
},
{
export = 0;
glyphname = f.ss02;
kernLeft = f;
kernRight = f;
layers = (
{
associatedMasterId = "7B26D558-51A9-4DA4-9A20-DDCE4917C78D";
background = {
shapes = (
{
ref = f;
},
{
closed = 0;
nodes = (
(236,111,l),
(219,94,ls),
(187,62,o),
(145,23,o),
(106,-4,c)
);
}
);
};
layerId = "3D9F982F-34AB-452C-96EA-B04979801528";
name = "11 févr. 25 à 14:31";
shapes = (
{
closed = 0;
nodes = (
(0,111,l),
(7,118,ls),
(169,280,o),
(219,401,o),
(219,553,cs),
(219,597,o),
(214,609,o),
(207,609,cs),
(191,609,o),
(167,550,o),
(148,496,cs),
(80,302,o),
(32,29,o),
(32,-173,cs),
(32,-263,o),
(43,-299,o),
(59,-299,cs),
(89,-299,o),
(193,-129,o),
(106,-4,c)
);
},
{
closed = 0;
nodes = (
(175,52,l),
(153,32,o),
(129,12,o),
(106,-4,c)
);
}
);
width = 219;
},
{
layerId = "7B26D558-51A9-4DA4-9A20-DDCE4917C78D";
name = Regular;
shapes = (
{
closed = 0;
nodes = (
(0,111,l),
(7,118,ls),
(169,280,o),
(219,401,o),
(219,553,cs),
(219,597,o),
(214,609,o),
(207,609,cs),
(191,609,o),
(167,550,o),
(148,496,cs),
(80,302,o),
(32,29,o),
(32,-173,cs),
(32,-263,o),
(43,-299,o),
(59,-299,cs),
(89,-299,o),
(155,-173,o),
(173,-64,c)
);
}
);
width = 215;
}
);
},
{
glyphname = c_c;
kernLeft = o;
kernRight = o;
layers = (
{
layerId = "7B26D558-51A9-4DA4-9A20-DDCE4917C78D";
name = Regular;
shapes = (
{
attr = {
lineCapEnd = "1";
lineCapStart = "1";
};
closed = 0;
nodes = (
(0,111,l),
(10,121,ls),
(98,209,o),
(211,277,o),
(292,311,c)
);
},
{
attr = {
lineCapEnd = "1";
lineCapStart = "1";
};
closed = 0;
nodes = (
(289,315,l),
(199,288,o),
(63,171,o),
(63,60,cs),
(63,19,o),
(82,-11,o),
(129,-11,cs),
(178,-11,o),
(223,21,o),
(276,74,cs),
(352,150,o),
(421,232,o),
(538,287,c)
);
},
{
attr = {
lineCapEnd = "1";
lineCapStart = "1";
};
closed = 0;
nodes = (
(292,311,l),
(289,315,l)
);
},
{
attr = {
lineCapEnd = "1";
lineCapStart = "1";
};
closed = 0;
nodes = (
(535,290,l),
(467,274,o),
(337,160,o),
(337,58,cs),
(337,27,o),
(349,-6,o),
(394,-6,cs),
(455,-6,o),
(524,53,o),
(564,93,cs),
(580,109,l)
);
},
{
attr = {
lineCapEnd = "1";
lineCapStart = "1";
};
closed = 0;
nodes = (
(538,287,l),
(535,290,l)
);
}
);
width = 580;
},
{
associatedMasterId = "7B26D558-51A9-4DA4-9A20-DDCE4917C78D";
background = {
shapes = (
{
ref = c;
}
);
};
layerId = "541C2BA0-AC60-4D5A-9C88-045E8FF497C0";
name = "6 oct. 23 à 13:50";
shapes = (
{
closed = 0;
nodes = (
(0,109,l),
(17,126,ls),
(92,201,o),
(184,292,o),
(306,334,c),
(182,283,o),
(79,159,o),
(79,63,cs),
(79,23,o),
(98,-11,o),
(137,-11,cs),
(198,-11,o),
(287,73,o),
(358,145,cs),
(431,220,o),
(487,257,o),
(549,297,c),
(545,302,l),
(477,276,o),
(348,160,o),
(348,57,cs),
(348,27,o),
(360,-6,o),
(405,-6,cs),
(466,-6,o),
(535,53,o),
(575,93,cs),
(591,109,l)
);
}
);
width = 591;
}
);
metricLeft = c;
metricRight = c;
},
{
glyphname = l_l;
kernLeft = h;
kernRight = l;
layers = (
{
layerId = "7B26D558-51A9-4DA4-9A20-DDCE4917C78D";
name = Regular;
shapes = (
{
attr = {
lineCapEnd = 1;
lineCapStart = 1;
};
closed = 0;
nodes = (
(0,111,l),
(12,123,ls),
(110,221,o),
(183,348,o),
(227,444,cs),
(264,525,o),
(276,584,o),
(261,584,cs),
(242,584,o),
(195,496,o),
(156,398,cs),
(113,297,o),
(78,183,o),
(78,83,cs),
(78,49,o),
(83,-14,o),
(118,-14,cs),
(145,-14,o),
(193,20,o),
(240,74,cs),
(353,203,o),
(411,326,o),
(448,433,cs),
(470,496,o),
(480,549,o),
(480,587,cs),
(480,604,o),
(478,619,o),
(469,619,cs),
(455,619,o),
(428,574,o),
(396,505,cs),
(354,411,o),
(308,246,o),
(308,135,cs),
(308,80,o),
(319,28,o),
(366,28,cs),
(400,28,o),
(440,54,o),
(480,94,cs),
(497,111,l)
);
}
);
visible = 1;
width = 497;
}
);
},
{
glyphname = o_n;
kernLeft = o;
kernRight = n;
layers = (
{
layerId = "7B26D558-51A9-4DA4-9A20-DDCE4917C78D";
shapes = (
{
attr = {
lineCapEnd = 1;
lineCapStart = 1;
};
closed = 0;
nodes = (
(0,111,l),
(19,130,ls),
(35,146,o),
(59,169,o),
(93,202,c)
);
},
{
attr = {
lineCapEnd = 1;
lineCapStart = 1;
};
closed = 0;
nodes = (
(93,202,l),
(68,145,o),
(51,94,o),
(50,50,cs),
(49,5,o),
(66,-23,o),
(102,-23,cs),
(166,-23,o),
(273,67,o),
(273,147,cs),
(273,201,o),
(223,224,o),
(181,243,cs),
(152,255,o),
(127,265,o),
(127,282,cs),
(127,314,o),
(219,347,o),
(304,347,cs),
(391,347,o),
(464,312,o),
(464,224,cs),
(464,136,o),
(393,42,o),
(393,31,cs),
(393,29,o),
(394,27,o),
(397,27,cs),
(405,27,o),
(429,57,o),
(468,95,cs),
(505,131,o),
(605,221,o),
(641,221,cs),
(652,221,o),
(659,211,o),
(659,187,cs),
(659,174,o),
(657,134,o),
(657,103,cs),
(657,55,o),
(662,18,o),
(684,18,cs),
(698,18,o),
(716,32,o),
(773,91,cs),
(792,111,l)
);
}
);
width = 792;
},
{
associatedMasterId = "7B26D558-51A9-4DA4-9A20-DDCE4917C78D";
background = {
shapes = (
{
attr = {
lineCapEnd = 1;
lineCapStart = 1;
};
closed = 0;
nodes = (
(0,111,l),
(19,130,ls),
(35,146,o),
(59,169,o),
(93,198,c),
(68,138,o),
(50,90,o),
(49,43,cs),
(48,-3,o),
(65,-34,o),
(101,-34,cs),
(167,-34,o),
(277,64,o),
(277,145,cs),
(277,240,o),
(127,242,o),
(127,283,cs),
(127,315,o),
(219,350,o),
(306,350,cs),
(396,350,o),
(469,314,o),
(469,227,cs),
(469,157,o),
(423,73,o),
(397,35,c),
(407,27,l),
(488,118,o),
(613,221,o),
(646,221,cs),
(657,221,o),
(664,211,o),
(664,187,cs),
(664,174,o),
(662,134,o),
(662,103,cs),
(662,55,o),
(667,18,o),
(689,18,cs),
(703,18,o),
(721,32,o),
(778,91,cs),
(797,111,l)
);
},
{
attr = {
lineCapEnd = "1";
lineCapStart = "1";
};
closed = 0;
nodes = (
(304,158,l),
(316,170,ls),
(368,222,o),
(454,316,o),
(480,316,cs),
(486,316,o),
(490,311,o),
(490,300,cs),
(489,259,o),
(436,142,o),
(412,77,cs),
(404,56,o),
(399,40,o),
(399,32,cs),
(399,28,o),
(400,26,o),
(403,26,cs),
(418,26,o),
(472,93,o),
(528,153,cs),
(576,205,o),
(623,249,o),
(647,249,cs),
(693,249,o),
(688,104,o),
(732,104,cs),
(749,104,o),
(772,126,o),
(796,150,cs),
(804,158,l)
);
}
);
};
layerId = "993B7731-4954-4FAF-BEAC-C82606205D3D";
name = "3 janv. 25 à 22:33";
shapes = (
{
attr = {
lineCapEnd = 1;
lineCapStart = 1;
};
closed = 0;
nodes = (
(0,111,l),
(19,130,ls),
(35,146,o),
(59,169,o),
(93,198,c),
(68,138,o),
(50,90,o),
(49,43,cs),
(48,-3,o),
(65,-34,o),
(101,-34,cs),
(167,-34,o),
(277,64,o),
(277,145,cs),
(277,240,o),
(127,242,o),
(127,283,cs),
(127,315,o),
(219,350,o),
(306,350,cs),
(396,350,o),
(469,314,o),
(469,227,cs),
(469,157,o),
(422,74,o),
(399,36,cs),
(396,30,o),
(399,27,o),
(402,27,cs),
(410,27,o),
(434,57,o),
(473,95,cs),
(510,131,o),
(610,221,o),
(646,221,cs),
(657,221,o),
(664,211,o),
(664,187,cs),
(664,174,o),
(662,134,o),
(662,103,cs),
(662,55,o),
(667,18,o),
(689,18,cs),
(703,18,o),
(721,32,o),
(778,91,cs),
(797,111,l)
);
}
);
width = 797;
}
);
},
{
glyphname = q_u;
kernLeft = a;
kernRight = n;
layers = (
{
layerId = "7B26D558-51A9-4DA4-9A20-DDCE4917C78D";
shapes = (
{
closed = 0;
nodes = (
(166,170,l),
(206,213,o),
(261,265,o),
(310,307,c)
);
},
{
closed = 0;
nodes = (
(302,316,l),
(155,256,o),
(0,136,o),
(0,59,cs),
(0,32,o),
(19,20,o),
(49,20,cs),
(114,20,o),
(223,76,o),
(254,76,cs),
(269,76,o),
(272,63,o),
(272,45,cs),
(272,-34,o),
(213,-261,o),
(167,-377,c),
(174,-381,l),
(309,-192,o),
(413,4,o),
(515,227,c)
);
},
{
closed = 0;
nodes = (
(310,307,l),
(302,316,l)
);
},
{
closed = 0;
nodes = (
(515,227,l),
(489,170,o),
(472,99,o),
(472,46,cs),
(472,-1,o),
(485,-33,o),
(512,-33,cs),
(560,-33,o),
(649,66,o),
(694,140,c)
);
},
{
closed = 0;
nodes = (
(694,140,l),
(690,95,o),
(696,14,o),
(734,14,cs),
(763,14,o),
(811,63,o),
(847,99,cs),
(859,111,l)
);
}
);
width = 859;
}
);
},
{
glyphname = s_s;
kernLeft = s;
kernRight = s;
layers = (
{
layerId = "7B26D558-51A9-4DA4-9A20-DDCE4917C78D";
shapes = (
{
attr = {
lineCapEnd = "1";
lineCapStart = "1";
};
closed = 0;
nodes = (
(0,111,l),
(17,128,ls),
(78,189,o),
(122,246,o),
(160,300,c)
);
},
{
closed = 0;
nodes = (
(339,-41,l),
(365,-41,o),
(454,38,o),
(510,94,cs),
(527,111,l)
);
},
{
attr = {
lineCapEnd = "1";
lineCapStart = "1";
};
closed = 0;
nodes = (
(160,300,l),
(165,298,l)
);
},
{
attr = {
lineCapEnd = "1";
lineCapStart = "1";
};
closed = 0;
nodes = (
(165,298,l),
(170,269,o),
(175,228,o),
(175,173,cs),
(175,80,o),
(156,-41,o),
(116,-41,cs),
(107,-41,o),
(103,-35,o),
(103,-27,cs),
(103,-5,o),
(133,30,o),
(214,111,cs),
(284,181,o),
(338,240,o),
(391,307,c)
);
},
{
attr = {
lineCapEnd = "1";
lineCapStart = "1";
};
closed = 0;
nodes = (
(391,307,l),
(396,305,l)
);
},
{
attr = {
lineCapEnd = "1";
lineCapStart = "1";
};
closed = 0;
nodes = (
(396,305,l),
(401,276,o),
(404,242,o),
(404,212,cs),
(405,99,o),
(377,-41,o),
(339,-41,cs),
(311,-41,o),
(301,38,o),
(301,57,c)
);
}
);
width = 527;
},
{
associatedMasterId = "7B26D558-51A9-4DA4-9A20-DDCE4917C78D";
background = {
shapes = (
{
pos = (224,0);
ref = s;
}
);
};
layerId = "DD69D11C-E072-4B01-8FE6-8254F4AF2AEA";
name = "19 oct. 23 à 21:26";
shapes = (
{
attr = {
lineCapEnd = "1";
lineCapStart = "1";
};
closed = 0;
nodes = (
(0,111,l),
(17,128,ls),
(78,189,o),
(130,247,o),
(170,300,c),
(178,297,l),
(182,269,o),
(185,228,o),
(185,184,cs),
(185,80,o),
(171,-41,o),
(127,-41,cs),
(117,-41,o),
(112,-34,o),
(112,-26,cs),
(112,-7,o),
(143,30,o),
(224,111,cs),
(286,173,o),
(368,260,o),
(408,318,c),
(417,315,l),
(422,276,o),
(426,231,o),
(426,179,cs),
(425,61,o),
(404,-68,o),
(354,-68,cs),
(349,-68,o),
(348,-66,o),
(348,-62,cs),
(348,-43,o),
(424,19,o),
(513,100,cs),
(525,111,l)
);
}
);
width = 525;
}
);
},
{
glyphname = s_t;
kernLeft = s;
kernRight = t;
layers = (
{
associatedMasterId = "7B26D558-51A9-4DA4-9A20-DDCE4917C78D";
layerId = "11268FDE-A5B1-40D5-A271-DF9467064094";
name = "22 oct. 23 à 10:28";
shapes = (
{
attr = {
lineCapEnd = "1";
lineCapStart = "1";
};
closed = 0;
nodes = (
(0,111,l),
(17,128,ls),
(43,154,o),
(140,243,o),
(160,243,cs),
(168,243,o),
(171,223,o),
(171,199,cs),
(171,175,o),
(168,134,o),
(156,97,cs),
(134,29,o),
(87,-50,o),
(65,-50,cs),
(63,-50,o),
(62,-49,o),
(62,-46,cs),
(62,-24,o),
(136,78,o),
(149,96,cs),
(218,193,o),
(326,330,o),
(451,482,c)
);
},
{
closed = 0;
nodes = (
(128,451,l),
(247,433,o),
(374,422,o),
(505,423,c)
);
},
{
attr = {
lineCapEnd = "1";
lineCapStart = "1";
};
closed = 0;
nodes = (
(451,482,l),
(413,390,o),
(345,188,o),
(345,73,cs),
(345,39,o),
(351,14,o),
(378,14,cs),
(411,14,o),
(446,51,o),
(494,99,cs),
(506,111,l)
);
}
);
width = 506;
},
{
layerId = "7B26D558-51A9-4DA4-9A20-DDCE4917C78D";
name = Regular;
shapes = (
{
attr = {
lineCapEnd = "1";
lineCapStart = "1";
};
closed = 0;
nodes = (
(0,111,l),
(17,128,ls),
(52,163,o),
(139,244,o),
(165,244,cs),
(171,244,o),
(174,236,o),
(174,212,cs),
(174,152,o),
(156,95,o),
(136,50,cs),
(116,5,o),
(82,-52,o),
(64,-52,cs),
(61,-52,o),
(60,-50,o),
(60,-47,cs),
(60,-25,o),
(126,67,o),
(138,85,cs),
(202,175,o),
(328,341,o),
(457,491,c)
);
},
{
closed = 0;
nodes = (
(118,454,l),
(237,434,o),
(374,422,o),
(505,423,c)
);
},
{
attr = {
lineCapEnd = "1";
lineCapStart = "1";
};
closed = 0;
nodes = (
(457,491,l),
(420,405,o),
(345,193,o),
(345,76,cs),
(345,44,o),
(351,19,o),
(378,19,cs),
(411,19,o),
(451,56,o),
(494,99,cs),
(506,111,l)
);
}
);
width = 506;
}
);
},
{
glyphname = t_h;
kernLeft = t;
kernRight = n;
layers = (
{
layerId = "7B26D558-51A9-4DA4-9A20-DDCE4917C78D";
shapes = (
{
closed = 0;
nodes = (
(116,414,l),
(200,413,o),
(308,413,o),
(378,417,c)
);
},
{
closed = 0;
nodes = (
(0,111,l),
(12,123,ls),
(52,163,o),
(188,343,o),
(261,500,c)
);
},
{
closed = 0;
nodes = (
(261,500,l),
(196,343,o),
(127,146,o),
(127,39,cs),
(127,1,o),
(136,-10,o),
(149,-10,cs),
(181,-10,o),
(254,61,o),
(287,94,cs),
(304,111,l)
);
},
{
pos = (304,0);
ref = h;
}
);
width = 681;
}
);
},
{
glyphname = s_s.fina;
kernLeft = s;
kernRight = s.fina;
layers = (
{
layerId = "7B26D558-51A9-4DA4-9A20-DDCE4917C78D";
shapes = (
{
attr = {
lineCapEnd = "1";
lineCapStart = "1";
};
closed = 0;
nodes = (
(0,111,l),
(17,128,ls),
(78,189,o),
(122,246,o),
(160,300,c)
);
},
{
attr = {
lineCapEnd = "1";
lineCapStart = "1";
};
closed = 0;
nodes = (
(160,300,l),
(165,298,l)
);
},
{
attr = {
lineCapEnd = "1";
lineCapStart = "1";
};
closed = 0;
nodes = (
(165,298,l),
(170,269,o),
(175,228,o),
(175,173,cs),
(175,80,o),
(156,-41,o),
(116,-41,cs),
(107,-41,o),
(103,-35,o),
(103,-27,cs),
(103,-5,o),
(133,30,o),
(214,111,cs),
(284,181,o),
(338,240,o),
(391,307,c)
);
},
{
attr = {
lineCapEnd = "1";
lineCapStart = "1";
};
closed = 0;
nodes = (
(391,307,l),
(396,305,l)
);
},
{
attr = {
lineCapEnd = "1";
lineCapStart = "1";
};
closed = 0;
nodes = (
(396,305,l),
(401,276,o),
(404,242,o),
(404,212,cs),
(405,99,o),
(377,-41,o),
(339,-41,cs),
(311,-41,o),
(301,38,o),
(301,57,c)
);
}
);
width = 454;
},
{
associatedMasterId = "7B26D558-51A9-4DA4-9A20-DDCE4917C78D";
background = {
shapes = (
{
pos = (224,0);
ref = s;
}
);
};
layerId = "DD69D11C-E072-4B01-8FE6-8254F4AF2AEA";
name = "19 oct. 23 à 21:26";
shapes = (
{
attr = {
lineCapEnd = "1";
lineCapStart = "1";
};
closed = 0;
nodes = (
(0,111,l),
(17,128,ls),
(78,189,o),
(130,247,o),
(170,300,c),
(178,297,l),
(182,269,o),
(185,228,o),
(185,184,cs),
(185,80,o),
(171,-41,o),
(127,-41,cs),
(117,-41,o),
(112,-34,o),
(112,-26,cs),
(112,-7,o),
(143,30,o),
(224,111,cs),
(286,173,o),
(368,260,o),
(408,318,c),
(417,315,l),
(422,276,o),
(426,231,o),
(426,179,cs),
(425,61,o),
(404,-68,o),
(354,-68,cs),
(349,-68,o),
(348,-66,o),
(348,-62,cs),
(348,-43,o),
(424,19,o),
(513,100,cs),
(525,111,l)
);
}
);
width = 525;
}
);
metricRight = s.fina;
},
{
glyphname = f_f.ss01;
kernLeft = f;
kernRight = f;
layers = (
{
layerId = "7B26D558-51A9-4DA4-9A20-DDCE4917C78D";
shapes = (
{
ref = dottedCircle;
},
{
pos = (236,0);
ref = f;
}
);
width = 472;
},
{
associatedMasterId = "7B26D558-51A9-4DA4-9A20-DDCE4917C78D";
background = {
shapes = (
{
closed = 0;
nodes = (
(183,91,l),
(189,97,ls),
(271,179,o),
(405,382,o),
(405,452,cs),
(405,465,o),
(399,477,o),
(387,477,cs),
(302,477,o),
(213,-41,o),
(213,-185,cs),
(213,-252,o),
(225,-284,o),
(256,-243,cs),
(284,-206,o),
(338,-85,o),
(363,-12,c),
(369,5,l)
);
}
);
};
layerId = "6D2AA0EC-016C-4F7E-B3CB-D52DB6F0512E";
name = "24 nov. 22 à 11:48";
shapes = (
{
closed = 0;
nodes = (
(0,91,l),
(16,107,ls),
(110,201,o),
(195,382,o),
(195,394,cs),
(195,396,o),
(195,398,o),
(192,398,cs),
(178,398,o),
(31,-77,o),
(31,-194,c),
(58,-107,o),
(77,-49,o),
(132,22,cs),
(182,87,o),
(405,336,o),
(405,452,cs),
(405,465,o),
(399,477,o),
(387,477,cs),
(302,477,o),
(213,-41,o),
(213,-185,cs),
(213,-252,o),
(226,-284,o),
(257,-243,cs),
(285,-206,o),
(338,-85,o),
(363,-12,c),
(369,5,l)
);
},
{
closed = 0;
nodes = (
(395,69,l),
(432,91,l)
);
}
);
width = 432;
}
);
},
{
glyphname = p_p.ss01;
kernLeft = f;
kernRight = n;
layers = (
{
layerId = "7B26D558-51A9-4DA4-9A20-DDCE4917C78D";
shapes = (
{
ref = dottedCircle;
},
{
pos = (236,0);
ref = p;
}
);
width = 634;
},
{
associatedMasterId = "7B26D558-51A9-4DA4-9A20-DDCE4917C78D";
layerId = "0859F535-E0EB-4612-B889-E815460D1DF2";
name = "24 nov. 22 à 11:49";
shapes = (
{
closed = 0;
nodes = (
(0,91,l),
(16,107,ls),
(110,201,o),
(195,382,o),
(195,394,cs),
(195,396,o),
(195,398,o),
(192,398,cs),
(178,398,o),
(30,-117,o),
(30,-127,c),
(38,-121,o),
(139,31,o),
(183,91,cs),
(255,189,o),
(293,231,o),
(344,350,c),
(267,144,o),
(197,-240,o),
(210,-240,cs),
(222,-240,o),
(323,173,o),
(378,173,cs),
(417,173,o),
(420,60,o),
(456,60,cs),
(468,60,o),
(478,69,o),
(494,85,c),
(500,91,l)
);
}
);
width = 500;
}
);
},
{
glyphname = s_s.ss02;
kernLeft = s;
kernRight = f;
layers = (
{
layerId = "7B26D558-51A9-4DA4-9A20-DDCE4917C78D";
shapes = (
{
pos = (313,0);
ref = dottedCircle;
},
{
ref = s;
}
);
width = 549;
},
{
associatedMasterId = "7B26D558-51A9-4DA4-9A20-DDCE4917C78D";
background = {
shapes = (
{
pos = (224,0);
ref = s;
}
);
};
layerId = "DD69D11C-E072-4B01-8FE6-8254F4AF2AEA";
name = "19 oct. 23 à 21:26";
shapes = (
{
attr = {
lineCapEnd = "1";
lineCapStart = "1";
};
closed = 0;
nodes = (
(0,111,l),
(17,128,ls),
(78,189,o),
(130,247,o),
(170,300,c),
(178,297,l),
(182,269,o),
(185,228,o),
(185,184,cs),
(185,80,o),
(171,-41,o),
(127,-41,cs),
(117,-41,o),
(112,-34,o),
(112,-26,cs),
(112,-7,o),
(143,30,o),
(224,111,cs),
(286,173,o),
(368,260,o),
(408,318,c),
(417,315,l),
(422,276,o),
(426,231,o),
(426,179,cs),
(425,61,o),
(404,-68,o),
(354,-68,cs),
(349,-68,o),
(348,-66,o),
(348,-62,cs),
(348,-43,o),
(424,19,o),
(513,100,cs),
(525,111,l)
);
}
);
width = 525;
}
);
},
{
glyphname = Delta;
layers = (
{
layerId = "7B26D558-51A9-4DA4-9A20-DDCE4917C78D";
shapes = (
{
attr = {
lineCapEnd = "1";
lineCapStart = "1";
};
closed = 0;
nodes = (
(10,-22,l),
(59,190,o),
(157,420,o),
(255,594,c)
);
},
{
attr = {
lineCapEnd = "1";
lineCapStart = "1";
};
closed = 0;
nodes = (
(334,46,l),
(223,29,o),
(118,9,o),
(35,-10,c)
);
},
{
attr = {
lineCapEnd = "1";
lineCapStart = "1";
};
closed = 0;
nodes = (
(212,552,l),
(257,539,o),
(294,518,o),
(313,487,cs),
(337,449,o),
(329,161,o),
(319,44,cs)
);
}
);
width = 384;
}
);
unicode = 916;
},
{
glyphname = Omega;
layers = (
{
layerId = "7B26D558-51A9-4DA4-9A20-DDCE4917C78D";
shapes = (
{
closed = 0;
nodes = (
(183,565,l),
(122,472,o),
(78,361,o),
(78,260,cs),
(78,172,o),
(113,116,o),
(189,116,cs),
(310,116,o),
(433,254,o),
(433,409,cs),
(433,503,o),
(389,566,o),
(295,566,cs),
(214,566,o),
(146,516,o),
(95,473,cs)
);
},
{
closed = 0;
nodes = (
(12,-10,l),
(77,8,o),
(196,38,o),
(286,38,cs),
(340,38,o),
(382,27,o),
(390,4,cs)
);
}
);
width = 476;
},
{
associatedMasterId = "7B26D558-51A9-4DA4-9A20-DDCE4917C78D";
layerId = "EE96DA1F-99C0-4119-ACF8-C0052BF7DE28";
name = "6 févr. 25 à 22:32";
shapes = (
{
closed = 0;
nodes = (
(502,10,l),
(353,10,l),
(353,29,l),
(419,89,o),
(482,182,o),
(482,314,cs),
(482,468,o),
(397,580,o),
(271,580,cs),
(145,580,o),
(62,468,o),
(62,314,cs),
(62,182,o),
(123,89,o),
(189,29,c),
(189,10,l),
(40,10,l)
);
}
);
width = 476;
}
);
unicode = 937;
},
{
glyphname = pi;
layers = (
{
layerId = "7B26D558-51A9-4DA4-9A20-DDCE4917C78D";
shapes = (
{
closed = 0;
nodes = (
(149,260,l),
(118,180,o),
(90,83,o),
(72,-24,cs)
);
},
{
closed = 0;
nodes = (
(70,294,l),
(96,276,o),
(156,264,o),
(232,264,cs),
(280,264,o),
(334,269,o),
(390,280,c)
);
},
{
closed = 0;
nodes = (
(390,280,l),
(279,206,o),
(228,111,o),
(228,54,cs),
(228,21,o),
(246,4,o),
(275,4,cs),
(324,4,o),
(381,52,o),
(419,92,cs)
);
}
);
width = 449;
}
);
unicode = 960;
},
{
glyphname = zero;
kernLeft = zero;
kernRight = zero;
layers = (
{
layerId = "7B26D558-51A9-4DA4-9A20-DDCE4917C78D";
shapes = (
{
closed = 0;
nodes = (
(114,310,l),
(78,232,o),
(60,160,o),
(60,101,cs),
(60,12,o),
(100,-24,o),
(145,-24,cs),
(231,-24,o),
(305,108,o),
(305,220,cs),
(305,295,o),
(270,340,o),
(217,340,cs),
(185,340,o),
(150,321,o),
(118,284,c)
);
}
);
width = 345;
}
);
unicode = 48;
},
{
glyphname = one;
kernLeft = one;
kernRight = one;
layers = (
{
layerId = "7B26D558-51A9-4DA4-9A20-DDCE4917C78D";
shapes = (
{
closed = 0;
nodes = (
(40,194,l),
(100,245,o),
(182,296,o),
(244,322,c)
);
},
{
closed = 0;
nodes = (
(244,322,l),
(247,319,l)
);
},
{
closed = 0;
nodes = (
(247,319,l),
(235,212,o),
(209,97,o),
(165,-40,c)
);
}
);
width = 297;
}
);
unicode = 49;
},
{
glyphname = two;
kernLeft = two;
kernRight = two;
layers = (
{
layerId = "7B26D558-51A9-4DA4-9A20-DDCE4917C78D";
shapes = (
{
closed = 0;
nodes = (
(68,234,l),
(63,249,o),
(61,260,o),
(61,270,cs),
(61,312,o),
(96,328,o),
(144,328,cs),
(198,328,o),
(281,309,o),
(281,251,cs),
(281,171,o),
(124,43,o),
(50,-17,c)
);
},
{
closed = 0;
nodes = (
(50,-17,l),
(50,-21,l)
);
},
{
closed = 0;
nodes = (
(50,-21,l),
(132,-37,o),
(228,-37,o),
(311,-24,c)
);
}
);
width = 346;
}
);
unicode = 50;
},
{
glyphname = three;
kernLeft = three;
kernRight = three;
layers = (
{
layerId = "7B26D558-51A9-4DA4-9A20-DDCE4917C78D";
shapes = (
{
attr = {
lineCapEnd = 1;
lineCapStart = 1;
};
closed = 0;
nodes = (
(48,276,l),
(89,304,o),
(154,328,o),
(209,328,cs),
(234,328,o),
(258,322,o),
(258,296,cs),
(258,249,o),
(166,136,o),
(106,69,c)
);
},
{
attr = {
lineCapEnd = 1;
lineCapStart = 1;
};
closed = 0;
nodes = (
(106,69,l),
(158,59,o),
(271,24,o),
(271,-26,cs),
(271,-72,o),
(189,-144,o),
(20,-167,c)
);
}
);
width = 321;
}
);
unicode = 51;
},
{
glyphname = four;
kernLeft = four;
kernRight = four;
layers = (
{
layerId = "7B26D558-51A9-4DA4-9A20-DDCE4917C78D";
shapes = (
{
closed = 0;
nodes = (
(271,218,l),
(235,100,o),
(212,-24,o),
(192,-189,c)
);
},
{
closed = 0;
nodes = (
(172,351,l),
(129,289,o),
(50,105,o),
(50,29,cs),
(50,-14,o),
(73,-20,o),
(106,-20,cs),
(173,-20,o),
(278,10,o),
(309,21,cs)
);
}
);
width = 334;
}
);
unicode = 52;
},
{
glyphname = five;
kernLeft = five;
kernRight = five;
layers = (
{
layerId = "7B26D558-51A9-4DA4-9A20-DDCE4917C78D";
shapes = (
{
closed = 0;
nodes = (
(315,326,l),
(256,323,o),
(180,323,o),
(123,326,c),
(99,288,o),
(76,234,o),
(76,187,cs),
(76,145,o),
(95,127,o),
(151,84,cs),
(210,40,o),
(278,-11,o),
(278,-54,cs),
(278,-97,o),
(207,-131,o),
(115,-131,cs),
(90,-131,o),
(70,-129,o),
(50,-124,cs)
);
}
);
width = 332;
}
);
unicode = 53;
},
{
glyphname = six;
kernLeft = six;
kernRight = six;
layers = (
{
layerId = "7B26D558-51A9-4DA4-9A20-DDCE4917C78D";
shapes = (
{
closed = 0;
nodes = (
(307,497,l),
(178,385,o),
(75,261,o),
(75,149,cs),
(75,52,o),
(152,-24,o),
(228,-24,cs),
(284,-24,o),
(308,18,o),
(308,58,cs),
(308,118,o),
(253,196,o),
(168,253,c)
);
}
);
width = 358;
}
);
unicode = 54;
},
{
glyphname = seven;
kernLeft = seven;
kernRight = seven;
layers = (
{
layerId = "7B26D558-51A9-4DA4-9A20-DDCE4917C78D";
shapes = (
{
closed = 0;
nodes = (
(20,328,l),
(107,331,o),
(251,304,o),
(251,252,cs),
(251,247,o),
(250,237,o),
(243,218,cs),
(193,72,o),
(165,-15,o),
(119,-164,c)
);
}
);
width = 291;
}
);
unicode = 55;
},
{
glyphname = eight;
kernLeft = eight;
kernRight = eight;
layers = (
{
layerId = "7B26D558-51A9-4DA4-9A20-DDCE4917C78D";
shapes = (
{
closed = 0;
nodes = (
(78,407,l),
(111,439,o),
(160,464,o),
(213,464,cs),
(267,464,o),
(293,437,o),
(293,389,cs),
(293,324,o),
(246,255,o),
(180,177,cs),
(118,103,o),
(71,55,o),
(71,17,cs),
(71,-7,o),
(91,-31,o),
(127,-31,cs),
(182,-31,o),
(244,21,o),
(244,71,cs),
(244,104,o),
(216,130,o),
(170,169,cs),
(125,207,o),
(65,255,o),
(65,299,cs),
(65,307,o),
(67,325,o),
(81,346,c)
);
}
);
width = 308;
}
);
unicode = 56;
},
{
glyphname = nine;
kernLeft = nine;
kernRight = nine;
layers = (
{
layerId = "7B26D558-51A9-4DA4-9A20-DDCE4917C78D";
shapes = (
{
closed = 0;
nodes = (
(319,357,l),
(161,296,o),
(40,150,o),
(40,86,cs),
(40,61,o),
(59,43,o),
(84,43,cs),
(144,43,o),
(255,145,o),
(319,219,c)
);
},
{
closed = 0;
nodes = (
(319,219,l),
(321,219,l)
);
},
{
closed = 0;
nodes = (
(321,219,l),
(305,70,o),
(269,-54,o),
(201,-195,c)
);
}
);
width = 366;
}
);
unicode = 57;
},
{
glyphname = zero.lf;
kernLeft = zero.lf;
kernRight = zero.lf;
layers = (
{
associatedMasterId = "7B26D558-51A9-4DA4-9A20-DDCE4917C78D";
background = {
shapes = (
{
closed = 1;
nodes = (
(393,417,o),
(396,422,o),
(396,429,c),
(400,536,o),
(370,550,o),
(356,580,c),
(308,625,o),
(298,626,o),
(278,626,cs),
(271,626,o),
(262,625,o),
(253,620,c),
(217,620,o),
(176,559,o),
(163,559,c),
(163,563,o),
(168,570,o),
(168,580,cs),
(168,591,o),
(166,600,o),
(147,600,cs),
(139,600,o),
(121,580,o),
(121,572,c),
(113,550,o),
(95,528,o),
(95,504,c),
(65,434,o),
(76,424,o),
(61,400,c),
(58,365,o),
(40,320,o),
(40,276,c),
(34,258,o),
(36,213,o),
(32,182,c),
(37,171,l),
(36,162,o),
(35,148,o),
(35,136,cs),
(35,106,o),
(43,95,o),
(45,84,c),
(52,17,o),
(83,8,o),
(97,-9,c),
(132,-33,o),
(139,-36,o),
(181,-36,cs),
(216,-36,o),
(217,-22,o),
(230,-21,c),
(255,-2,o),
(307,50,o),
(310,74,c),
(329,96,o),
(341,139,o),
(352,156,c),
(352,173,o),
(362,181,o),
(362,194,c),
(388,266,o),
(389,327,o),
(396,337,c),
(396,345,o),
(393,349,o),
(393,374,cs)
);
},
{
closed = 1;
nodes = (
(311,513,o),
(305,462,o),
(323,438,c),
(329,429,o),
(330,388,o),
(337,383,c),
(337,383,o),
(334,374,o),
(334,366,cs),
(334,357,o),
(337,351,o),
(337,342,cs),
(337,302,o),
(322,260,o),
(320,240,c),
(301,205,o),
(305,191,o),
(257,107,c),
(236,93,o),
(227,50,o),
(181,50,cs),
(144,50,o),
(141,109,o),
(127,134,c),
(127,176,o),
(120,216,o),
(120,292,c),
(123,307,o),
(125,392,o),
(144,425,c),
(144,428,o),
(141,431,o),
(141,446,c),
(157,493,o),
(209,513,o),
(219,513,cs)
);
}
);
};
layerId = "9A486FD1-35BB-421F-82A7-ED0B78FD08C4";
name = "30 janv. 25 à 23:05";
shapes = (
{
closed = 0;
nodes = (
(132,540,l),
(94,432,o),
(70,341,o),
(70,220,cs),
(70,57,o),
(114,-20,o),
(172,-20,cs),
(258,-20,o),
(371,151,o),
(371,369,cs),
(371,495,o),
(332,563,o),
(265,563,cs),
(221,563,o),
(171,534,o),
(131,489,c)
);
}
);
width = 416;
},
{
layerId = "7B26D558-51A9-4DA4-9A20-DDCE4917C78D";
name = Regular;
shapes = (
{
closed = 0;
nodes = (
(136,540,l),
(97,432,o),
(75,341,o),
(75,220,cs),
(75,60,o),
(118,-15,o),
(174,-15,cs),
(257,-15,o),
(367,154,o),
(367,369,cs),
(367,492,o),
(330,558,o),
(262,558,cs),
(220,558,o),
(172,534,o),
(132,484,c)
);
}
);
width = 417;
}
);
},
{
glyphname = one.lf;
kernLeft = one.lf;
kernRight = one.lf;
layers = (
{
layerId = "7B26D558-51A9-4DA4-9A20-DDCE4917C78D";
shapes = (
{
attr = {
lineCapEnd = 1;
lineCapStart = 1;
};
closed = 0;
nodes = (
(30,345,l),
(104,417,o),
(191,494,o),
(278,565,c)
);
},
{
attr = {
lineCapEnd = 1;
lineCapStart = 1;
};
closed = 0;
nodes = (
(278,565,l),
(283,562,l)
);
},
{
attr = {
lineCapEnd = 1;
lineCapStart = 1;
};
closed = 0;
nodes = (
(283,562,l),
(263,423,o),
(219,213,o),
(155,-11,c)
);
}
);
width = 323;
},
{
associatedMasterId = "7B26D558-51A9-4DA4-9A20-DDCE4917C78D";
background = {
shapes = (
{
closed = 1;
nodes = (
(103,-44,o),
(109,-48,o),
(116,-48,cs),
(125,-48,o),
(186,-3,o),
(191,30,c),
(203,42,o),
(210,59,o),
(230,130,c),
(244,159,o),
(247,197,o),
(259,225,c),
(260,236,o),
(262,245,o),
(268,253,c),
(266,263,l),
(287,303,o),
(280,319,o),
(296,362,cs),
(305,387,o),
(315,454,o),
(319,470,c),
(319,515,o),
(334,534,o),
(334,577,cs),
(334,581,o),
(333,587,o),
(332,591,c),
(328,595,o),
(323,610,o),
(302,617,c),
(296,617,o),
(287,625,o),
(280,625,cs),
(263,625,o),
(223,584,o),
(213,572,cs),
(195,551,o),
(183,550,o),
(168,526,c),
(151,516,o),
(117,472,o),
(108,470,c),
(92,441,o),
(69,437,o),
(22,373,c),
(14,369,o),
(12,337,o),
(12,325,cs),
(12,320,o),
(15,318,o),
(21,318,cs),
(38,318,o),
(46,344,o),
(113,393,c),
(125,410,o),
(140,414,o),
(150,428,c),
(189,449,o),
(202,470,o),
(211,470,cs),
(215,470,o),
(216,467,o),
(216,461,cs),
(216,416,o),
(208,400,o),
(206,363,c),
(193,273,o),
(173,228,o),
(162,162,c),
(162,153,o),
(157,153,o),
(155,146,c),
(144,112,o),
(152,103,o),
(135,75,c),
(128,29,o),
(103,-15,o),
(103,-34,cs)
);
}
);
};
layerId = "E2971438-6589-4D25-AB05-59A68A25C1F6";
name = "30 janv. 25 à 18:41";
shapes = (
{
attr = {
lineCapEnd = 1;
lineCapStart = 1;
};
closed = 0;
nodes = (
(30,345,l),
(100,426,o),
(193,521,o),
(260,575,c)
);
},
{
attr = {
lineCapEnd = 1;
lineCapStart = 1;
};
closed = 0;
nodes = (
(260,575,l),
(268,571,l)
);
},
{
attr = {
lineCapEnd = 1;
lineCapStart = 1;
};
closed = 0;
nodes = (
(268,571,l),
(261,438,o),
(227,223,o),
(172,-1,c)
);
}
);
width = 328;
}
);
},
{
glyphname = two.lf;
kernLeft = two.lf;
kernRight = two.lf;
layers = (
{
layerId = "7B26D558-51A9-4DA4-9A20-DDCE4917C78D";
shapes = (
{
attr = {
lineCapEnd = 1;
lineCapStart = 1;
};
closed = 0;
nodes = (
(75,428,l),
(65,451,o),
(61,467,o),
(61,486,cs),
(61,550,o),
(114,571,o),
(175,571,cs),
(257,571,o),
(333,532,o),
(333,467,cs),
(333,375,o),
(179,172,o),
(55,36,cs)
);
},
{
attr = {
lineCapEnd = 1;
lineCapStart = 1;
};
closed = 0;
nodes = (
(55,36,l),
(55,30,l)
);
},
{
attr = {
lineCapEnd = 1;
lineCapStart = 1;
};
closed = 0;
nodes = (
(55,30,l),
(88,21,o),
(138,15,o),
(184,15,cs),
(236,15,o),
(314,23,o),
(354,33,cs)
);
}
);
width = 389;
},
{
associatedMasterId = "7B26D558-51A9-4DA4-9A20-DDCE4917C78D";
background = {
shapes = (
{
closed = 1;
nodes = (
(85,417,o),
(88,418,o),
(101,434,c),
(103,472,o),
(119,477,o),
(121,485,c),
(140,501,o),
(167,508,o),
(213,508,cs),
(226,508,o),
(236,505,o),
(238,503,c),
(266,488,o),
(311,487,o),
(311,442,cs),
(311,417,o),
(294,391,o),
(294,389,c),
(294,379,o),
(258,338,o),
(254,324,c),
(245,303,o),
(163,213,o),
(149,185,c),
(85,120,o),
(91,108,o),
(63,79,c),
(58,70,o),
(42,41,o),
(42,31,cs),
(42,22,o),
(42,-19,o),
(83,-25,cs),
(102,-29,o),
(114,-36,o),
(131,-36,cs),
(164,-36,o),
(214,-35,o),
(231,-32,c),
(248,-26,o),
(293,-26,o),
(306,-13,c),
(369,-9,o),
(378,-1,o),
(386,13,c),
(408,14,o),
(413,41,o),
(413,59,c),
(405,65,o),
(399,65,o),
(394,65,cs),
(384,65,o),
(375,60,o),
(372,60,cs),
(345,60,o),
(337,60,o),
(319,56,c),
(310,56,o),
(299,57,o),
(292,59,c),
(284,57,o),
(270,53,o),
(257,53,cs),
(250,53,o),
(243,56,o),
(239,58,c),
(232,55,o),
(227,55,o),
(221,55,cs),
(209,55,o),
(157,59,o),
(157,68,cs),
(157,91,o),
(176,104,o),
(188,127,cs),
(200,149,o),
(225,165,o),
(254,221,c),
(277,244,o),
(287,273,o),
(310,294,c),
(323,329,o),
(386,383,o),
(386,480,cs),
(386,515,o),
(376,521,o),
(367,548,c),
(344,577,o),
(312,586,o),
(300,595,c),
(266,595,o),
(241,610,o),
(219,610,cs),
(214,610,o),
(208,609,o),
(201,608,c),
(196,609,o),
(191,610,o),
(184,610,cs),
(149,610,o),
(132,602,o),
(114,599,c),
(104,587,o),
(75,590,o),
(56,550,c),
(49,530,o),
(48,522,o),
(48,489,cs),
(48,469,o),
(62,417,o),
(83,417,c)
);
}
);
};
layerId = "1FED1EF7-8486-49FD-B054-BAEB5441AC18";
name = "30 janv. 25 à 18:58";
shapes = (
{
attr = {
lineCapEnd = 1;
lineCapStart = 1;
};
closed = 0;
nodes = (
(96,428,l),
(86,451,o),
(82,467,o),
(82,486,cs),
(82,554,o),
(135,576,o),
(196,576,cs),
(278,576,o),
(358,535,o),
(358,459,cs),
(358,341,o),
(164,138,o),
(60,36,cs)
);
},
{
attr = {
lineCapEnd = 1;
lineCapStart = 1;
};
closed = 0;
nodes = (
(60,36,l),
(60,30,l)
);
},
{
attr = {
lineCapEnd = 1;
lineCapStart = 1;
};
closed = 0;
nodes = (
(60,30,l),
(93,21,o),
(143,15,o),
(189,15,cs),
(241,15,o),
(319,23,o),
(359,33,cs)
);
}
);
width = 413;
}
);
},
{
glyphname = three.lf;
kernLeft = three.lf;
kernRight = three.lf;
layers = (
{
layerId = "7B26D558-51A9-4DA4-9A20-DDCE4917C78D";
shapes = (
{
attr = {
lineCapEnd = 1;
lineCapStart = 1;
};
closed = 0;
nodes = (
(57,526,l),
(109,553,o),
(170,573,o),
(232,573,cs),
(271,573,o),
(299,566,o),
(299,540,cs),
(299,492,o),
(203,360,o),
(127,270,c)
);
},
{
attr = {
lineCapEnd = 1;
lineCapStart = 1;
};
closed = 0;
nodes = (
(127,270,l),
(128,266,l)
);
},
{
attr = {
lineCapEnd = 1;
lineCapStart = 1;
};
closed = 0;
nodes = (
(128,266,l),
(223,238,o),
(316,196,o),
(316,154,cs),
(316,104,o),
(186,14,o),
(30,-31,c)
);
}
);
width = 354;
},
{
associatedMasterId = "7B26D558-51A9-4DA4-9A20-DDCE4917C78D";
background = {
shapes = (
{
closed = 1;
nodes = (
(95,232,o),
(103,222,o),
(145,211,c),
(189,184,o),
(261,184,o),
(261,157,cs),
(261,146,o),
(248,144,o),
(240,128,c),
(186,89,o),
(171,90,o),
(126,52,c),
(116,49,o),
(113,47,o),
(87,30,c),
(63,7,o),
(2,-8,o),
(0,-29,cs),
(-2,-41,o),
(11,-51,o),
(26,-51,cs),
(44,-51,o),
(54,-47,o),
(55,-47,c),
(66,-49,o),
(79,-50,o),
(87,-50,cs),
(94,-50,o),
(98,-41,o),
(148,-30,c),
(190,-2,o),
(199,-4,o),
(224,15,c),
(240,17,o),
(245,30,o),
(254,31,c),
(260,41,o),
(351,89,o),
(351,141,cs),
(351,188,o),
(339,194,o),
(329,212,c),
(283,254,o),
(240,250,o),
(188,286,c),
(188,305,o),
(229,361,o),
(251,386,c),
(253,399,o),
(321,474,o),
(331,501,cs),
(336,513,o),
(347,527,o),
(347,551,cs),
(347,575,o),
(321,600,o),
(312,601,c),
(306,602,o),
(298,613,o),
(198,613,c),
(190,611,o),
(177,607,o),
(162,607,c),
(105,589,o),
(57,604,o),
(44,531,c),
(39,523,o),
(33,513,o),
(33,496,cs),
(33,482,o),
(36,476,o),
(49,472,c),
(63,472,o),
(80,490,o),
(139,497,c),
(152,505,o),
(162,502,o),
(215,508,c),
(241,508,o),
(250,502,o),
(250,493,c),
(239,476,o),
(231,465,o),
(221,444,c),
(207,431,o),
(213,424,o),
(188,400,c),
(150,334,o),
(95,297,o),
(95,254,cs)
);
}
);
};
layerId = "FD3D7878-24B3-4926-8DE2-46DA318A6248";
name = "30 janv. 25 à 19:02";
shapes = (
{
attr = {
lineCapEnd = 1;
lineCapStart = 1;
};
closed = 0;
nodes = (
(40,509,l),
(94,547,o),
(194,580,o),
(256,581,cs),
(286,582,o),
(313,575,o),
(313,550,cs),
(313,498,o),
(188,328,o),
(126,261,c)
);
},
{
attr = {
lineCapEnd = 1;
lineCapStart = 1;
};
closed = 0;
nodes = (
(126,261,l),
(127,257,l)
);
},
{
attr = {
lineCapEnd = 1;
lineCapStart = 1;
};
closed = 0;
nodes = (
(127,257,l),
(211,238,o),
(320,206,o),
(320,154,cs),
(320,96,o),
(188,14,o),
(32,-36,c)
);
}
);
width = 358;
}
);
},
{
glyphname = four.lf;
kernLeft = four.lf;
kernRight = four.lf;
layers = (
{
layerId = "7B26D558-51A9-4DA4-9A20-DDCE4917C78D";
shapes = (
{
closed = 0;
nodes = (
(321,430,l),
(289,288,o),
(259,123,o),
(234,-75,c)
);
},
{
closed = 0;
nodes = (
(111,517,l),
(125,549,o),
(146,586,o),
(165,610,c),
(173,609,l),
(107,476,o),
(60,336,o),
(60,229,cs),
(60,185,o),
(68,146,o),
(153,146,cs),
(207,146,o),
(305,162,o),
(392,198,cs)
);
}
);
width = 402;
}
);
},
